<svg xmlns="http://www.w3.org/2000/svg" width="103" height="33" viewBox="0 0 103 33" fill="none"><g clip-path="url(#clip0_501_3)"><path d="M26.9527 30.9128H2.63147V9.14406L14.7921 1.30519L26.9527 9.14406V30.9128Z" fill="#6FE7DB"></path><path d="M10.9569 31.6192H9.99226C9.90689 31.6192 9.82793 31.585 9.77031 31.521C9.71268 31.4591 9.68281 31.3759 9.68921 31.2926L9.89622 28.4883C9.90903 28.3219 10.0563 28.1959 10.2228 28.2066C10.3892 28.2194 10.5151 28.3645 10.5045 28.5331L10.3209 31.0109H10.7691L12.0646 28.3773C12.1393 28.2258 12.3207 28.1661 12.4722 28.2386C12.6237 28.3133 12.6856 28.4947 12.6109 28.6462L11.2322 31.4506C11.181 31.5551 11.0743 31.6213 10.959 31.6213L10.9569 31.6192Z" fill="#0A0A0A"></path><path d="M4.33668 33C4.16808 33 4.03149 32.8634 4.03149 32.6948V10.7148C4.03149 10.5462 4.16808 10.4096 4.33668 10.4096C4.50528 10.4096 4.63974 10.5462 4.63974 10.7148V32.6948C4.63974 32.8634 4.50315 33 4.33668 33Z" fill="#0A0A0A"></path><path d="M23.6617 22.2757C23.6617 22.2757 23.6511 22.2757 23.6468 22.2757C23.4782 22.2672 23.3501 22.1242 23.3587 21.9577C23.3608 21.9108 23.6105 17.2156 25.1194 13.2673C25.8151 11.4469 25.7298 9.92518 24.8825 9.09711C24.2678 8.49527 23.3267 8.36935 22.3641 8.76204C19.9696 9.73737 17.3509 9.80993 17.24 9.81206C17.1162 9.80993 14.4954 9.73737 12.1008 8.76204C11.1383 8.36935 10.1971 8.49527 9.5825 9.09711C8.73522 9.92518 8.64986 11.4469 9.3456 13.2673C10.8545 17.2134 11.1042 21.9108 11.1063 21.9577C11.1148 22.1263 10.9847 22.2693 10.8182 22.2757C10.6517 22.2864 10.5066 22.1541 10.5002 21.9876C10.4981 21.9406 10.2526 17.3393 8.77791 13.485C7.99253 11.4276 8.12911 9.66907 9.15779 8.66387C9.95171 7.88703 11.1362 7.71416 12.3313 8.20075C14.6192 9.13339 17.2143 9.20596 17.24 9.20596C17.2506 9.20596 19.8458 9.13126 22.1336 8.20075C23.3267 7.71416 24.5133 7.88916 25.3072 8.66387C26.3359 9.66907 26.4746 11.4276 25.6871 13.485C24.2145 17.3393 23.9691 21.9428 23.9648 21.9876C23.9562 22.1498 23.8218 22.2757 23.6617 22.2757Z" fill="#0A0A0A"></path><path d="M24.2636 22.2757H10.1993C10.0307 22.2757 9.8941 22.1391 9.8941 21.9727C9.8941 21.8062 10.0307 21.6675 10.1993 21.6675H24.2636C24.4322 21.6675 24.5688 21.8041 24.5688 21.9727C24.5688 22.1413 24.4322 22.2757 24.2636 22.2757Z" fill="#0A0A0A"></path><path d="M26.4255 28.5865H8.03735C7.9029 28.5865 7.78339 28.4969 7.74497 28.3688L5.54036 20.8928C5.35468 20.2589 5.4742 19.593 5.86902 19.0659C6.26384 18.5366 6.86995 18.2336 7.52942 18.2336C8.44925 18.2336 9.2453 18.8247 9.51208 19.704L11.2493 25.4258H23.2093L24.9465 19.704C25.2133 18.8247 26.0115 18.2336 26.9292 18.2336C27.5886 18.2336 28.1948 18.5366 28.5896 19.0659C28.9844 19.5952 29.1039 20.261 28.9182 20.8928L26.7136 28.3688C26.6752 28.499 26.5557 28.5865 26.4212 28.5865H26.4255ZM8.26571 27.9783H26.1972L28.3377 20.7199C28.4701 20.2717 28.3847 19.8022 28.1051 19.4287C27.8255 19.0552 27.3987 18.8418 26.9313 18.8418C26.2825 18.8418 25.7191 19.2601 25.5292 19.8812L23.7258 25.8206C23.6873 25.9487 23.5678 26.0362 23.4355 26.0362H11.0252C10.8908 26.0362 10.7734 25.9487 10.735 25.8206L8.93158 19.8812C8.74377 19.2601 8.18034 18.8418 7.52942 18.8418C7.06416 18.8418 6.63519 19.0552 6.35562 19.4287C6.07604 19.8022 5.9928 20.2717 6.12299 20.7199L8.26358 27.9783H8.26571Z" fill="#0A0A0A"></path><path d="M24.4706 31.6192H23.5059C23.3907 31.6192 23.284 31.553 23.2327 31.4484L21.8541 28.6441C21.7794 28.4926 21.8413 28.3112 21.9928 28.2365C22.1443 28.1618 22.3257 28.2237 22.4004 28.3752L23.6959 31.0088H24.144L23.9605 28.531C23.9477 28.3645 24.0736 28.2173 24.2422 28.2045C24.4087 28.1938 24.5559 28.3176 24.5687 28.4862L24.7758 31.2905C24.7822 31.3759 24.7523 31.457 24.6947 31.5189C24.637 31.5808 24.5559 31.617 24.4727 31.617L24.4706 31.6192Z" fill="#0A0A0A"></path><path d="M33.3317 33H1.13112C0.962516 33 0.825928 32.8634 0.825928 32.6948C0.825928 32.5262 0.962516 32.3918 1.13112 32.3918H33.3317C33.5003 32.3918 33.6369 32.5283 33.6369 32.6948C33.6369 32.8613 33.5003 33 33.3317 33Z" fill="#0A0A0A"></path><path d="M30.124 33C29.9554 33 29.821 32.8634 29.821 32.6948V10.7148C29.821 10.5462 29.9576 10.4096 30.124 10.4096C30.2905 10.4096 30.4292 10.5462 30.4292 10.7148V32.6948C30.4292 32.8634 30.2926 33 30.124 33Z" fill="#0A0A0A"></path><path d="M34.1576 12.5203C34.1021 12.5203 34.0445 12.5054 33.9933 12.4713L17.2314 1.66587L0.469495 12.4713C0.328639 12.563 0.140831 12.5225 0.0490607 12.3795C-0.0427094 12.2386 -0.00215983 12.0508 0.140831 11.9591L17.0671 1.04909C17.1674 0.985062 17.2954 0.985062 17.3957 1.04909L34.322 11.9612C34.4628 12.053 34.5034 12.2408 34.4137 12.3816C34.3561 12.4713 34.2579 12.5203 34.1576 12.5203Z" fill="#0A0A0A"></path><path d="M12.9054 12.7636C12.8286 12.7636 12.7496 12.7338 12.6899 12.674L10.9206 10.9048C10.8011 10.7852 10.8011 10.5932 10.9206 10.4737C11.0401 10.3541 11.2322 10.3541 11.3517 10.4737L13.121 12.2429C13.2405 12.3624 13.2405 12.5545 13.121 12.674C13.0612 12.7338 12.9844 12.7636 12.9054 12.7636Z" fill="#0A0A0A"></path><path d="M11.134 12.7636C11.0572 12.7636 10.9783 12.7338 10.9185 12.674C10.799 12.5545 10.799 12.3624 10.9185 12.2429L12.6877 10.4737C12.8072 10.3541 12.9993 10.3541 13.1188 10.4737C13.2384 10.5932 13.2384 10.7852 13.1188 10.9048L11.3496 12.674C11.2898 12.7338 11.213 12.7636 11.134 12.7636Z" fill="#0A0A0A"></path><path d="M12.9054 16.0716C12.8286 16.0716 12.7496 16.0418 12.6899 15.982L10.9206 14.2128C10.8011 14.0932 10.8011 13.9012 10.9206 13.7817C11.0401 13.6621 11.2322 13.6621 11.3517 13.7817L13.121 15.5509C13.2405 15.6704 13.2405 15.8625 13.121 15.982C13.0612 16.0418 12.9844 16.0716 12.9054 16.0716Z" fill="#0A0A0A"></path><path d="M11.134 16.0716C11.0572 16.0716 10.9783 16.0418 10.9185 15.982C10.799 15.8625 10.799 15.6704 10.9185 15.5509L12.6877 13.7817C12.8072 13.6621 12.9993 13.6621 13.1188 13.7817C13.2384 13.9012 13.2384 14.0932 13.1188 14.2128L11.3496 15.982C11.2898 16.0418 11.213 16.0716 11.134 16.0716Z" fill="#0A0A0A"></path><path d="M16.1857 12.7636C16.1089 12.7636 16.0299 12.7338 15.9701 12.674L14.2009 10.9048C14.0814 10.7852 14.0814 10.5932 14.2009 10.4737C14.3204 10.3541 14.5125 10.3541 14.632 10.4737L16.4012 12.2429C16.5208 12.3624 16.5208 12.5545 16.4012 12.674C16.3415 12.7338 16.2647 12.7636 16.1857 12.7636Z" fill="#0A0A0A"></path><path d="M14.4165 12.7636C14.3396 12.7636 14.2607 12.7338 14.2009 12.674C14.0814 12.5545 14.0814 12.3624 14.2009 12.2429L15.9701 10.4737C16.0897 10.3541 16.2817 10.3541 16.4012 10.4737C16.5208 10.5932 16.5208 10.7852 16.4012 10.9048L14.632 12.674C14.5723 12.7338 14.4954 12.7636 14.4165 12.7636Z" fill="#0A0A0A"></path><path d="M16.1857 16.0716C16.1089 16.0716 16.0299 16.0418 15.9701 15.982L14.2009 14.2128C14.0814 14.0932 14.0814 13.9012 14.2009 13.7817C14.3204 13.6621 14.5125 13.6621 14.632 13.7817L16.4012 15.5509C16.5208 15.6704 16.5208 15.8625 16.4012 15.982C16.3415 16.0418 16.2647 16.0716 16.1857 16.0716Z" fill="#0A0A0A"></path><path d="M14.4165 16.0716C14.3396 16.0716 14.2607 16.0418 14.2009 15.982C14.0814 15.8625 14.0814 15.6704 14.2009 15.5509L15.9701 13.7817C16.0897 13.6621 16.2817 13.6621 16.4012 13.7817C16.5208 13.9012 16.5208 14.0932 16.4012 14.2128L14.632 15.982C14.5723 16.0418 14.4954 16.0716 14.4165 16.0716Z" fill="#0A0A0A"></path><path d="M19.4488 12.7103C19.372 12.7103 19.293 12.6804 19.2333 12.6206L17.464 10.8514C17.3445 10.7319 17.3445 10.5398 17.464 10.4203C17.5835 10.3008 17.7756 10.3008 17.8951 10.4203L19.6644 12.1895C19.7839 12.309 19.7839 12.5011 19.6644 12.6206C19.6046 12.6804 19.5278 12.7103 19.4488 12.7103Z" fill="#0A0A0A"></path><path d="M17.6796 12.7103C17.6027 12.7103 17.5238 12.6804 17.464 12.6206C17.3445 12.5011 17.3445 12.309 17.464 12.1895L19.2333 10.4203C19.3528 10.3008 19.5449 10.3008 19.6644 10.4203C19.7839 10.5398 19.7839 10.7319 19.6644 10.8514L17.8951 12.6206C17.8354 12.6804 17.7585 12.7103 17.6796 12.7103Z" fill="#0A0A0A"></path><path d="M12.9054 19.2558C12.8286 19.2558 12.7496 19.226 12.6899 19.1662L10.9206 17.397C10.8011 17.2774 10.8011 17.0854 10.9206 16.9659C11.0401 16.8463 11.2322 16.8463 11.3517 16.9659L13.121 18.7351C13.2405 18.8546 13.2405 19.0467 13.121 19.1662C13.0612 19.226 12.9844 19.2558 12.9054 19.2558Z" fill="#0A0A0A"></path><path d="M11.134 19.2558C11.0572 19.2558 10.9783 19.226 10.9185 19.1662C10.799 19.0467 10.799 18.8546 10.9185 18.7351L12.6877 16.9659C12.8072 16.8463 12.9993 16.8463 13.1188 16.9659C13.2384 17.0854 13.2384 17.2774 13.1188 17.397L11.3496 19.1662C11.2898 19.226 11.213 19.2558 11.134 19.2558Z" fill="#0A0A0A"></path></g><path d="M49.4388 13V1.2H53.2548C54.0442 1.2 54.7615 1.344 55.4068 1.632C56.0575 1.91467 56.6148 2.31733 57.0788 2.84C57.5482 3.35733 57.9082 3.976 58.1588 4.696C58.4095 5.416 58.5348 6.21067 58.5348 7.08C58.5348 7.94933 58.4095 8.74667 58.1588 9.472C57.9082 10.1973 57.5482 10.824 57.0788 11.352C56.6148 11.8747 56.0575 12.28 55.4068 12.568C54.7615 12.856 54.0442 13 53.2548 13H49.4388ZM51.9348 12.264L50.8148 11.08H52.9348C53.5108 11.08 54.0308 10.92 54.4948 10.6C54.9642 10.2747 55.3348 9.81333 55.6068 9.216C55.8788 8.61333 56.0148 7.90133 56.0148 7.08C56.0148 6.25333 55.8788 5.54667 55.6068 4.96C55.3348 4.368 54.9642 3.91467 54.4948 3.6C54.0308 3.28 53.5108 3.12 52.9348 3.12H50.8148L51.9348 1.936V12.264ZM63.0452 13.176C62.4265 13.176 61.8745 13.0773 61.3892 12.88C60.9092 12.6827 60.5332 12.3973 60.2612 12.024C59.9892 11.6507 59.8532 11.1973 59.8532 10.664C59.8532 10.0613 60.0185 9.57067 60.3492 9.192C60.6799 8.81333 61.1172 8.52533 61.6612 8.328C62.2105 8.12533 62.8052 7.992 63.4452 7.928C64.3785 7.83733 65.0212 7.75467 65.3732 7.68C65.7305 7.60533 65.9092 7.47467 65.9092 7.288C65.9092 7.28267 65.9092 7.27733 65.9092 7.272C65.9092 6.95733 65.7572 6.70933 65.4532 6.528C65.1545 6.34667 64.7359 6.256 64.1972 6.256C63.6265 6.256 63.1892 6.36 62.8852 6.568C62.5865 6.77067 62.4372 7.08267 62.4372 7.504H59.9972C59.9972 6.82133 60.1812 6.24533 60.5492 5.776C60.9225 5.30667 61.4265 4.952 62.0612 4.712C62.6959 4.46667 63.4132 4.344 64.2132 4.344C64.9599 4.344 65.6505 4.45867 66.2852 4.688C66.9199 4.912 67.4292 5.25067 67.8132 5.704C68.2025 6.15733 68.3972 6.73333 68.3972 7.432C68.3972 7.544 68.3972 7.656 68.3972 7.768C68.3972 7.87467 68.3972 7.984 68.3972 8.096V11.104C68.3972 11.3227 68.4025 11.5333 68.4132 11.736C68.4292 11.9333 68.4612 12.1147 68.5092 12.28C68.5625 12.4667 68.6292 12.6213 68.7092 12.744C68.7892 12.8667 68.8559 12.952 68.9092 13H66.4692C66.4319 12.9627 66.3732 12.8853 66.2932 12.768C66.2185 12.6507 66.1545 12.5147 66.1012 12.36C66.0372 12.1733 65.9892 11.9867 65.9572 11.8C65.9305 11.608 65.9172 11.384 65.9172 11.128L66.4292 11.48C66.2799 11.832 66.0372 12.136 65.7012 12.392C65.3705 12.6427 64.9759 12.8373 64.5172 12.976C64.0639 13.1093 63.5732 13.176 63.0452 13.176ZM63.7092 11.32C64.0985 11.32 64.4612 11.2507 64.7972 11.112C65.1385 10.968 65.4159 10.744 65.6292 10.44C65.8425 10.136 65.9492 9.73867 65.9492 9.248V8.392L66.5652 8.992C66.2132 9.12 65.8052 9.22667 65.3412 9.312C64.8825 9.392 64.4239 9.456 63.9652 9.504C63.4212 9.55733 63.0132 9.65067 62.7412 9.784C62.4745 9.912 62.3412 10.1307 62.3412 10.44C62.3412 10.7333 62.4559 10.9547 62.6852 11.104C62.9145 11.248 63.2559 11.32 63.7092 11.32ZM70.1161 13V4.504H72.5721V13H70.1161ZM71.3401 3.12C70.9561 3.12 70.6201 3.01867 70.3321 2.816C70.0494 2.61333 69.9081 2.328 69.9081 1.96C69.9081 1.58667 70.0494 1.29867 70.3321 1.096C70.6201 0.893333 70.9561 0.792 71.3401 0.792C71.7294 0.792 72.0654 0.893333 72.3481 1.096C72.6361 1.29867 72.7801 1.58667 72.7801 1.96C72.7801 2.33333 72.6361 2.62133 72.3481 2.824C72.0654 3.02133 71.7294 3.12 71.3401 3.12ZM77.9356 13.192C77.4289 13.192 76.9409 13.1333 76.4716 13.016C76.0022 12.8987 75.5809 12.7253 75.2076 12.496C74.8396 12.2667 74.5462 11.9813 74.3276 11.64C74.1142 11.2933 74.0076 10.8907 74.0076 10.432C74.0076 10.4107 74.0076 10.3867 74.0076 10.36C74.0076 10.328 74.0076 10.304 74.0076 10.288H76.4716C76.4716 10.304 76.4716 10.3227 76.4716 10.344C76.4716 10.36 76.4716 10.3787 76.4716 10.4C76.4716 10.7093 76.6076 10.936 76.8796 11.08C77.1569 11.224 77.5302 11.296 77.9996 11.296C78.2449 11.296 78.4796 11.272 78.7036 11.224C78.9329 11.1707 79.1196 11.088 79.2636 10.976C79.4129 10.8587 79.4876 10.712 79.4876 10.536C79.4876 10.2533 79.3302 10.0533 79.0156 9.936C78.7062 9.81867 78.2076 9.70133 77.5196 9.584C77.1302 9.52 76.7356 9.42933 76.3356 9.312C75.9356 9.19467 75.5676 9.04 75.2316 8.848C74.8956 8.65067 74.6262 8.40267 74.4236 8.104C74.2209 7.8 74.1196 7.432 74.1196 7C74.1196 6.424 74.2929 5.93867 74.6396 5.544C74.9916 5.14933 75.4582 4.85067 76.0396 4.648C76.6209 4.44533 77.2609 4.344 77.9596 4.344C78.6262 4.344 79.2476 4.456 79.8236 4.68C80.3996 4.89867 80.8662 5.216 81.2236 5.632C81.5809 6.04267 81.7596 6.53867 81.7596 7.12C81.7596 7.13067 81.7596 7.14667 81.7596 7.168C81.7596 7.18933 81.7596 7.21067 81.7596 7.232H79.3196C79.3196 7.21067 79.3196 7.192 79.3196 7.176C79.3196 7.16 79.3196 7.14667 79.3196 7.136C79.3196 6.92267 79.2502 6.74933 79.1116 6.616C78.9782 6.48267 78.8076 6.384 78.5996 6.32C78.3916 6.25067 78.1756 6.216 77.9516 6.216C77.7489 6.216 77.5382 6.24 77.3196 6.288C77.1062 6.33067 76.9249 6.40533 76.7756 6.512C76.6262 6.61333 76.5516 6.75733 76.5516 6.944C76.5516 7.12533 76.6316 7.27467 76.7916 7.392C76.9516 7.504 77.1756 7.59733 77.4636 7.672C77.7516 7.74133 78.0849 7.808 78.4636 7.872C78.8209 7.93067 79.1969 8.01333 79.5916 8.12C79.9916 8.22133 80.3649 8.368 80.7116 8.56C81.0636 8.74667 81.3462 8.99467 81.5596 9.304C81.7782 9.608 81.8876 9.99467 81.8876 10.464C81.8876 10.9493 81.7756 11.3653 81.5516 11.712C81.3276 12.0587 81.0236 12.3413 80.6396 12.56C80.2609 12.7733 79.8369 12.9307 79.3676 13.032C78.9036 13.1387 78.4262 13.192 77.9356 13.192ZM83.7442 16.672C83.4775 16.672 83.2375 16.6613 83.0242 16.64C82.8162 16.624 82.6855 16.6053 82.6322 16.584V14.704C82.7015 14.736 82.8215 14.76 82.9922 14.776C83.1682 14.7973 83.3549 14.808 83.5522 14.808C83.8135 14.808 84.0482 14.7547 84.2562 14.648C84.4695 14.5467 84.6509 14.4 84.8002 14.208C84.9549 14.0213 85.0749 13.8 85.1602 13.544L85.3042 13.112L82.3762 4.504H84.9602L86.8082 11.472H86.5202L88.2962 4.504H90.8482L87.9282 13.424C87.7095 14.096 87.4402 14.6747 87.1202 15.16C86.8002 15.6453 86.3735 16.0187 85.8402 16.28C85.3069 16.5413 84.6082 16.672 83.7442 16.672ZM50.7508 29L49.0228 17.2H51.5748L52.8308 28.464L52.4708 28.448L54.4708 17.2H57.5668L59.5588 28.448L59.1988 28.464L60.4548 17.2H63.0068L61.2788 29H57.4708L55.8948 18.92H56.1508L54.5588 29H50.7508ZM68.3118 29.184C67.3945 29.184 66.5865 28.9947 65.8878 28.616C65.1892 28.2373 64.6425 27.7173 64.2478 27.056C63.8585 26.3893 63.6638 25.6213 63.6638 24.752C63.6638 23.888 63.8585 23.1253 64.2478 22.464C64.6425 21.7973 65.1892 21.28 65.8878 20.912C66.5865 20.5387 67.3945 20.352 68.3118 20.352C69.2292 20.352 70.0372 20.5387 70.7358 20.912C71.4345 21.28 71.9785 21.7973 72.3678 22.464C72.7625 23.1253 72.9598 23.888 72.9598 24.752C72.9598 25.6213 72.7625 26.3893 72.3678 27.056C71.9785 27.7173 71.4345 28.2373 70.7358 28.616C70.0372 28.9947 69.2292 29.184 68.3118 29.184ZM68.3118 27.216C68.7438 27.216 69.1198 27.1147 69.4398 26.912C69.7598 26.7093 70.0078 26.424 70.1838 26.056C70.3598 25.6827 70.4478 25.248 70.4478 24.752C70.4478 24.256 70.3598 23.8267 70.1838 23.464C70.0078 23.096 69.7598 22.8133 69.4398 22.616C69.1198 22.4187 68.7438 22.32 68.3118 22.32C67.8852 22.32 67.5092 22.4187 67.1838 22.616C66.8638 22.8133 66.6158 23.096 66.4398 23.464C66.2638 23.8267 66.1758 24.256 66.1758 24.752C66.1758 25.248 66.2638 25.6827 66.4398 26.056C66.6158 26.424 66.8638 26.7093 67.1838 26.912C67.5092 27.1147 67.8852 27.216 68.3118 27.216ZM78.765 29.184C77.8476 29.184 77.0396 28.9947 76.341 28.616C75.6423 28.2373 75.0956 27.7173 74.701 27.056C74.3116 26.3893 74.117 25.6213 74.117 24.752C74.117 23.888 74.3116 23.1253 74.701 22.464C75.0956 21.7973 75.6423 21.28 76.341 20.912C77.0396 20.5387 77.8476 20.352 78.765 20.352C79.6823 20.352 80.4903 20.5387 81.189 20.912C81.8876 21.28 82.4316 21.7973 82.821 22.464C83.2156 23.1253 83.413 23.888 83.413 24.752C83.413 25.6213 83.2156 26.3893 82.821 27.056C82.4316 27.7173 81.8876 28.2373 81.189 28.616C80.4903 28.9947 79.6823 29.184 78.765 29.184ZM78.765 27.216C79.197 27.216 79.573 27.1147 79.893 26.912C80.213 26.7093 80.461 26.424 80.637 26.056C80.813 25.6827 80.901 25.248 80.901 24.752C80.901 24.256 80.813 23.8267 80.637 23.464C80.461 23.096 80.213 22.8133 79.893 22.616C79.573 22.4187 79.197 22.32 78.765 22.32C78.3383 22.32 77.9623 22.4187 77.637 22.616C77.317 22.8133 77.069 23.096 76.893 23.464C76.717 23.8267 76.629 24.256 76.629 24.752C76.629 25.248 76.717 25.6827 76.893 26.056C77.069 26.424 77.317 26.7093 77.637 26.912C77.9623 27.1147 78.3383 27.216 78.765 27.216ZM90.9461 29V25.392C90.9461 25.1893 90.9461 25.0053 90.9461 24.84C90.9461 24.6747 90.9461 24.5253 90.9461 24.392C90.9461 24.04 90.9007 23.72 90.8101 23.432C90.7194 23.1387 90.5567 22.904 90.3221 22.728C90.0874 22.552 89.7487 22.464 89.3061 22.464C88.9221 22.464 88.5887 22.552 88.3061 22.728C88.0287 22.904 87.8154 23.1493 87.6661 23.464C87.5167 23.7787 87.4421 24.1413 87.4421 24.552L86.7541 24.056C86.7541 23.32 86.9141 22.6747 87.2341 22.12C87.5541 21.5653 87.9861 21.1307 88.5301 20.816C89.0794 20.5013 89.6874 20.344 90.3541 20.344C91.0527 20.344 91.6261 20.4853 92.0741 20.768C92.5274 21.0453 92.8634 21.4347 93.0821 21.936C93.3061 22.432 93.4181 23.0133 93.4181 23.68C93.4181 23.952 93.4181 24.256 93.4181 24.592C93.4181 24.928 93.4181 25.272 93.4181 25.624V29H90.9461ZM84.9621 29V20.504H87.4421V29H84.9621ZM99.2631 29.176C98.9377 29.176 98.6017 29.1467 98.2551 29.088C97.9137 29.0347 97.5937 28.9253 97.2951 28.76C97.0017 28.5893 96.7644 28.3413 96.5831 28.016C96.4017 27.6907 96.3111 27.2613 96.3111 26.728C96.3111 26.6107 96.3111 26.4907 96.3111 26.368C96.3111 26.2453 96.3111 26.1227 96.3111 26V22.424H94.3511V20.504H94.9031C95.2231 20.504 95.4764 20.4907 95.6631 20.464C95.8551 20.4373 95.9964 20.3707 96.0871 20.264C96.1831 20.152 96.2444 19.9787 96.2711 19.744C96.2977 19.5093 96.3111 19.1867 96.3111 18.776V17.704H98.7991V20.504H101.271V22.424H98.7991V25.48C98.7991 25.576 98.7991 25.6693 98.7991 25.76C98.7991 25.8507 98.7991 25.9387 98.7991 26.024C98.7991 26.392 98.8417 26.6907 98.9271 26.92C99.0177 27.1493 99.2391 27.264 99.5911 27.264C99.7671 27.264 99.9324 27.248 100.087 27.216C100.247 27.184 100.367 27.152 100.447 27.12V28.984C100.335 29.032 100.178 29.0747 99.9751 29.112C99.7724 29.1547 99.5351 29.176 99.2631 29.176Z" fill="black"></path><defs><clipPath id="clip0_501_3"><rect width="34.4628" height="32" fill="white" transform="translate(0 1)"></rect></clipPath></defs></svg>