<svg xmlns="http://www.w3.org/2000/svg" width="180" height="50" viewBox="0 0 180 50" fill="none"><g clip-path="url(#clip0_510_68)"><path d="M22.6922 38.7263C17.1418 39.4689 14.176 42.5227 14.2688 42.1514C14.3616 41.78 16.6727 35.951 23.6157 34.9348L22.9219 32.8973C29.8062 29.1156 27.9202 23.7361 26.6694 19.4315C27.6417 29.1498 20.1466 31.925 15.7053 31.5097C11.2639 31.0944 11.6792 27.3468 11.6792 27.3468C12.93 29.9853 18.3437 29.9853 17.7867 24.5716C17.2297 19.1579 12.0945 16.6612 10.5701 11.5211C9.04569 6.38107 12.93 3.88434 12.93 3.88434C9.0408 5.13515 5.38609 10.6417 4.79977 13.2899C4.65319 13.9446 4.59456 14.6188 4.42843 15.2687C4.40889 15.342 4.38934 15.4153 4.3698 15.4934C3.98869 15.4885 3.38283 15.3566 2.51801 14.8485C2.51801 14.8485 3.06036 15.9674 4.23299 15.9576C4.0913 16.3925 3.90563 16.8224 3.62713 17.1253C3.13853 17.6628 2.76231 18.083 2.23463 18.6058C1.86329 18.9723 1.44798 19.3143 1.17925 19.7638C0.915411 20.2133 0.827464 20.824 1.14017 21.2491C1.49196 21.7279 2.26394 21.8745 2.41052 22.4511C2.58642 23.1351 1.69228 23.741 1.81932 24.4348C1.91704 24.9722 2.57665 25.2459 2.72811 25.7735C2.44961 25.7735 2.18088 25.9299 2.04896 26.1742C1.91704 26.4185 1.9317 26.7312 2.08316 26.9608C2.37143 27.4006 3.09456 27.5325 3.16785 28.0504C3.21671 28.3778 2.96264 28.666 2.8014 28.9543C2.33723 29.8045 2.69391 30.938 3.44146 31.5634C4.18413 32.1888 5.21019 32.3696 6.17761 32.3159C7.44797 32.2426 8.5864 32.2377 9.85676 32.1839C10.5213 32.1546 11.2248 32.1351 11.8112 32.4576C12.2313 32.6872 12.544 33.0732 12.803 33.4738C12.803 33.4738 14.2688 34.0993 13.531 37.2458C12.7883 40.3924 7.51637 44.4624 7.51637 49.0894C7.51637 49.0894 21.5831 37.0602 31.487 40.7588C31.487 40.7588 29.9137 37.7979 22.6971 38.7214L22.6922 38.7263Z" fill="#E78C6F"></path><path d="M12.0946 2.63355C14.9187 0.879478 23.8943 1.52443 24.8666 0.136809C22.6434 0.830619 19.5897 -0.557 12.3731 0.273617C2.93339 1.80293 2.23959 12.0733 3.07509 14.7117C4.04251 5.68729 12.0946 2.63355 12.0946 2.63355Z" fill="#E78C6F"></path><path d="M19.5654 8.92175C19.5654 8.92175 24.642 17.0765 21.9889 25.8859C23.655 24.5129 27.5394 15.9576 19.5654 8.92175Z" fill="#E78C6F"></path><path d="M24.3634 4.1922C25.6973 4.1922 26.7819 5.27689 26.7819 6.61076C26.7819 7.94463 25.6973 9.02932 24.3634 9.02932C23.0295 9.02932 21.9448 7.94463 21.9448 6.61076C21.9448 5.27689 23.0295 4.1922 24.3634 4.1922Z" fill="#E78C6F"></path><path d="M30.3927 4.1922C31.7266 4.1922 32.8112 5.27689 32.8112 6.61076C32.8112 7.94463 31.7266 9.02932 30.3927 9.02932C29.0588 9.02932 27.9741 7.94463 27.9741 6.61076C27.9741 5.27689 29.0588 4.1922 30.3927 4.1922Z" fill="#E78C6F"></path><path d="M27.378 12.044C28.7138 12.044 29.7966 10.9612 29.7966 9.62547C29.7966 8.28974 28.7138 7.20691 27.378 7.20691C26.0423 7.20691 24.9595 8.28974 24.9595 9.62547C24.9595 10.9612 26.0423 12.044 27.378 12.044Z" fill="#E78C6F"></path><path d="M27.378 6.01467C28.7138 6.01467 29.7966 4.93185 29.7966 3.59611C29.7966 2.26038 28.7138 1.17755 27.378 1.17755C26.0423 1.17755 24.9595 2.26038 24.9595 3.59611C24.9595 4.93185 26.0423 6.01467 27.378 6.01467Z" fill="#E78C6F"></path><path d="M27.2999 4.1922C28.6338 4.1922 29.7185 5.27689 29.7185 6.61076C29.7185 7.94463 28.6338 9.02932 27.2999 9.02932C25.966 9.02932 24.8813 7.94463 24.8813 6.61076C24.8813 5.27689 25.966 4.1922 27.2999 4.1922Z" fill="white"></path><path d="M31.5899 14.1205C32.4645 14.1205 33.1681 14.829 33.1681 15.6987C33.1681 16.5684 32.4596 17.2768 31.5899 17.2768C30.7202 17.2768 30.0117 16.5684 30.0117 15.6987C30.0117 14.829 30.7202 14.1205 31.5899 14.1205Z" fill="#E78C6F"></path><path d="M35.5328 14.1205C36.4074 14.1205 37.1109 14.829 37.1109 15.6987C37.1109 16.5684 36.4025 17.2768 35.5328 17.2768C34.6631 17.2768 33.9546 16.5684 33.9546 15.6987C33.9546 14.829 34.6631 14.1205 35.5328 14.1205Z" fill="#E78C6F"></path><path d="M31.981 17.6678C31.981 16.7932 32.6894 16.0896 33.5591 16.0896C34.4288 16.0896 35.1373 16.7981 35.1373 17.6678C35.1373 18.5375 34.4288 19.2459 33.5591 19.2459C32.6894 19.2459 31.981 18.5375 31.981 17.6678Z" fill="#E78C6F"></path><path d="M31.981 13.7297C31.981 12.8551 32.6894 12.1515 33.5591 12.1515C34.4288 12.1515 35.1373 12.86 35.1373 13.7297C35.1373 14.5994 34.4288 15.3078 33.5591 15.3078C32.6894 15.3078 31.981 14.5994 31.981 13.7297Z" fill="#E78C6F"></path><path d="M33.5103 17.2768C34.3819 17.2768 35.0885 16.5703 35.0885 15.6987C35.0885 14.8271 34.3819 14.1205 33.5103 14.1205C32.6387 14.1205 31.9321 14.8271 31.9321 15.6987C31.9321 16.5703 32.6387 17.2768 33.5103 17.2768Z" fill="white"></path></g><path d="M43.2471 18.7295V0.625953H49.1016C50.3126 0.625953 51.4131 0.846877 52.4032 1.28873C53.4014 1.72239 54.2565 2.34016 54.9683 3.14204C55.6884 3.93573 56.2407 4.88489 56.6253 5.98951C57.0099 7.09413 57.2021 8.31331 57.2021 9.64704C57.2021 10.9808 57.0099 12.204 56.6253 13.3168C56.2407 14.4296 55.6884 15.3911 54.9683 16.2011C54.2565 17.003 53.4014 17.6249 52.4032 18.0667C51.4131 18.5086 50.3126 18.7295 49.1016 18.7295H43.2471ZM47.0764 17.6003L45.3581 15.7838H48.6106C49.4943 15.7838 50.2921 15.5384 51.004 15.0474C51.724 14.5483 52.2927 13.8405 52.71 12.9241C53.1273 11.9995 53.336 10.9071 53.336 9.64704C53.336 8.37877 53.1273 7.2946 52.71 6.39454C52.2927 5.48629 51.724 4.79079 51.004 4.30803C50.2921 3.81709 49.4943 3.57161 48.6106 3.57161H45.3581L47.0764 1.75512V17.6003Z" fill="black"></path><path d="M64.122 18.9995C63.1728 18.9995 62.3259 18.8481 61.5813 18.5454C60.8449 18.2426 60.268 17.8049 59.8507 17.2321C59.4334 16.6593 59.2248 15.9638 59.2248 15.1456C59.2248 14.221 59.4784 13.4682 59.9858 12.8873C60.4931 12.3063 61.164 11.8645 61.9986 11.5617C62.8414 11.2508 63.7537 11.0462 64.7356 10.948C66.1675 10.8089 67.1535 10.6821 67.6936 10.5676C68.2418 10.453 68.5159 10.2525 68.5159 9.96615C68.5159 9.95797 68.5159 9.94979 68.5159 9.94161C68.5159 9.45884 68.2827 9.07836 67.8163 8.80016C67.3581 8.52196 66.7158 8.38286 65.8893 8.38286C65.0138 8.38286 64.3429 8.54242 63.8765 8.86153C63.4183 9.17246 63.1892 9.65113 63.1892 10.2975H59.4457C59.4457 9.25019 59.728 8.3665 60.2926 7.64644C60.8654 6.92639 61.6386 6.38227 62.6123 6.01406C63.586 5.63767 64.6865 5.44947 65.9139 5.44947C67.0594 5.44947 68.119 5.62539 69.0928 5.97724C70.0665 6.3209 70.8479 6.84048 71.437 7.53598C72.0343 8.23149 72.333 9.11518 72.333 10.1871C72.333 10.3589 72.333 10.5307 72.333 10.7026C72.333 10.8662 72.333 11.034 72.333 11.2058V15.8207C72.333 16.1561 72.3412 16.4793 72.3575 16.7903C72.3821 17.093 72.4312 17.3712 72.5048 17.6249C72.5866 17.9113 72.6889 18.1485 72.8117 18.3367C72.9344 18.5249 73.0367 18.6559 73.1185 18.7295H69.375C69.3178 18.6722 69.2278 18.5536 69.105 18.3736C68.9905 18.1935 68.8923 17.9849 68.8105 17.7476C68.7123 17.4612 68.6386 17.1748 68.5895 16.8885C68.5486 16.5939 68.5282 16.2502 68.5282 15.8575L69.3137 16.3975C69.0846 16.9375 68.7123 17.4039 68.1968 17.7967C67.6895 18.1813 67.084 18.4799 66.3803 18.6927C65.6848 18.8972 64.932 18.9995 64.122 18.9995ZM65.1407 16.152C65.738 16.152 66.2944 16.0457 66.8099 15.8329C67.3335 15.612 67.759 15.2683 68.0863 14.8019C68.4136 14.3355 68.5773 13.726 68.5773 12.9732V11.6599L69.5223 12.5804C68.9823 12.7768 68.3563 12.9405 67.6445 13.0714C66.9408 13.1941 66.2371 13.2923 65.5334 13.3659C64.6988 13.4478 64.0729 13.591 63.6556 13.7955C63.2464 13.9919 63.0419 14.3274 63.0419 14.8019C63.0419 15.252 63.2178 15.5915 63.5696 15.8207C63.9215 16.0416 64.4452 16.152 65.1407 16.152Z" fill="black"></path><path d="M74.9701 18.7295V5.69494H78.7381V18.7295H74.9701ZM76.8479 3.57161C76.2588 3.57161 75.7433 3.41615 75.3015 3.10522C74.8678 2.79429 74.651 2.35653 74.651 1.79194C74.651 1.21918 74.8678 0.777327 75.3015 0.466396C75.7433 0.155465 76.2588 0 76.8479 0C77.4452 0 77.9607 0.155465 78.3944 0.466396C78.8363 0.777327 79.0572 1.21918 79.0572 1.79194C79.0572 2.36471 78.8363 2.80656 78.3944 3.11749C77.9607 3.42024 77.4452 3.57161 76.8479 3.57161Z" fill="black"></path><path d="M86.9667 19.0241C86.1894 19.0241 85.4407 18.9341 84.7207 18.754C84.0006 18.574 83.3542 18.3081 82.7814 17.9563C82.2169 17.6044 81.7668 17.1667 81.4314 16.643C81.1041 16.1111 80.9404 15.4934 80.9404 14.7897C80.9404 14.7569 80.9404 14.7201 80.9404 14.6792C80.9404 14.6301 80.9404 14.5933 80.9404 14.5687H84.7207C84.7207 14.5933 84.7207 14.6219 84.7207 14.6547C84.7207 14.6792 84.7207 14.7078 84.7207 14.7406C84.7207 15.2152 84.9293 15.5629 85.3466 15.7838C85.7721 16.0048 86.3449 16.1152 87.0649 16.1152C87.4413 16.1152 87.8013 16.0784 88.145 16.0048C88.4968 15.9229 88.7832 15.7961 89.0042 15.6243C89.2333 15.4443 89.3478 15.2192 89.3478 14.9492C89.3478 14.5156 89.1064 14.2087 88.6237 14.0287C88.1491 13.8487 87.384 13.6687 86.3285 13.4887C85.7312 13.3905 85.1257 13.2514 84.512 13.0714C83.8983 12.8914 83.3338 12.6541 82.8183 12.3595C82.3028 12.0568 81.8896 11.6763 81.5786 11.2181C81.2677 10.7517 81.1122 10.1871 81.1122 9.5243C81.1122 8.6406 81.3782 7.89601 81.91 7.29051C82.4501 6.68501 83.166 6.2268 84.0579 5.91587C84.9498 5.60494 85.9317 5.44947 87.0036 5.44947C88.0264 5.44947 88.9796 5.6213 89.8633 5.96496C90.747 6.30044 91.463 6.78729 92.0112 7.42552C92.5594 8.05556 92.8335 8.81653 92.8335 9.70841C92.8335 9.72477 92.8335 9.74932 92.8335 9.78205C92.8335 9.81478 92.8335 9.84751 92.8335 9.88024H89.0901C89.0901 9.84751 89.0901 9.81887 89.0901 9.79432C89.0901 9.76978 89.0901 9.74932 89.0901 9.73295C89.0901 9.40566 88.9837 9.13973 88.771 8.93517C88.5664 8.73061 88.3046 8.57924 87.9854 8.48105C87.6663 8.37468 87.3349 8.32149 86.9913 8.32149C86.6804 8.32149 86.3572 8.35831 86.0217 8.43195C85.6944 8.49741 85.4162 8.61197 85.1871 8.77561C84.958 8.93108 84.8434 9.152 84.8434 9.43839C84.8434 9.71659 84.9661 9.9457 85.2116 10.1257C85.4571 10.2975 85.8007 10.4407 86.2426 10.5553C86.6844 10.6617 87.1958 10.7639 87.7768 10.8621C88.325 10.9521 88.9019 11.079 89.5074 11.2426C90.1211 11.3981 90.6938 11.6231 91.2257 11.9177C91.7657 12.204 92.1994 12.5845 92.5267 13.0591C92.8621 13.5255 93.0299 14.1187 93.0299 14.8388C93.0299 15.5834 92.8581 16.2216 92.5144 16.7534C92.1707 17.2853 91.7043 17.719 91.1152 18.0544C90.5343 18.3817 89.8838 18.6231 89.1637 18.7786C88.4518 18.9422 87.7195 19.0241 86.9667 19.0241Z" fill="black"></path><path d="M95.8783 24.3631C95.4692 24.3631 95.101 24.3467 94.7737 24.314C94.4546 24.2894 94.2541 24.2608 94.1723 24.2281V21.3438C94.2787 21.3929 94.4628 21.4297 94.7246 21.4542C94.9946 21.487 95.281 21.5033 95.5838 21.5033C95.9847 21.5033 96.3447 21.4215 96.6638 21.2579C96.9911 21.1024 97.2693 20.8774 97.4984 20.5828C97.7357 20.2964 97.9198 19.9569 98.0507 19.5641L98.2717 18.9013L93.7795 5.69494H97.7439L100.579 16.3852H100.137L102.862 5.69494H106.777L102.297 19.38C101.962 20.411 101.549 21.2988 101.058 22.0434C100.567 22.788 99.9122 23.3607 99.094 23.7617C98.2758 24.1626 97.2039 24.3631 95.8783 24.3631Z" fill="black"></path><path d="M50.4026 25.1731C51.6708 25.1731 52.71 25.349 53.5201 25.7009C54.3383 26.0527 54.9438 26.56 55.3366 27.2228C55.7293 27.8774 55.9257 28.6506 55.9257 29.5425C55.9257 30.4344 55.7498 31.1954 55.3979 31.8254C55.0461 32.4473 54.6001 32.93 54.0601 33.2737C53.5201 33.6092 52.9718 33.7974 52.4154 33.8383C52.9964 33.8546 53.5937 34.006 54.2074 34.2924C54.8211 34.5706 55.3366 35.0247 55.7539 35.6548C56.1712 36.2766 56.3798 37.1071 56.3798 38.1463C56.3798 39.1282 56.1793 40.0078 55.7784 40.7851C55.3856 41.5543 54.7515 42.1639 53.876 42.6139C53.0005 43.0557 51.8304 43.2767 50.3658 43.2767H43.2471V25.1731H50.4026ZM46.8923 33.556L45.6281 32.4882H49.2366C50.2021 32.4882 50.9262 32.2836 51.409 31.8745C51.8918 31.4572 52.1331 30.8967 52.1331 30.193C52.1331 29.7184 52.0309 29.3298 51.8263 29.027C51.6217 28.7161 51.319 28.487 50.9181 28.3397C50.5171 28.1924 50.0221 28.1188 49.433 28.1188H45.174L46.8923 26.3023V33.556ZM49.6293 40.3187C50.5621 40.3187 51.2699 40.106 51.7527 39.6805C52.2436 39.2468 52.4891 38.6618 52.4891 37.9254C52.4891 37.5081 52.4154 37.144 52.2682 36.833C52.1291 36.5221 51.9286 36.2644 51.6668 36.0598C51.4049 35.8471 51.0858 35.6875 50.7094 35.5811C50.3412 35.4666 49.9321 35.4093 49.4821 35.4093H45.6281L46.8923 34.3538V42.1352L45.174 40.3187H49.6293Z" fill="black"></path><path d="M60.4209 37.9008V35.3848H69.0615L68.6933 36.023C68.6933 35.9575 68.6933 35.8962 68.6933 35.8389C68.6933 35.7734 68.6933 35.712 68.6933 35.6548C68.6933 35.1884 68.5828 34.7424 68.3619 34.317C68.141 33.8833 67.7973 33.5314 67.3309 33.2614C66.8727 32.9832 66.2836 32.8441 65.5635 32.8441C64.8435 32.8441 64.2216 32.9996 63.6979 33.3105C63.1824 33.6133 62.7856 34.051 62.5074 34.6238C62.2374 35.1966 62.1024 35.888 62.1024 36.698C62.1024 37.5326 62.2333 38.2486 62.4951 38.8459C62.7651 39.435 63.162 39.8892 63.6857 40.2083C64.2175 40.5274 64.8762 40.6869 65.6617 40.6869C66.169 40.6869 66.6068 40.6419 66.975 40.5519C67.3432 40.4537 67.6418 40.331 67.871 40.1837C68.1082 40.0364 68.2883 39.8728 68.411 39.6928C68.5337 39.5128 68.6074 39.3368 68.6319 39.165H72.3876C72.3385 39.7132 72.1503 40.2533 71.8231 40.7851C71.4958 41.3088 71.0416 41.7834 70.4607 42.2089C69.8797 42.6262 69.172 42.9576 68.3374 43.203C67.5109 43.4485 66.5659 43.5712 65.5022 43.5712C64.0621 43.5712 62.8061 43.2849 61.7342 42.7121C60.6623 42.1311 59.8318 41.3334 59.2426 40.3187C58.6535 39.2959 58.3589 38.1177 58.3589 36.7839C58.3589 35.4338 58.6576 34.2515 59.2549 33.2369C59.8604 32.2141 60.6991 31.4204 61.771 30.8558C62.8511 30.283 64.0989 29.9966 65.5144 29.9966C66.9627 29.9966 68.2146 30.2871 69.2701 30.8681C70.3257 31.4408 71.1398 32.2468 71.7126 33.286C72.2854 34.3169 72.5717 35.5198 72.5717 36.8944C72.5717 37.099 72.5676 37.2953 72.5595 37.4835C72.5513 37.6717 72.539 37.8108 72.5226 37.9008H60.4209Z" fill="black"></path><path d="M79.368 43.5467C78.4189 43.5467 77.572 43.3953 76.8274 43.0926C76.091 42.7898 75.5141 42.3521 75.0968 41.7793C74.6795 41.2065 74.4709 40.511 74.4709 39.6928C74.4709 38.7682 74.7245 38.0154 75.2318 37.4344C75.7392 36.8535 76.4101 36.4116 77.2447 36.1089C78.0875 35.798 78.9998 35.5934 79.9817 35.4952C81.4136 35.3561 82.3996 35.2293 82.9397 35.1147C83.4879 35.0002 83.762 34.7997 83.762 34.5133C83.762 34.5051 83.762 34.497 83.762 34.4888C83.762 34.006 83.5288 33.6255 83.0624 33.3473C82.6042 33.0691 81.9619 32.93 81.1354 32.93C80.2599 32.93 79.589 33.0896 79.1226 33.4087C78.6644 33.7196 78.4353 34.1983 78.4353 34.8447H74.6918C74.6918 33.7974 74.9741 32.9137 75.5387 32.1936C76.1115 31.4736 76.8847 30.9294 77.8584 30.5612C78.8321 30.1848 79.9326 29.9966 81.16 29.9966C82.3055 29.9966 83.3651 30.1726 84.3389 30.5244C85.3126 30.8681 86.094 31.3877 86.6831 32.0832C87.2804 32.7787 87.5791 33.6624 87.5791 34.7342C87.5791 34.9061 87.5791 35.0779 87.5791 35.2497C87.5791 35.4134 87.5791 35.5811 87.5791 35.753V40.3678C87.5791 40.7033 87.5873 41.0265 87.6036 41.3374C87.6282 41.6402 87.6773 41.9184 87.7509 42.172C87.8327 42.4584 87.935 42.6957 88.0577 42.8839C88.1805 43.0721 88.2828 43.203 88.3646 43.2767H84.6211C84.5639 43.2194 84.4739 43.1007 84.3511 42.9207C84.2366 42.7407 84.1384 42.5321 84.0566 42.2948C83.9584 42.0084 83.8847 41.722 83.8356 41.4356C83.7947 41.1411 83.7743 40.7974 83.7743 40.4047L84.5598 40.9447C84.3307 41.4847 83.9584 41.9511 83.4429 42.3439C82.9356 42.7285 82.3301 43.0271 81.6264 43.2398C80.9309 43.4444 80.1781 43.5467 79.368 43.5467ZM80.3868 40.6992C80.9841 40.6992 81.5405 40.5928 82.056 40.3801C82.5796 40.1592 83.0051 39.8155 83.3324 39.3491C83.6597 38.8827 83.8234 38.2731 83.8234 37.5204V36.2071L84.7684 37.1276C84.2284 37.324 83.6024 37.4876 82.8906 37.6185C82.1869 37.7413 81.4832 37.8395 80.7795 37.9131C79.9449 37.9949 79.319 38.1381 78.9016 38.3427C78.4925 38.5391 78.288 38.8745 78.288 39.3491C78.288 39.7992 78.4639 40.1387 78.8157 40.3678C79.1676 40.5888 79.6913 40.6992 80.3868 40.6992Z" fill="black"></path><path d="M94.9906 43.5221C94.066 43.5221 93.305 43.3749 92.7077 43.0803C92.1104 42.7775 91.6399 42.3725 91.2962 41.8652C90.9526 41.3579 90.7112 40.7933 90.5721 40.1715C90.433 39.5496 90.3635 38.9195 90.3635 38.2813C90.3635 37.9868 90.3635 37.6758 90.3635 37.3485C90.3635 37.0212 90.3635 36.6858 90.3635 36.3421V30.2421H94.1683V35.7407C94.1683 36.0189 94.1683 36.2889 94.1683 36.5507C94.1683 36.8126 94.1683 37.054 94.1683 37.2749C94.1683 37.8231 94.2296 38.3263 94.3524 38.7845C94.4751 39.2428 94.7001 39.611 95.0274 39.8892C95.3629 40.1674 95.8375 40.3065 96.4512 40.3065C97.0485 40.3065 97.5558 40.1387 97.9731 39.8032C98.3904 39.4596 98.7095 39.0218 98.9304 38.49C99.1513 37.9581 99.2618 37.4099 99.2618 36.8453L100.33 37.7167C100.33 38.535 100.203 39.2959 99.9491 39.9996C99.7037 40.7033 99.3518 41.3211 98.8936 41.8529C98.4354 42.3766 97.8749 42.7857 97.2121 43.0803C96.5575 43.3749 95.817 43.5221 94.9906 43.5221ZM99.2618 43.2767V30.2421H103.067V43.2767H99.2618Z" fill="black"></path><path d="M112.328 43.5467C111.829 43.5467 111.313 43.5017 110.782 43.4117C110.258 43.3299 109.767 43.1621 109.309 42.9085C108.859 42.6466 108.495 42.2661 108.216 41.767C107.938 41.2679 107.799 40.6092 107.799 39.791C107.799 39.611 107.799 39.4269 107.799 39.2387C107.799 39.0505 107.799 38.8623 107.799 38.6741V33.1878H104.792V30.2421H105.639C106.13 30.2421 106.518 30.2217 106.805 30.1808C107.099 30.1398 107.316 30.0376 107.455 29.8739C107.603 29.7021 107.697 29.4362 107.738 29.0761C107.779 28.7161 107.799 28.2211 107.799 27.591V25.9464H111.616V30.2421H115.409V33.1878H111.616V37.8763C111.616 38.0236 111.616 38.1668 111.616 38.3059C111.616 38.445 111.616 38.58 111.616 38.7109C111.616 39.2755 111.682 39.7337 111.812 40.0855C111.952 40.4374 112.291 40.6133 112.831 40.6133C113.101 40.6133 113.355 40.5888 113.592 40.5397C113.838 40.4906 114.022 40.4415 114.144 40.3924V43.2521C113.973 43.3258 113.731 43.3912 113.42 43.4485C113.109 43.514 112.745 43.5467 112.328 43.5467Z" fill="black"></path><path d="M118.795 48.9102C118.386 48.9102 118.018 48.8939 117.691 48.8611C117.372 48.8366 117.171 48.808 117.089 48.7752V45.8909C117.196 45.94 117.38 45.9769 117.642 46.0014C117.912 46.0341 118.198 46.0505 118.501 46.0505C118.902 46.0505 119.262 45.9687 119.581 45.805C119.908 45.6496 120.186 45.4245 120.416 45.13C120.653 44.8436 120.837 44.504 120.968 44.1113L121.189 43.4485L116.697 30.2421H120.661L123.496 40.9324H123.054L125.779 30.2421H129.694L125.214 43.9272C124.879 44.9581 124.466 45.8459 123.975 46.5905C123.484 47.3351 122.829 47.9079 122.011 48.3088C121.193 48.7098 120.121 48.9102 118.795 48.9102Z" fill="black"></path><path d="M143.527 28.1188H137.55L139.072 26.3023V43.2767H135.279V26.3023L136.85 28.1188H130.836V25.1731H143.527V28.1188Z" fill="black"></path><path d="M145.687 43.2767V30.2421H149.455V43.2767H145.687ZM147.565 28.1188C146.976 28.1188 146.46 27.9633 146.018 27.6524C145.585 27.3415 145.368 26.9037 145.368 26.3391C145.368 25.7663 145.585 25.3245 146.018 25.0136C146.46 24.7026 146.976 24.5472 147.565 24.5472C148.162 24.5472 148.678 24.7026 149.111 25.0136C149.553 25.3245 149.774 25.7663 149.774 26.3391C149.774 26.9119 149.553 27.3537 149.111 27.6647C148.678 27.9674 148.162 28.1188 147.565 28.1188Z" fill="black"></path><path d="M152.259 48.6402V30.2421H156.076V48.6402H152.259ZM160.102 43.5712C159.071 43.5712 158.126 43.2971 157.266 42.7489C156.407 42.1925 155.72 41.4479 155.204 40.5151C154.689 39.5741 154.431 38.5186 154.431 37.3485C154.431 37.3158 154.431 37.2872 154.431 37.2626C154.431 37.2299 154.431 37.1931 154.431 37.1521L156.076 37.1153C156.076 37.1399 156.076 37.1644 156.076 37.189C156.076 37.2135 156.076 37.2381 156.076 37.2626C156.076 37.8681 156.223 38.4 156.518 38.8582C156.812 39.3082 157.193 39.656 157.659 39.9014C158.126 40.1469 158.612 40.2696 159.12 40.2696C159.954 40.2696 160.678 39.9833 161.292 39.4105C161.914 38.8295 162.225 37.9254 162.225 36.698C162.225 35.4707 161.918 34.5788 161.304 34.0224C160.691 33.4578 159.963 33.1755 159.12 33.1755C158.612 33.1755 158.126 33.2982 157.659 33.5437C157.193 33.781 156.812 34.1206 156.518 34.5624C156.223 35.0043 156.076 35.532 156.076 36.1457L154.431 36.0475C154.431 34.8693 154.689 33.8301 155.204 32.93C155.72 32.0218 156.407 31.3058 157.266 30.7822C158.126 30.2585 159.071 29.9966 160.102 29.9966C161.157 29.9966 162.143 30.2585 163.06 30.7822C163.976 31.2976 164.716 32.0545 165.281 33.0528C165.854 34.051 166.14 35.2661 166.14 36.698C166.14 38.1954 165.862 39.4555 165.306 40.4783C164.749 41.5011 164.013 42.2743 163.096 42.798C162.18 43.3135 161.182 43.5712 160.102 43.5712Z" fill="black"></path><path d="M173.937 43.5712C173.159 43.5712 172.411 43.4812 171.691 43.3012C170.97 43.1212 170.324 42.8553 169.751 42.5034C169.187 42.1516 168.737 41.7138 168.401 41.1902C168.074 40.6583 167.91 40.0405 167.91 39.3368C167.91 39.3041 167.91 39.2673 167.91 39.2264C167.91 39.1773 167.91 39.1405 167.91 39.1159H171.691C171.691 39.1405 171.691 39.1691 171.691 39.2018C171.691 39.2264 171.691 39.255 171.691 39.2878C171.691 39.7623 171.899 40.1101 172.316 40.331C172.742 40.5519 173.315 40.6624 174.035 40.6624C174.411 40.6624 174.771 40.6256 175.115 40.5519C175.467 40.4701 175.753 40.3433 175.974 40.1715C176.203 39.9914 176.318 39.7664 176.318 39.4964C176.318 39.0627 176.076 38.7559 175.594 38.5759C175.119 38.3959 174.354 38.2159 173.298 38.0358C172.701 37.9377 172.096 37.7986 171.482 37.6185C170.868 37.4385 170.304 37.2012 169.788 36.9067C169.273 36.6039 168.859 36.2234 168.549 35.7652C168.238 35.2988 168.082 34.7343 168.082 34.0715C168.082 33.1878 168.348 32.4432 168.88 31.8377C169.42 31.2322 170.136 30.774 171.028 30.463C171.92 30.1521 172.902 29.9966 173.973 29.9966C174.996 29.9966 175.949 30.1685 176.833 30.5121C177.717 30.8476 178.433 31.3345 178.981 31.9727C179.529 32.6027 179.803 33.3637 179.803 34.2556C179.803 34.2719 179.803 34.2965 179.803 34.3292C179.803 34.362 179.803 34.3947 179.803 34.4274H176.06C176.06 34.3947 176.06 34.366 176.06 34.3415C176.06 34.3169 176.06 34.2965 176.06 34.2801C176.06 33.9528 175.954 33.6869 175.741 33.4823C175.536 33.2778 175.274 33.1264 174.955 33.0282C174.636 32.9219 174.305 32.8687 173.961 32.8687C173.65 32.8687 173.327 32.9055 172.992 32.9791C172.664 33.0446 172.386 33.1591 172.157 33.3228C171.928 33.4783 171.813 33.6992 171.813 33.9856C171.813 34.2638 171.936 34.4929 172.181 34.6729C172.427 34.8447 172.771 34.9879 173.212 35.1025C173.654 35.2088 174.166 35.3111 174.747 35.4093C175.295 35.4993 175.872 35.6261 176.477 35.7898C177.091 35.9452 177.664 36.1703 178.196 36.4648C178.736 36.7512 179.169 37.1317 179.497 37.6063C179.832 38.0727 180 38.6659 180 39.3859C180 40.1305 179.828 40.7688 179.484 41.3006C179.141 41.8325 178.674 42.2661 178.085 42.6016C177.504 42.9289 176.854 43.1703 176.134 43.3258C175.422 43.4894 174.689 43.5712 173.937 43.5712Z" fill="black"></path><defs><clipPath id="clip0_510_68"><rect width="36.1709" height="49.0944" fill="white" transform="translate(0.939941)"></rect></clipPath></defs></svg>