<svg xmlns="http://www.w3.org/2000/svg" width="195" height="49" viewBox="0 0 195 49" fill="none"><g clip-path="url(#clip0_510_129)"><path d="M56.3855 4.2994V47.2426H14.5274V12.4237L56.3855 4.2994ZM58.1429 2.16748L56.0494 2.57322L14.1937 10.6999L12.77 10.976V49H58.1429V2.16748Z" fill="#0A0A0A"></path><path d="M56.3854 4.29938V49H14.5273V12.7478L56.3854 4.29938Z" fill="#FBC418"></path><path d="M14.5273 12.4237V15.9721L56.3854 7.84777V4.29938L14.5273 12.4237Z" fill="#EB9836"></path><path d="M61.2446 0.316467L11.231 10.2222V13.5473L61.2446 3.64158V0.316467Z" fill="#0A0A0A"></path><path d="M17.7325 48.9999L17.2499 13.7921H13.6559L13.1733 48.9999H17.7325Z" fill="#D1C0A7"></path><path d="M17.2501 13.7922L17.7326 47.2426H13.1735L13.6561 13.7922H17.2501ZM18.9834 12.0348H11.9251L11.9011 13.7682L11.4185 47.2186L11.3921 49.0024H19.5188L19.4924 47.2186L19.0098 13.7682L18.9858 12.0348H18.9834Z" fill="#0A0A0A"></path><path d="M17.7517 48.9999H13.1733L13.5767 19.6525L13.6559 13.7921H17.2499L17.3291 19.6525L17.7517 48.9999Z" fill="#D1C0A7"></path><path d="M17.3291 19.6525H13.5767L13.6559 13.7921H17.2499L17.3291 19.6525Z" fill="#A39682"></path><path d="M1.57745 14.2772C2.95791 8.87534 6.86163 5.22852 11.2599 5.22852H19.6651C19.9028 6.3665 20.5294 6.86827 21.7154 6.86827C22.9014 6.86827 23.5256 6.3641 23.7657 5.22852H26.3418C27.5566 5.22852 28.5409 6.23445 28.5409 7.47327V11.3386C28.5409 12.5774 27.5566 13.5833 26.3418 13.5833H23.7657C23.528 12.4453 22.9014 11.5786 21.7154 11.5786C20.5294 11.5786 19.9052 12.4477 19.6651 13.5833H11.3487C9.80261 8.65687 4.54965 10.4167 2.59059 14.8221L1.95438 16.0129H1.1333L1.57745 14.2748V14.2772Z" fill="#BCBCBC"></path><path d="M26.3393 9.54753C26.3393 8.30871 26.2433 7.30278 25.0285 7.30278C25.0285 7.30278 24.5915 8.94253 21.713 8.94253C19.1009 8.94253 18.1358 7.30278 18.1358 7.30278H11.2599C7.12567 7.30278 3.43083 10.5247 1.8535 15.3959H1.13086L1.57501 13.6577C2.95787 8.2559 6.86159 4.60907 11.2599 4.60907H19.6651C19.9028 5.74705 20.5294 6.24882 21.7154 6.24882C22.9014 6.24882 23.5256 5.74465 23.7657 4.60907H26.3417C27.5565 4.60907 28.5409 5.61501 28.5409 6.85382V10.7191C28.5409 11.9579 27.5565 12.9639 26.3417 12.9639V9.54513L26.3393 9.54753Z" fill="white"></path><path fill-rule="evenodd" clip-rule="evenodd" d="M3.21988 12.1996C4.27009 10.9829 5.58797 10.1335 6.94073 9.84399C8.00087 9.6171 9.10267 9.73472 10.0665 10.3321C10.8784 10.8353 11.5229 11.6355 11.9647 12.7046H19.0054C19.161 12.2867 19.3825 11.8895 19.6924 11.5565C20.1946 11.0169 20.8809 10.6999 21.7155 10.6999C22.5491 10.6999 23.2361 11.0156 23.739 11.555C24.0496 11.8882 24.2714 12.2857 24.4268 12.7046H26.3419C27.0542 12.7046 27.6623 12.1095 27.6623 11.3385V7.47324C27.6623 6.70231 27.0542 6.10718 26.3419 6.10718H24.4137C24.2449 6.51395 23.999 6.87606 23.645 7.15981C23.1006 7.59622 22.4256 7.74693 21.7155 7.74693C21.0064 7.74693 20.3309 7.59726 19.7858 7.16125C19.4311 6.87743 19.1847 6.51489 19.0161 6.10718H11.26C8.00238 6.10718 4.9039 8.40064 3.21988 12.1996ZM0.698864 16.8916H0.00195312L2.45625 9.87175C4.47837 6.50918 7.66574 4.34979 11.26 4.34979H20.3794L20.5254 5.04884C20.619 5.4972 20.762 5.69158 20.8837 5.78896C21.0079 5.88833 21.2386 5.98954 21.7155 5.98954C22.1914 5.98954 22.4216 5.88817 22.5458 5.7886C22.6682 5.69049 22.8113 5.49507 22.9061 5.04673L23.0535 4.34979H26.3419C28.0592 4.34979 29.4197 5.76654 29.4197 7.47324V11.3385C29.4197 13.0452 28.0592 14.462 26.3419 14.462H23.0517L22.9057 13.7629C22.8067 13.289 22.6424 12.9559 22.4536 12.7534C22.2873 12.575 22.0679 12.4573 21.7155 12.4573C21.3641 12.4573 21.1454 12.5749 20.9789 12.7537C20.7897 12.9571 20.6252 13.291 20.5249 13.765L20.3776 14.462H10.7037L10.5105 13.8464C10.1708 12.7642 9.66085 12.1483 9.14069 11.8259C8.62354 11.5053 7.99976 11.4145 7.30851 11.5625C5.89001 11.866 4.28546 13.1735 3.39359 15.1791L3.38068 15.2082L2.48127 16.8916H1.81635H1.26134H0.698864Z" fill="#0A0A0A"></path><path d="M47.9947 13.5713H52.561C53.0364 13.5713 53.4229 13.9578 53.4229 14.4332V19.2684C53.4229 19.7438 53.0364 20.1303 52.561 20.1303H47.9947C47.5193 20.1303 47.1328 19.7438 47.1328 19.2684V14.4332C47.1328 13.9578 47.5193 13.5713 47.9947 13.5713Z" fill="white"></path><path d="M38.5474 13.5713H43.1138C43.5891 13.5713 43.9757 13.9578 43.9757 14.4332V19.2684C43.9757 19.7438 43.5891 20.1303 43.1138 20.1303H38.5474C38.0721 20.1303 37.6855 19.7438 37.6855 19.2684V14.4332C37.6855 13.9578 38.0721 13.5713 38.5474 13.5713Z" fill="white"></path><path d="M47.9535 35.0922H52.6014C53.0672 35.0922 53.4465 35.4715 53.4465 35.9372V49H47.1084V35.9372C47.1084 35.4715 47.4877 35.0922 47.9535 35.0922Z" fill="#BCBCBC"></path><path d="M24.0535 34.9889H43.1447C43.7257 34.9889 44.1986 35.4619 44.1986 36.0428V49.0024H22.9995V36.0428C22.9995 35.4619 23.4725 34.9889 24.0535 34.9889Z" fill="#0A0A0A"></path><path d="M42.7175 39.0389H24.481V40.0953H42.7175V39.0389Z" fill="#BCBCBC"></path><path d="M42.7175 41.5503H24.481V42.6066H42.7175V41.5503Z" fill="#BCBCBC"></path><path d="M42.7175 36.5302H24.481V37.5865H42.7175V36.5302Z" fill="#BCBCBC"></path><path d="M42.7175 44.0591H24.481V45.1154H42.7175V44.0591Z" fill="#BCBCBC"></path><path d="M42.7175 46.5703H24.481V47.6267H42.7175V46.5703Z" fill="#BCBCBC"></path><path fill-rule="evenodd" clip-rule="evenodd" d="M53.6101 23.5658C54.0954 23.5658 54.4888 23.9592 54.4888 24.4445V30.0912C54.4888 30.5765 54.0954 30.9699 53.6101 30.9699C53.1249 30.9699 52.7314 30.5765 52.7314 30.0912V24.4445C52.7314 23.9592 53.1249 23.5658 53.6101 23.5658Z" fill="#0A0A0A"></path><path fill-rule="evenodd" clip-rule="evenodd" d="M49.1419 23.5658C49.6272 23.5658 50.0206 23.9592 50.0206 24.4445V30.0912C50.0206 30.5765 49.6272 30.9699 49.1419 30.9699C48.6566 30.9699 48.2632 30.5765 48.2632 30.0912V24.4445C48.2632 23.9592 48.6566 23.5658 49.1419 23.5658Z" fill="#0A0A0A"></path><path fill-rule="evenodd" clip-rule="evenodd" d="M44.6717 23.5658C45.157 23.5658 45.5504 23.9592 45.5504 24.4445V30.0912C45.5504 30.5765 45.157 30.9699 44.6717 30.9699C44.1864 30.9699 43.793 30.5765 43.793 30.0912V24.4445C43.793 23.9592 44.1864 23.5658 44.6717 23.5658Z" fill="#0A0A0A"></path><path fill-rule="evenodd" clip-rule="evenodd" d="M40.2039 23.5658C40.6892 23.5658 41.0826 23.9592 41.0826 24.4445V30.0912C41.0826 30.5765 40.6892 30.9699 40.2039 30.9699C39.7186 30.9699 39.3252 30.5765 39.3252 30.0912V24.4445C39.3252 23.9592 39.7186 23.5658 40.2039 23.5658Z" fill="#0A0A0A"></path><path fill-rule="evenodd" clip-rule="evenodd" d="M36.8572 24.9655C36.6558 24.9655 36.4923 25.1291 36.4923 25.3304V29.4982H59.9577V25.3304C59.9577 25.1291 59.7942 24.9655 59.5928 24.9655H36.8572ZM34.7349 25.3304C34.7349 24.1585 35.6853 23.2081 36.8572 23.2081H59.5928C60.7647 23.2081 61.7151 24.1585 61.7151 25.3304V31.2556H34.7349V25.3304Z" fill="#0A0A0A"></path><path d="M51.7086 43.1925C51.3124 43.1925 50.9907 42.8708 50.9907 42.4747V40.7917C50.9907 40.3956 51.3124 40.0739 51.7086 40.0739C52.1047 40.0739 52.4264 40.3956 52.4264 40.7917V42.4747C52.4264 42.8708 52.1047 43.1925 51.7086 43.1925Z" fill="#0A0A0A"></path></g><path d="M75.3701 18.5728V0.620715H81.1757C82.3765 0.620715 83.4678 0.839791 84.4496 1.27794C85.4395 1.70798 86.2874 2.32058 86.9933 3.11575C87.7074 3.9028 88.2551 4.84401 88.6364 5.93939C89.0178 7.03477 89.2084 8.24375 89.2084 9.56632C89.2084 10.8889 89.0178 12.1019 88.6364 13.2054C88.2551 14.3089 87.7074 15.2623 86.9933 16.0656C86.2874 16.8607 85.4395 17.4774 84.4496 17.9156C83.4678 18.3537 82.3765 18.5728 81.1757 18.5728H75.3701ZM79.1675 17.4531L77.4635 15.6518H80.6888C81.5651 15.6518 82.3562 15.4083 83.0621 14.9215C83.7762 14.4266 84.3401 13.7247 84.7539 12.8159C85.1677 11.8991 85.3746 10.8159 85.3746 9.56632C85.3746 8.30866 85.1677 7.23357 84.7539 6.34103C84.3401 5.44039 83.7762 4.7507 83.0621 4.27198C82.3562 3.78515 81.5651 3.54173 80.6888 3.54173H77.4635L79.1675 1.74044V17.4531Z" fill="black"></path><path d="M96.0703 18.8405C95.1291 18.8405 94.2893 18.6904 93.551 18.3902C92.8207 18.09 92.2487 17.6559 91.8349 17.0879C91.4211 16.52 91.2142 15.8303 91.2142 15.0189C91.2142 14.102 91.4657 13.3555 91.9688 12.7794C92.4718 12.2033 93.1372 11.7652 93.9648 11.465C94.8005 11.1566 95.7052 10.9538 96.6789 10.8564C98.0988 10.7185 99.0766 10.5927 99.6121 10.4791C100.156 10.3655 100.428 10.1667 100.428 9.88276C100.428 9.87465 100.428 9.86653 100.428 9.85842C100.428 9.3797 100.196 9.0024 99.7338 8.72653C99.2794 8.45065 98.6425 8.31272 97.823 8.31272C96.9548 8.31272 96.2894 8.47094 95.8269 8.78738C95.3725 9.09571 95.1454 9.57038 95.1454 10.2114H91.4332C91.4332 9.17279 91.7132 8.29649 92.273 7.58246C92.841 6.86844 93.6078 6.32886 94.5733 5.96374C95.5389 5.5905 96.6302 5.40388 97.8473 5.40388C98.9832 5.40388 100.034 5.57832 101 5.92722C101.965 6.26801 102.74 6.78324 103.324 7.47293C103.917 8.16261 104.213 9.03891 104.213 10.1018C104.213 10.2722 104.213 10.4426 104.213 10.613C104.213 10.7753 104.213 10.9416 104.213 11.112V15.6883C104.213 16.0209 104.221 16.3414 104.237 16.6498C104.261 16.95 104.31 17.2259 104.383 17.4774C104.464 17.7614 104.566 17.9967 104.687 18.1833C104.809 18.3699 104.91 18.4998 104.992 18.5728H101.279C101.223 18.516 101.133 18.3983 101.012 18.2198C100.898 18.0413 100.801 17.8344 100.72 17.5991C100.622 17.3151 100.549 17.0311 100.501 16.7471C100.46 16.455 100.44 16.1143 100.44 15.7248L101.219 16.2603C100.991 16.7958 100.622 17.2583 100.111 17.6478C99.608 18.0291 99.0076 18.3253 98.3098 18.5363C97.6201 18.7391 96.8736 18.8405 96.0703 18.8405ZM97.0805 16.0169C97.6728 16.0169 98.2246 15.9114 98.7358 15.7004C99.2551 15.4814 99.677 15.1406 100.002 14.6781C100.326 14.2156 100.488 13.6111 100.488 12.8646V11.5623L101.426 12.4752C100.89 12.6699 100.269 12.8322 99.5634 12.962C98.8656 13.0837 98.1678 13.1811 97.47 13.2541C96.6424 13.3352 96.0217 13.4772 95.6079 13.6801C95.2022 13.8748 94.9993 14.2075 94.9993 14.6781C94.9993 15.1244 95.1738 15.4611 95.5227 15.6883C95.8716 15.9074 96.3908 16.0169 97.0805 16.0169Z" fill="black"></path><path d="M106.828 18.5728V5.64729H110.564V18.5728H106.828ZM108.69 3.54173C108.106 3.54173 107.594 3.38756 107.156 3.07924C106.726 2.77091 106.511 2.33681 106.511 1.77695C106.511 1.20897 106.726 0.770823 107.156 0.462494C107.594 0.154165 108.106 0 108.69 0C109.282 0 109.793 0.154165 110.223 0.462494C110.662 0.770823 110.881 1.20897 110.881 1.77695C110.881 2.34492 110.662 2.78308 110.223 3.09141C109.793 3.39162 109.282 3.54173 108.69 3.54173Z" fill="black"></path><path d="M118.724 18.8649C117.953 18.8649 117.211 18.7756 116.497 18.5971C115.783 18.4186 115.142 18.1549 114.574 17.806C114.014 17.4571 113.568 17.023 113.235 16.5037C112.91 15.9763 112.748 15.3637 112.748 14.6659C112.748 14.6335 112.748 14.597 112.748 14.5564C112.748 14.5077 112.748 14.4712 112.748 14.4468H116.497C116.497 14.4712 116.497 14.4996 116.497 14.532C116.497 14.5564 116.497 14.5848 116.497 14.6172C116.497 15.0878 116.704 15.4327 117.117 15.6518C117.539 15.8708 118.107 15.9804 118.821 15.9804C119.195 15.9804 119.552 15.9439 119.892 15.8708C120.241 15.7897 120.525 15.6639 120.744 15.4935C120.972 15.315 121.085 15.0919 121.085 14.8241C121.085 14.3941 120.846 14.0898 120.367 13.9113C119.896 13.7328 119.138 13.5543 118.091 13.3758C117.499 13.2784 116.898 13.1405 116.29 12.962C115.681 12.7835 115.121 12.5482 114.61 12.2561C114.099 11.9559 113.689 11.5786 113.381 11.1242C113.073 10.6617 112.918 10.1018 112.918 9.44461C112.918 8.56831 113.182 7.82994 113.71 7.22951C114.245 6.62908 114.955 6.1747 115.839 5.86637C116.724 5.55804 117.698 5.40388 118.76 5.40388C119.775 5.40388 120.72 5.57427 121.596 5.91505C122.473 6.24772 123.183 6.7305 123.726 7.36339C124.27 7.98816 124.542 8.74276 124.542 9.62717C124.542 9.6434 124.542 9.66774 124.542 9.7002C124.542 9.73265 124.542 9.76511 124.542 9.79757H120.83C120.83 9.76511 120.83 9.73671 120.83 9.71237C120.83 9.68803 120.83 9.66774 120.83 9.65152C120.83 9.32696 120.724 9.06326 120.513 8.86041C120.31 8.65756 120.051 8.50745 119.734 8.41008C119.418 8.3046 119.089 8.25186 118.748 8.25186C118.44 8.25186 118.119 8.28838 117.787 8.3614C117.462 8.42631 117.186 8.53991 116.959 8.70219C116.732 8.85635 116.618 9.07543 116.618 9.35941C116.618 9.63529 116.74 9.86248 116.984 10.041C117.227 10.2114 117.568 10.3534 118.006 10.467C118.444 10.5724 118.951 10.6739 119.527 10.7712C120.071 10.8605 120.643 10.9863 121.243 11.1485C121.852 11.3027 122.42 11.5258 122.947 11.8179C123.483 12.1019 123.913 12.4792 124.237 12.9498C124.57 13.4123 124.736 14.0006 124.736 14.7146C124.736 15.453 124.566 16.0859 124.225 16.6133C123.884 17.1407 123.422 17.5707 122.838 17.9034C122.262 18.2279 121.617 18.4673 120.903 18.6215C120.197 18.7837 119.47 18.8649 118.724 18.8649Z" fill="black"></path><path d="M127.561 24.1592C127.155 24.1592 126.79 24.143 126.466 24.1105C126.149 24.0862 125.95 24.0578 125.869 24.0253V21.1652C125.975 21.2139 126.157 21.2504 126.417 21.2747C126.685 21.3072 126.969 21.3234 127.269 21.3234C127.666 21.3234 128.023 21.2423 128.34 21.08C128.664 20.9258 128.94 20.7027 129.168 20.4106C129.403 20.1266 129.585 19.7899 129.715 19.4004L129.934 18.7432L125.48 5.64729H129.411L132.222 16.2481H131.784L134.486 5.64729H138.369L133.926 19.2178C133.594 20.2402 133.184 21.1206 132.697 21.8589C132.21 22.5973 131.561 23.1653 130.75 23.5628C129.938 23.9604 128.875 24.1592 127.561 24.1592Z" fill="black"></path><path d="M78.9971 42.9511L74.5547 24.9625H78.7293L81.8937 40.6143H81.7233L84.8634 24.9625H89.0502L84.6444 42.9511H78.9971Z" fill="black"></path><path d="M91.9011 37.5837V35.0887H100.469L100.104 35.7216C100.104 35.6567 100.104 35.5958 100.104 35.539C100.104 35.4741 100.104 35.4132 100.104 35.3564C100.104 34.8939 99.9947 34.4517 99.7756 34.0298C99.5565 33.5998 99.2158 33.2509 98.7533 32.9831C98.2989 32.7072 97.7147 32.5693 97.0007 32.5693C96.2866 32.5693 95.67 32.7235 95.1507 33.0318C94.6395 33.332 94.246 33.7661 93.9701 34.3341C93.7024 34.9021 93.5685 35.5877 93.5685 36.391C93.5685 37.2186 93.6983 37.9286 93.9579 38.5209C94.2257 39.1051 94.6192 39.5554 95.1385 39.8718C95.6659 40.1883 96.3191 40.3465 97.098 40.3465C97.6011 40.3465 98.0352 40.3019 98.4003 40.2126C98.7654 40.1153 99.0616 39.9935 99.2888 39.8475C99.5241 39.7014 99.7026 39.5392 99.8243 39.3607C99.946 39.1822 100.019 39.0077 100.043 38.8373H103.768C103.719 39.3809 103.532 39.9165 103.208 40.4439C102.883 40.9632 102.433 41.4338 101.857 41.8557C101.281 42.2695 100.579 42.5981 99.7513 42.8415C98.9318 43.0849 97.9946 43.2067 96.9398 43.2067C95.5118 43.2067 94.2663 42.9227 93.2033 42.3547C92.1404 41.7786 91.3169 40.9875 90.7327 39.9814C90.1484 38.9671 89.8563 37.7987 89.8563 36.4762C89.8563 35.1374 90.1525 33.9649 90.7448 32.9588C91.3453 31.9445 92.1769 31.1575 93.2399 30.5976C94.3109 30.0296 95.5483 29.7457 96.952 29.7457C98.3881 29.7457 99.6296 30.0337 100.676 30.6098C101.723 31.1778 102.53 31.977 103.098 33.0075C103.666 34.0298 103.95 35.2226 103.95 36.5857C103.95 36.7885 103.946 36.9833 103.938 37.1699C103.93 37.3565 103.918 37.4945 103.902 37.5837H91.9011Z" fill="black"></path><path d="M106.308 42.9146V29.9891H110.093V34.4436L109.314 33.9568C109.404 33.3482 109.566 32.7884 109.801 32.2772C110.037 31.766 110.341 31.3238 110.714 30.9506C111.087 30.5692 111.529 30.2731 112.041 30.0621C112.56 29.8511 113.152 29.7457 113.818 29.7457C114.337 29.7457 114.743 29.7862 115.035 29.8674C115.335 29.9404 115.522 29.9972 115.595 30.0378L114.974 33.4213C114.901 33.3807 114.739 33.3158 114.487 33.2265C114.235 33.1373 113.911 33.0926 113.513 33.0926C112.864 33.0926 112.321 33.2022 111.882 33.4213C111.444 33.6403 111.091 33.9324 110.824 34.2976C110.564 34.6546 110.377 35.0522 110.264 35.4903C110.15 35.9285 110.093 36.3707 110.093 36.8169V42.9146H106.308Z" fill="black"></path><path d="M125.282 43.1945C124.259 43.1945 123.322 42.9227 122.47 42.379C121.618 41.8354 120.937 41.1011 120.425 40.1761C119.914 39.243 119.659 38.1963 119.659 37.036C119.659 37.0036 119.659 36.9752 119.659 36.9508C119.659 36.9184 119.659 36.8819 119.659 36.8413L121.29 36.8048C121.29 36.8291 121.29 36.8535 121.29 36.8778C121.29 36.9021 121.29 36.9265 121.29 36.9508C121.29 37.5513 121.436 38.0787 121.728 38.533C122.02 38.9793 122.397 39.3241 122.86 39.5676C123.322 39.811 123.805 39.9327 124.308 39.9327C125.136 39.9327 125.854 39.6487 126.462 39.0807C127.079 38.5046 127.387 37.6081 127.387 36.391C127.387 35.1739 127.083 34.2895 126.474 33.7377C125.866 33.1778 125.144 32.8979 124.308 32.8979C123.805 32.8979 123.322 33.0196 122.86 33.263C122.397 33.4983 122.02 33.8351 121.728 34.2732C121.436 34.7114 121.29 35.2347 121.29 35.8433L119.659 35.7459C119.659 34.5775 119.914 33.547 120.425 32.6545C120.937 31.7539 121.618 31.0479 122.47 30.5368C123.322 30.0175 124.259 29.7578 125.282 29.7578C126.328 29.7578 127.306 30.0134 128.215 30.5246C129.124 31.0358 129.858 31.7863 130.418 32.7762C130.986 33.7661 131.27 34.971 131.27 36.391C131.27 37.8758 130.994 39.1254 130.442 40.1396C129.89 41.1457 129.16 41.9084 128.251 42.4277C127.343 42.9389 126.353 43.1945 125.282 43.1945ZM117.504 42.9146V23.8915H121.29V42.9146H117.504Z" fill="black"></path><path d="M140.096 43.1945C138.701 43.1945 137.471 42.9064 136.408 42.3304C135.346 41.7543 134.514 40.9632 133.913 39.957C133.321 38.9428 133.025 37.7744 133.025 36.4518C133.025 35.1374 133.321 33.9771 133.913 32.9709C134.514 31.9567 135.346 31.1696 136.408 30.6098C137.471 30.0418 138.701 29.7578 140.096 29.7578C141.492 29.7578 142.721 30.0418 143.784 30.6098C144.847 31.1696 145.675 31.9567 146.267 32.9709C146.867 33.9771 147.168 35.1374 147.168 36.4518C147.168 37.7744 146.867 38.9428 146.267 39.957C145.675 40.9632 144.847 41.7543 143.784 42.3304C142.721 42.9064 141.492 43.1945 140.096 43.1945ZM140.096 40.2004C140.753 40.2004 141.326 40.0463 141.812 39.738C142.299 39.4296 142.676 38.9955 142.944 38.4357C143.212 37.8677 143.346 37.2064 143.346 36.4518C143.346 35.6972 143.212 35.0441 142.944 34.4923C142.676 33.9324 142.299 33.5024 141.812 33.2022C141.326 32.902 140.753 32.7519 140.096 32.7519C139.447 32.7519 138.875 32.902 138.38 33.2022C137.893 33.5024 137.516 33.9324 137.248 34.4923C136.981 35.0441 136.847 35.6972 136.847 36.4518C136.847 37.2064 136.981 37.8677 137.248 38.4357C137.516 38.9955 137.893 39.4296 138.38 39.738C138.875 40.0463 139.447 40.2004 140.096 40.2004Z" fill="black"></path><path d="M154.113 43.158C153.196 43.158 152.441 43.0119 151.849 42.7198C151.257 42.4196 150.79 42.018 150.449 41.5149C150.109 41.0118 149.869 40.452 149.731 39.8353C149.593 39.2187 149.524 38.5939 149.524 37.961C149.524 37.6689 149.524 37.3606 149.524 37.036C149.524 36.7115 149.524 36.3788 149.524 36.038V29.9891H153.297V35.4416C153.297 35.7175 153.297 35.9853 153.297 36.2449C153.297 36.5046 153.297 36.7439 153.297 36.963C153.297 37.5066 153.358 38.0056 153.48 38.46C153.602 38.9144 153.825 39.2795 154.149 39.5554C154.482 39.8313 154.953 39.9692 155.561 39.9692C156.153 39.9692 156.656 39.8029 157.07 39.4702C157.484 39.1294 157.801 38.6953 158.02 38.1679C158.239 37.6405 158.348 37.0969 158.348 36.537L159.407 37.4011C159.407 38.2125 159.281 38.9671 159.03 39.6649C158.786 40.3627 158.437 40.9753 157.983 41.5027C157.529 42.022 156.973 42.4277 156.316 42.7198C155.667 43.0119 154.932 43.158 154.113 43.158ZM158.348 42.9146V29.9891H162.121V42.9146H158.348Z" fill="black"></path><path d="M175.37 42.9146L172.668 29.9891H175.419L178.133 41.8435L177.512 41.8679L179.204 29.9891H183.099L180.518 42.9146H175.37ZM166.388 42.9146L163.808 29.9891H167.702L169.394 41.8679L168.786 41.8435L171.475 29.9891H174.226L171.549 42.9146H166.388Z" fill="black"></path><path d="M191.249 43.1823C190.754 43.1823 190.243 43.1377 189.716 43.0484C189.196 42.9673 188.71 42.801 188.255 42.5494C187.809 42.2898 187.448 41.9125 187.172 41.4175C186.896 40.9226 186.758 40.2694 186.758 39.458C186.758 39.2795 186.758 39.097 186.758 38.9103C186.758 38.7237 186.758 38.5371 186.758 38.3505V32.9101H183.776V29.9891H184.616C185.103 29.9891 185.488 29.9688 185.772 29.9282C186.064 29.8876 186.279 29.7862 186.417 29.6239C186.563 29.4536 186.657 29.1898 186.697 28.8328C186.738 28.4758 186.758 27.9849 186.758 27.3602V25.7293H190.543V29.9891H194.304V32.9101H190.543V37.5594C190.543 37.7054 190.543 37.8474 190.543 37.9853C190.543 38.1233 190.543 38.2572 190.543 38.387C190.543 38.9468 190.608 39.4012 190.738 39.7501C190.876 40.099 191.213 40.2735 191.748 40.2735C192.016 40.2735 192.267 40.2491 192.503 40.2004C192.746 40.1518 192.929 40.1031 193.05 40.0544V42.8902C192.88 42.9632 192.641 43.0282 192.332 43.0849C192.024 43.1499 191.663 43.1823 191.249 43.1823Z" fill="black"></path><defs><clipPath id="clip0_510_129"><rect width="61.7151" height="48.6836" fill="white" transform="translate(0 0.316467)"></rect></clipPath></defs></svg>