<svg xmlns="http://www.w3.org/2000/svg" width="201" height="50" viewBox="0 0 201 50" fill="none"><path d="M0 0H78.34V43.6324H0V0Z" fill="#6FE7DB"></path><path d="M98.1086 18.8412V1.28909H101.809V17.7345L100.143 15.8306H108.342V18.8412H98.1086Z" fill="#0A0A0A"></path><path d="M110.504 18.8412V6.20368H114.158V18.8412H110.504ZM112.325 4.14503C111.754 4.14503 111.254 3.9943 110.826 3.69284C110.405 3.39138 110.195 2.96695 110.195 2.41957C110.195 1.86424 110.405 1.43585 110.826 1.13439C111.254 0.832934 111.754 0.682204 112.325 0.682204C112.904 0.682204 113.404 0.832934 113.824 1.13439C114.253 1.43585 114.467 1.86424 114.467 2.41957C114.467 2.97489 114.253 3.40328 113.824 3.70474C113.404 3.99827 112.904 4.14503 112.325 4.14503Z" fill="#0A0A0A"></path><path d="M118.411 18.8412V9.05962H115.781V6.20368H118.411V5.335C118.411 4.49409 118.522 3.77614 118.744 3.18115C118.974 2.57823 119.284 2.07844 119.672 1.68178C120.061 1.27719 120.498 0.959864 120.981 0.729802C121.473 0.491808 121.977 0.325211 122.493 0.230013C123.016 0.126882 123.524 0.0753174 124.016 0.0753174C124.539 0.0753174 124.928 0.10705 125.182 0.170514C125.444 0.226047 125.618 0.273646 125.706 0.313312V3.18115C125.61 3.14942 125.44 3.11372 125.194 3.07405C124.956 3.03439 124.698 3.01455 124.42 3.01455C123.96 3.01455 123.58 3.07405 123.278 3.19305C122.977 3.31205 122.739 3.48658 122.564 3.71664C122.39 3.93877 122.267 4.20453 122.195 4.51392C122.124 4.81538 122.088 5.14461 122.088 5.5016V6.20368H125.48V9.05962H122.088V18.8412H118.411Z" fill="#0A0A0A"></path><path d="M128.309 13.6291V11.1897H136.687L136.33 11.8085C136.33 11.745 136.33 11.6855 136.33 11.63C136.33 11.5665 136.33 11.507 136.33 11.4515C136.33 10.9993 136.223 10.5669 136.008 10.1544C135.794 9.73394 135.461 9.39281 135.009 9.13102C134.565 8.86129 133.993 8.72643 133.295 8.72643C132.597 8.72643 131.994 8.87716 131.486 9.17862C130.987 9.47215 130.602 9.89657 130.332 10.4519C130.07 11.0072 129.94 11.6776 129.94 12.4629C129.94 13.2721 130.066 13.9663 130.32 14.5454C130.582 15.1166 130.967 15.5569 131.475 15.8663C131.99 16.1757 132.629 16.3304 133.39 16.3304C133.882 16.3304 134.307 16.2867 134.664 16.1995C135.021 16.1043 135.31 15.9853 135.532 15.8425C135.762 15.6997 135.937 15.541 136.056 15.3665C136.175 15.192 136.246 15.0214 136.27 14.8548H139.912C139.864 15.3863 139.681 15.9099 139.364 16.4256C139.047 16.9333 138.606 17.3934 138.043 17.8059C137.48 18.2105 136.794 18.5318 135.985 18.7698C135.183 19.0078 134.267 19.1268 133.236 19.1268C131.84 19.1268 130.622 18.8491 129.583 18.2938C128.543 17.7306 127.738 16.9571 127.167 15.9734C126.596 14.9817 126.31 13.8394 126.31 12.5462C126.31 11.2373 126.6 10.0909 127.179 9.10722C127.766 8.11557 128.579 7.34606 129.618 6.79867C130.665 6.24335 131.875 5.96569 133.248 5.96569C134.652 5.96569 135.866 6.24732 136.889 6.81057C137.912 7.36589 138.702 8.14731 139.257 9.15482C139.812 10.1544 140.09 11.3206 140.09 12.6533C140.09 12.8517 140.086 13.0421 140.078 13.2245C140.07 13.407 140.058 13.5419 140.042 13.6291H128.309Z" fill="#0A0A0A"></path><path d="M147.655 19.1268C146.901 19.1268 146.176 19.0395 145.477 18.865C144.779 18.6905 144.153 18.4327 143.597 18.0915C143.05 17.7504 142.614 17.326 142.288 16.8183C141.971 16.3026 141.812 15.7036 141.812 15.0214C141.812 14.9897 141.812 14.954 141.812 14.9143C141.812 14.8667 141.812 14.831 141.812 14.8072H145.477C145.477 14.831 145.477 14.8588 145.477 14.8905C145.477 14.9143 145.477 14.9421 145.477 14.9738C145.477 15.4339 145.68 15.7711 146.084 15.9853C146.497 16.1995 147.052 16.3066 147.75 16.3066C148.115 16.3066 148.464 16.2709 148.797 16.1995C149.139 16.1201 149.416 15.9972 149.63 15.8306C149.853 15.656 149.964 15.4379 149.964 15.1761C149.964 14.7556 149.73 14.4581 149.262 14.2836C148.801 14.1091 148.06 13.9345 147.036 13.76C146.457 13.6648 145.87 13.53 145.275 13.3554C144.68 13.1809 144.133 12.9508 143.633 12.6652C143.133 12.3717 142.733 12.0028 142.431 11.5586C142.13 11.1064 141.979 10.559 141.979 9.9164C141.979 9.05962 142.237 8.3377 142.752 7.75065C143.276 7.1636 143.97 6.71934 144.835 6.41788C145.7 6.11642 146.652 5.96569 147.691 5.96569C148.682 5.96569 149.607 6.13229 150.463 6.46548C151.32 6.79074 152.014 7.26276 152.546 7.88155C153.077 8.4924 153.343 9.23018 153.343 10.0949C153.343 10.1108 153.343 10.1346 153.343 10.1663C153.343 10.198 153.343 10.2298 153.343 10.2615H149.714C149.714 10.2298 149.714 10.202 149.714 10.1782C149.714 10.1544 149.714 10.1346 149.714 10.1187C149.714 9.80137 149.611 9.54354 149.404 9.34521C149.206 9.14689 148.952 9.00012 148.643 8.90492C148.333 8.80179 148.012 8.75023 147.679 8.75023C147.377 8.75023 147.064 8.78593 146.739 8.85732C146.421 8.92079 146.152 9.03186 145.93 9.19052C145.707 9.34125 145.596 9.55544 145.596 9.83311C145.596 10.1028 145.715 10.325 145.953 10.4995C146.191 10.6661 146.525 10.8049 146.953 10.916C147.381 11.0191 147.877 11.1183 148.44 11.2135C148.972 11.3007 149.531 11.4237 150.118 11.5824C150.713 11.7331 151.269 11.9513 151.784 12.2369C152.308 12.5145 152.728 12.8834 153.046 13.3435C153.371 13.7957 153.534 14.3709 153.534 15.069C153.534 15.7909 153.367 16.4097 153.034 16.9254C152.701 17.441 152.248 17.8615 151.677 18.1867C151.114 18.504 150.483 18.7381 149.785 18.8888C149.095 19.0475 148.385 19.1268 147.655 19.1268Z" fill="#0A0A0A"></path><path d="M161.925 19.103C161.441 19.103 160.941 19.0594 160.425 18.9721C159.917 18.8928 159.441 18.7301 158.997 18.4842C158.561 18.2304 158.208 17.8615 157.938 17.3775C157.668 16.8936 157.534 16.255 157.534 15.4617C157.534 15.2872 157.534 15.1087 157.534 14.9262C157.534 14.7437 157.534 14.5613 157.534 14.3788V9.05962H154.618V6.20368H155.439C155.915 6.20368 156.292 6.18385 156.57 6.14419C156.855 6.10452 157.065 6.00535 157.2 5.84669C157.343 5.6801 157.434 5.42227 157.474 5.07321C157.514 4.72415 157.534 4.24419 157.534 3.63334V2.03877H161.234V6.20368H164.911V9.05962H161.234V13.6053C161.234 13.7481 161.234 13.8869 161.234 14.0218C161.234 14.1567 161.234 14.2876 161.234 14.4145C161.234 14.9619 161.298 15.4062 161.425 15.7473C161.56 16.0884 161.889 16.259 162.412 16.259C162.674 16.259 162.92 16.2352 163.15 16.1876C163.388 16.14 163.567 16.0924 163.686 16.0448V18.8174C163.519 18.8888 163.285 18.9523 162.984 19.0078C162.682 19.0713 162.329 19.103 161.925 19.103Z" fill="#0A0A0A"></path><path d="M168.195 24.3032C167.798 24.3032 167.441 24.2873 167.124 24.2556C166.815 24.2318 166.62 24.204 166.541 24.1723V21.3759C166.644 21.4235 166.823 21.4592 167.076 21.483C167.338 21.5147 167.616 21.5306 167.909 21.5306C168.298 21.5306 168.647 21.4512 168.957 21.2926C169.274 21.1418 169.544 20.9237 169.766 20.6381C169.996 20.3604 170.174 20.0312 170.301 19.6504L170.515 19.0078L166.16 6.20368H170.004L172.753 16.5684H172.324L174.966 6.20368H178.762L174.419 19.4719C174.093 20.4715 173.693 21.3322 173.217 22.0541C172.741 22.7761 172.106 23.3314 171.313 23.7201C170.519 24.1088 169.48 24.3032 168.195 24.3032Z" fill="#0A0A0A"></path><path d="M184.332 0.241913V18.8412H180.69V0.241913H184.332Z" fill="#0A0A0A"></path><path d="M188.691 13.6291V11.1897H197.069L196.712 11.8085C196.712 11.745 196.712 11.6855 196.712 11.63C196.712 11.5665 196.712 11.507 196.712 11.4515C196.712 10.9993 196.604 10.5669 196.39 10.1544C196.176 9.73394 195.843 9.39281 195.391 9.13102C194.946 8.86129 194.375 8.72643 193.677 8.72643C192.979 8.72643 192.376 8.87716 191.868 9.17862C191.369 9.47215 190.984 9.89657 190.714 10.4519C190.452 11.0072 190.321 11.6776 190.321 12.4629C190.321 13.2721 190.448 13.9663 190.702 14.5454C190.964 15.1166 191.349 15.5569 191.856 15.8663C192.372 16.1757 193.011 16.3304 193.772 16.3304C194.264 16.3304 194.689 16.2867 195.046 16.1995C195.403 16.1043 195.692 15.9853 195.914 15.8425C196.144 15.6997 196.319 15.541 196.438 15.3665C196.557 15.192 196.628 15.0214 196.652 14.8548H200.293C200.246 15.3863 200.063 15.9099 199.746 16.4256C199.429 16.9333 198.988 17.3934 198.425 17.8059C197.862 18.2105 197.176 18.5318 196.366 18.7698C195.565 19.0078 194.649 19.1268 193.618 19.1268C192.221 19.1268 191.004 18.8491 189.964 18.2938C188.925 17.7306 188.12 16.9571 187.549 15.9734C186.978 14.9817 186.692 13.8394 186.692 12.5462C186.692 11.2373 186.982 10.0909 187.561 9.10722C188.148 8.11557 188.961 7.34606 190 6.79867C191.047 6.24335 192.257 5.96569 193.63 5.96569C195.034 5.96569 196.247 6.24732 197.271 6.81057C198.294 7.36589 199.084 8.14731 199.639 9.15482C200.194 10.1544 200.472 11.3206 200.472 12.6533C200.472 12.8517 200.468 13.0421 200.46 13.2245C200.452 13.407 200.44 13.5419 200.424 13.6291H188.691Z" fill="#0A0A0A"></path><path d="M98.1086 43.6323V26.0802H103.785C104.959 26.0802 106.026 26.2944 106.986 26.7228C107.954 27.1433 108.783 27.7422 109.473 28.5197C110.171 29.2892 110.707 30.2094 111.079 31.2804C111.452 32.3514 111.639 33.5334 111.639 34.8265C111.639 36.1196 111.452 37.3056 111.079 38.3845C110.707 39.4635 110.171 40.3956 109.473 41.181C108.783 41.9584 107.954 42.5614 106.986 42.9898C106.026 43.4181 104.959 43.6323 103.785 43.6323H98.1086ZM101.821 42.5376L100.155 40.7764H103.309C104.166 40.7764 104.939 40.5384 105.629 40.0624C106.327 39.5785 106.879 38.8923 107.283 38.0038C107.688 37.1073 107.89 36.0482 107.89 34.8265C107.89 33.5969 107.688 32.5457 107.283 31.6731C106.879 30.7925 106.327 30.1182 105.629 29.6501C104.939 29.1742 104.166 28.9362 103.309 28.9362H100.155L101.821 27.175V42.5376Z" fill="#0A0A0A"></path><path d="M118.348 43.8941C117.427 43.8941 116.606 43.7474 115.884 43.4538C115.17 43.1603 114.611 42.7359 114.207 42.1806C113.802 41.6252 113.6 40.9509 113.6 40.1576C113.6 39.2612 113.846 38.5313 114.337 37.9681C114.829 37.4048 115.48 36.9764 116.289 36.6829C117.106 36.3814 117.991 36.1831 118.943 36.0879C120.331 35.953 121.287 35.8301 121.811 35.719C122.342 35.6079 122.608 35.4136 122.608 35.1359C122.608 35.128 122.608 35.1201 122.608 35.1121C122.608 34.6441 122.382 34.2752 121.93 34.0054C121.485 33.7357 120.862 33.6009 120.061 33.6009C119.212 33.6009 118.562 33.7556 118.11 34.0649C117.665 34.3664 117.443 34.8305 117.443 35.4572H113.814C113.814 34.4418 114.088 33.585 114.635 32.8869C115.19 32.1887 115.94 31.6612 116.884 31.3042C117.828 30.9393 118.895 30.7568 120.085 30.7568C121.196 30.7568 122.223 30.9274 123.167 31.2685C124.111 31.6017 124.869 32.1055 125.44 32.7798C126.019 33.4541 126.309 34.3109 126.309 35.3501C126.309 35.5167 126.309 35.6833 126.309 35.8499C126.309 36.0086 126.309 36.1712 126.309 36.3378V40.8121C126.309 41.1374 126.317 41.4507 126.332 41.7522C126.356 42.0457 126.404 42.3154 126.475 42.5614C126.555 42.839 126.654 43.0691 126.773 43.2515C126.892 43.434 126.991 43.5609 127.07 43.6323H123.441C123.385 43.5768 123.298 43.4618 123.179 43.2872C123.068 43.1127 122.973 42.9104 122.893 42.6804C122.798 42.4027 122.727 42.125 122.679 41.8474C122.64 41.5618 122.62 41.2286 122.62 40.8478L123.381 41.3714C123.159 41.895 122.798 42.3472 122.298 42.728C121.807 43.1008 121.219 43.3904 120.537 43.5966C119.863 43.795 119.133 43.8941 118.348 43.8941ZM119.335 41.1334C119.914 41.1334 120.454 41.0303 120.954 40.824C121.461 40.6098 121.874 40.2766 122.191 39.8244C122.509 39.3722 122.667 38.7812 122.667 38.0514V36.7781L123.584 37.6706C123.06 37.861 122.453 38.0196 121.763 38.1466C121.081 38.2656 120.398 38.3608 119.716 38.4322C118.907 38.5115 118.3 38.6503 117.895 38.8486C117.499 39.039 117.301 39.3643 117.301 39.8244C117.301 40.2607 117.471 40.59 117.812 40.8121C118.153 41.0263 118.661 41.1334 119.335 41.1334Z" fill="#0A0A0A"></path><path d="M128.865 43.6323V30.9948H132.519V43.6323H128.865ZM130.686 28.9362C130.115 28.9362 129.615 28.7854 129.187 28.484C128.766 28.1825 128.556 27.7581 128.556 27.2107C128.556 26.6554 128.766 26.227 129.187 25.9255C129.615 25.6241 130.115 25.4733 130.686 25.4733C131.265 25.4733 131.765 25.6241 132.185 25.9255C132.614 26.227 132.828 26.6554 132.828 27.2107C132.828 27.766 132.614 28.1944 132.185 28.4959C131.765 28.7894 131.265 28.9362 130.686 28.9362Z" fill="#0A0A0A"></path><path d="M140.497 43.9179C139.743 43.9179 139.017 43.8307 138.319 43.6561C137.621 43.4816 136.994 43.2238 136.439 42.8827C135.891 42.5415 135.455 42.1171 135.13 41.6094C134.813 41.0937 134.654 40.4948 134.654 39.8125C134.654 39.7808 134.654 39.7451 134.654 39.7054C134.654 39.6578 134.654 39.6221 134.654 39.5983H138.319C138.319 39.6221 138.319 39.6499 138.319 39.6816C138.319 39.7054 138.319 39.7332 138.319 39.7649C138.319 40.225 138.521 40.5622 138.926 40.7764C139.338 40.9906 139.894 41.0977 140.592 41.0977C140.957 41.0977 141.306 41.062 141.639 40.9906C141.98 40.9113 142.258 40.7883 142.472 40.6217C142.694 40.4472 142.805 40.229 142.805 39.9672C142.805 39.5468 142.571 39.2493 142.103 39.0747C141.643 38.9002 140.901 38.7257 139.878 38.5511C139.299 38.4559 138.712 38.3211 138.117 38.1466C137.522 37.972 136.974 37.742 136.475 37.4564C135.975 37.1628 135.574 36.7939 135.273 36.3497C134.971 35.8975 134.82 35.3501 134.82 34.7075C134.82 33.8507 135.078 33.1288 135.594 32.5418C136.118 31.9547 136.812 31.5105 137.676 31.209C138.541 30.9075 139.493 30.7568 140.532 30.7568C141.524 30.7568 142.448 30.9234 143.305 31.2566C144.162 31.5819 144.856 32.0539 145.387 32.6727C145.919 33.2835 146.185 34.0213 146.185 34.886C146.185 34.9019 146.185 34.9257 146.185 34.9574C146.185 34.9892 146.185 35.0209 146.185 35.0526H142.555C142.555 35.0209 142.555 34.9931 142.555 34.9693C142.555 34.9455 142.555 34.9257 142.555 34.9098C142.555 34.5925 142.452 34.3347 142.246 34.1363C142.048 33.938 141.794 33.7912 141.484 33.696C141.175 33.5929 140.854 33.5414 140.52 33.5414C140.219 33.5414 139.906 33.5771 139.58 33.6485C139.263 33.7119 138.993 33.823 138.771 33.9816C138.549 34.1324 138.438 34.3466 138.438 34.6242C138.438 34.894 138.557 35.1161 138.795 35.2906C139.033 35.4572 139.366 35.596 139.795 35.7071C140.223 35.8102 140.719 35.9094 141.282 36.0046C141.814 36.0919 142.373 36.2148 142.96 36.3735C143.555 36.5242 144.11 36.7424 144.626 37.028C145.149 37.3056 145.57 37.6745 145.887 38.1347C146.212 38.5868 146.375 39.162 146.375 39.8601C146.375 40.582 146.209 41.2008 145.875 41.7165C145.542 42.2321 145.09 42.6526 144.519 42.9779C143.955 43.2952 143.325 43.5292 142.627 43.6799C141.937 43.8386 141.226 43.9179 140.497 43.9179Z" fill="#0A0A0A"></path><path d="M149.114 49.0943C148.717 49.0943 148.36 49.0784 148.043 49.0467C147.733 49.0229 147.539 48.9952 147.459 48.9634V46.167C147.563 46.2146 147.741 46.2503 147.995 46.2741C148.257 46.3058 148.534 46.3217 148.828 46.3217C149.217 46.3217 149.566 46.2423 149.875 46.0837C150.192 45.933 150.462 45.7148 150.684 45.4292C150.914 45.1515 151.093 44.8223 151.22 44.4415L151.434 43.7989L147.079 30.9948H150.922L153.671 41.3595H153.243L155.884 30.9948H159.681L155.337 44.263C155.012 45.2626 154.611 46.1233 154.135 46.8453C153.659 47.5672 153.025 48.1225 152.231 48.5112C151.438 48.9 150.399 49.0943 149.114 49.0943Z" fill="#0A0A0A"></path><path d="M78.3401 20.1881L26.7745 0V43.6324H78.3401V20.1881Z" fill="#7FA6EE"></path><path d="M0 26.582L38.6742 11.8998V43.6324H0V26.582Z" fill="#B8F7D4"></path></svg>