<svg xmlns="http://www.w3.org/2000/svg" width="164" height="50" viewBox="0 0 164 50" fill="none"><g clip-path="url(#clip0_510_14)"><path d="M26.8953 7.21033L0.765869 49.0174H53.0277L26.8953 7.21033Z" fill="#BBD9D0"></path><path d="M26.8953 7.21033L0.765869 49.0174H53.0277L26.8953 7.21033Z" fill="#5C7300"></path><path d="M11.1912 42.3867C10.8481 42.3867 10.5701 42.1087 10.5701 41.7657V20.0429C9.10914 21.9564 6.87328 22.5213 6.84075 22.5301C6.50655 22.61 6.17235 22.4059 6.0925 22.0717C6.01265 21.7405 6.21672 21.4033 6.54796 21.3235C6.72245 21.2791 10.5701 20.2765 10.5701 16.1922C10.5701 15.8492 10.8481 15.5712 11.1912 15.5712C11.5343 15.5712 11.8123 15.8492 11.8123 16.1922V41.7657C11.8123 42.1087 11.5343 42.3867 11.1912 42.3867Z" fill="white"></path><path d="M6.65444 38.3587C6.57459 38.3587 6.52431 38.3587 6.51248 38.3557C6.16941 38.338 5.9062 38.0481 5.92394 37.7051C5.94169 37.362 6.23152 37.1017 6.57163 37.1165C6.59234 37.1195 8.40528 37.1845 9.56757 36.0725C10.233 35.4337 10.5731 34.508 10.5731 33.3161C10.5731 32.9731 10.8511 32.6951 11.1942 32.6951C11.5373 32.6951 11.8153 32.9731 11.8153 33.3161C11.8153 34.8629 11.345 36.0932 10.4193 36.9746C9.07071 38.2581 7.18679 38.3557 6.6574 38.3557L6.65444 38.3587Z" fill="white"></path><path d="M6.65444 25.6474C6.57459 25.6474 6.52431 25.6474 6.51248 25.6444C6.16941 25.6267 5.9062 25.3368 5.92394 24.9938C5.94169 24.6507 6.23152 24.3934 6.57163 24.4052C6.59234 24.4082 8.40528 24.4732 9.56757 23.3612C10.233 22.7224 10.5731 21.7967 10.5731 20.6048C10.5731 20.2618 10.8511 19.9838 11.1942 19.9838C11.5373 19.9838 11.8153 20.2618 11.8153 20.6048C11.8153 22.1516 11.345 23.3819 10.4193 24.2633C9.07071 25.5468 7.18679 25.6444 6.6574 25.6444L6.65444 25.6474Z" fill="white"></path><path d="M6.65444 28.9036C6.57459 28.9036 6.52431 28.9036 6.51248 28.9006C6.16941 28.8829 5.9062 28.593 5.92394 28.25C5.94169 27.9099 6.23152 27.6555 6.57163 27.6614C6.59234 27.6614 8.40528 27.7295 9.56757 26.6174C10.233 25.9786 10.5731 25.0529 10.5731 23.8611C10.5731 23.518 10.8511 23.24 11.1942 23.24C11.5373 23.24 11.8153 23.518 11.8153 23.8611C11.8153 25.4078 11.345 26.6381 10.4193 27.5195C9.07071 28.803 7.18679 28.9006 6.6574 28.9006L6.65444 28.9036Z" fill="white"></path><path d="M6.65444 32.1568C6.57459 32.1568 6.52431 32.1568 6.51248 32.1538C6.16941 32.1361 5.9062 31.8462 5.92394 31.5032C5.94169 31.1601 6.23152 30.8998 6.57163 30.9146C6.59234 30.9176 8.40528 30.9826 9.56757 29.8706C10.233 29.2318 10.5731 28.3061 10.5731 27.1142C10.5731 26.7712 10.8511 26.4932 11.1942 26.4932C11.5373 26.4932 11.8153 26.7712 11.8153 27.1142C11.8153 28.661 11.345 29.8913 10.4193 30.7727C9.07071 32.0562 7.18679 32.1538 6.6574 32.1538L6.65444 32.1568Z" fill="white"></path><path d="M6.65444 35.413C6.57459 35.413 6.52431 35.413 6.51248 35.41C6.16941 35.3923 5.9062 35.1024 5.92394 34.7594C5.94169 34.4193 6.23152 34.162 6.57163 34.1708C6.59234 34.1708 8.40528 34.2389 9.56757 33.1268C10.233 32.488 10.5731 31.5623 10.5731 30.3705C10.5731 30.0274 10.8511 29.7494 11.1942 29.7494C11.5373 29.7494 11.8153 30.0274 11.8153 30.3705C11.8153 31.9172 11.345 33.1475 10.4193 34.0289C9.07071 35.3124 7.18679 35.41 6.6574 35.41L6.65444 35.413Z" fill="white"></path><path d="M11.2947 42.3867C10.9516 42.3867 10.6736 42.1087 10.6736 41.7657V16.1922C10.6736 15.8492 10.9516 15.5712 11.2947 15.5712C11.6377 15.5712 11.9157 15.8492 11.9157 16.1922C11.9157 20.2825 15.7723 21.285 15.9379 21.3235C16.2692 21.4063 16.4732 21.7405 16.3934 22.0717C16.3106 22.403 15.9793 22.607 15.6451 22.5272C15.6126 22.5183 13.3767 21.9534 11.9157 20.0399V41.7627C11.9157 42.1058 11.6377 42.3838 11.2947 42.3838V42.3867Z" fill="white"></path><path d="M15.8344 38.3586C15.305 38.3586 13.4211 38.264 12.0724 36.9775C11.1468 36.0962 10.6765 34.8658 10.6765 33.3191C10.6765 32.976 10.9545 32.698 11.2976 32.698C11.6407 32.698 11.9187 32.976 11.9187 33.3191C11.9187 34.508 12.2558 35.4366 12.9242 36.0755C14.0865 37.1875 15.8994 37.1224 15.9201 37.1194C16.2455 37.1047 16.5531 37.3679 16.5678 37.7109C16.5826 38.0511 16.3224 38.3409 15.9793 38.3586C15.9675 38.3586 15.9172 38.3616 15.8373 38.3616L15.8344 38.3586Z" fill="white"></path><path d="M15.8344 25.6473C15.305 25.6473 13.4211 25.5527 12.0724 24.2662C11.1468 23.3849 10.6765 22.1545 10.6765 20.6078C10.6765 20.2647 10.9545 19.9867 11.2976 19.9867C11.6407 19.9867 11.9187 20.2647 11.9187 20.6078C11.9187 21.7967 12.2558 22.7253 12.9242 23.3641C14.0865 24.4762 15.8994 24.4111 15.9201 24.4081C16.2455 24.3934 16.5531 24.6566 16.5678 24.9996C16.5826 25.3398 16.3224 25.6296 15.9793 25.6473C15.9675 25.6473 15.9172 25.6503 15.8373 25.6503L15.8344 25.6473Z" fill="white"></path><path d="M15.8344 28.9036C15.305 28.9036 13.4211 28.8089 12.0724 27.5224C11.1468 26.6411 10.6765 25.4108 10.6765 23.864C10.6765 23.5209 10.9545 23.2429 11.2976 23.2429C11.6407 23.2429 11.9187 23.5209 11.9187 23.864C11.9187 25.0529 12.2558 25.9816 12.9242 26.6204C14.0865 27.7324 15.8994 27.6644 15.9201 27.6644C16.2455 27.6496 16.5531 27.9128 16.5678 28.2559C16.5826 28.596 16.3224 28.8858 15.9793 28.9036C15.9675 28.9036 15.9172 28.9065 15.8373 28.9065L15.8344 28.9036Z" fill="white"></path><path d="M15.8344 32.1567C15.305 32.1567 13.4211 32.0621 12.0724 30.7756C11.1468 29.8943 10.6765 28.6639 10.6765 27.1172C10.6765 26.7741 10.9545 26.4961 11.2976 26.4961C11.6407 26.4961 11.9187 26.7741 11.9187 27.1172C11.9187 28.3061 12.2558 29.2347 12.9242 29.8736C14.0865 30.9856 15.8994 30.9205 15.9201 30.9175C16.2455 30.8998 16.5531 31.166 16.5678 31.509C16.5826 31.8492 16.3224 32.139 15.9793 32.1567C15.9675 32.1567 15.9172 32.1597 15.8373 32.1597L15.8344 32.1567Z" fill="white"></path><path d="M15.8344 35.413C15.305 35.413 13.4211 35.3183 12.0724 34.0318C11.1468 33.1505 10.6765 31.9202 10.6765 30.3734C10.6765 30.0303 10.9545 29.7523 11.2976 29.7523C11.6407 29.7523 11.9187 30.0303 11.9187 30.3734C11.9187 31.5623 12.2558 32.491 12.9242 33.1298C14.0865 34.2418 15.8994 34.1738 15.9201 34.1738C16.2455 34.1679 16.5531 34.4222 16.5678 34.7653C16.5826 35.1054 16.3224 35.3952 15.9793 35.413C15.9675 35.413 15.9172 35.4159 15.8373 35.4159L15.8344 35.413Z" fill="white"></path><path d="M9.95196 42.3867C9.60889 42.3867 9.33089 42.1087 9.33089 41.7657V20.0429C7.86989 21.9564 5.63402 22.5213 5.60149 22.5301C5.26729 22.61 4.9331 22.4059 4.85324 22.0717C4.77339 21.7405 4.97746 21.4033 5.3087 21.3235C5.48319 21.2791 9.33089 20.2765 9.33089 16.1922C9.33089 15.8492 9.60889 15.5712 9.95196 15.5712C10.295 15.5712 10.573 15.8492 10.573 16.1922V41.7657C10.573 42.1087 10.295 42.3867 9.95196 42.3867Z" fill="#0A0A0A"></path><path d="M5.41226 38.3587C5.3324 38.3587 5.28213 38.3587 5.2703 38.3557C4.92723 38.338 4.66401 38.0481 4.68176 37.7051C4.6995 37.362 4.98933 37.1017 5.32944 37.1165C5.34719 37.1195 7.16309 37.1845 8.32538 36.0725C8.99082 35.4337 9.33093 34.508 9.33093 33.3161C9.33093 32.9731 9.60894 32.6951 9.952 32.6951C10.2951 32.6951 10.5731 32.9731 10.5731 33.3161C10.5731 34.8629 10.1028 36.0932 9.17714 36.9746C7.82852 38.2581 5.9446 38.3557 5.41521 38.3557L5.41226 38.3587Z" fill="#0A0A0A"></path><path d="M5.41226 25.6474C5.3324 25.6474 5.28213 25.6474 5.2703 25.6444C4.92723 25.6267 4.66401 25.3368 4.68176 24.9938C4.6995 24.6507 4.98933 24.3934 5.32944 24.4052C5.34719 24.4082 7.16309 24.4732 8.32538 23.3612C8.99082 22.7224 9.33093 21.7967 9.33093 20.6048C9.33093 20.2618 9.60894 19.9838 9.952 19.9838C10.2951 19.9838 10.5731 20.2618 10.5731 20.6048C10.5731 22.1516 10.1028 23.3819 9.17714 24.2633C7.82852 25.5468 5.9446 25.6444 5.41521 25.6444L5.41226 25.6474Z" fill="#0A0A0A"></path><path d="M5.41226 28.9036C5.3324 28.9036 5.28213 28.9036 5.2703 28.9006C4.92723 28.8829 4.66401 28.593 4.68176 28.25C4.6995 27.9099 4.98933 27.6555 5.32944 27.6614C5.34719 27.6614 7.16309 27.7295 8.32538 26.6174C8.99082 25.9786 9.33093 25.0529 9.33093 23.8611C9.33093 23.518 9.60894 23.24 9.952 23.24C10.2951 23.24 10.5731 23.518 10.5731 23.8611C10.5731 25.4078 10.1028 26.6381 9.17714 27.5195C7.82852 28.803 5.9446 28.9006 5.41521 28.9006L5.41226 28.9036Z" fill="#0A0A0A"></path><path d="M5.41226 32.1568C5.3324 32.1568 5.28213 32.1568 5.2703 32.1538C4.92723 32.1361 4.66401 31.8462 4.68176 31.5032C4.6995 31.1601 4.98933 30.8998 5.32944 30.9146C5.34719 30.9176 7.16309 30.9826 8.32538 29.8706C8.99082 29.2318 9.33093 28.3061 9.33093 27.1142C9.33093 26.7712 9.60894 26.4932 9.952 26.4932C10.2951 26.4932 10.5731 26.7712 10.5731 27.1142C10.5731 28.661 10.1028 29.8913 9.17714 30.7727C7.82852 32.0562 5.9446 32.1538 5.41521 32.1538L5.41226 32.1568Z" fill="#0A0A0A"></path><path d="M5.41226 35.413C5.3324 35.413 5.28213 35.413 5.2703 35.41C4.92723 35.3923 4.66401 35.1024 4.68176 34.7594C4.6995 34.4193 4.98933 34.162 5.32944 34.1708C5.34719 34.1708 7.16309 34.2389 8.32538 33.1268C8.99082 32.488 9.33093 31.5623 9.33093 30.3705C9.33093 30.0274 9.60894 29.7494 9.952 29.7494C10.2951 29.7494 10.5731 30.0274 10.5731 30.3705C10.5731 31.9172 10.1028 33.1475 9.17714 34.0289C7.82852 35.3124 5.9446 35.41 5.41521 35.41L5.41226 35.413Z" fill="#0A0A0A"></path><path d="M10.0554 42.3867C9.71233 42.3867 9.43433 42.1087 9.43433 41.7657V16.1922C9.43433 15.8492 9.71233 15.5712 10.0554 15.5712C10.3985 15.5712 10.6765 15.8492 10.6765 16.1922C10.6765 20.2825 14.533 21.285 14.6987 21.3235C15.0299 21.4063 15.234 21.7405 15.1541 22.0717C15.0713 22.403 14.7401 22.607 14.4059 22.5272C14.3733 22.5183 12.1375 21.9534 10.6765 20.0399V41.7627C10.6765 42.1058 10.3985 42.3838 10.0554 42.3838V42.3867Z" fill="#0A0A0A"></path><path d="M14.5951 38.3586C14.0657 38.3586 12.1818 38.264 10.8332 36.9775C9.9075 36.0962 9.43726 34.8658 9.43726 33.3191C9.43726 32.976 9.71526 32.698 10.0583 32.698C10.4014 32.698 10.6794 32.976 10.6794 33.3191C10.6794 34.508 11.0166 35.4366 11.6849 36.0755C12.8472 37.1875 14.6631 37.1224 14.6809 37.1194C15.0033 37.1047 15.3108 37.3679 15.3286 37.7109C15.3434 38.0511 15.0831 38.3409 14.74 38.3586C14.7282 38.3586 14.6779 38.3616 14.5981 38.3616L14.5951 38.3586Z" fill="#0A0A0A"></path><path d="M14.5951 25.6473C14.0657 25.6473 12.1818 25.5527 10.8332 24.2662C9.9075 23.3849 9.43726 22.1545 9.43726 20.6078C9.43726 20.2647 9.71526 19.9867 10.0583 19.9867C10.4014 19.9867 10.6794 20.2647 10.6794 20.6078C10.6794 21.7967 11.0166 22.7253 11.6849 23.3641C12.8472 24.4762 14.6631 24.4111 14.6809 24.4081C15.0033 24.3934 15.3108 24.6566 15.3286 24.9996C15.3434 25.3398 15.0831 25.6296 14.74 25.6473C14.7282 25.6473 14.6779 25.6503 14.5981 25.6503L14.5951 25.6473Z" fill="#0A0A0A"></path><path d="M14.5951 28.9036C14.0657 28.9036 12.1818 28.8089 10.8332 27.5224C9.9075 26.6411 9.43726 25.4108 9.43726 23.864C9.43726 23.5209 9.71526 23.2429 10.0583 23.2429C10.4014 23.2429 10.6794 23.5209 10.6794 23.864C10.6794 25.0529 11.0166 25.9816 11.6849 26.6204C12.8472 27.7324 14.6631 27.6644 14.6809 27.6644C15.0033 27.6496 15.3108 27.9128 15.3286 28.2559C15.3434 28.596 15.0831 28.8858 14.74 28.9036C14.7282 28.9036 14.6779 28.9065 14.5981 28.9065L14.5951 28.9036Z" fill="#0A0A0A"></path><path d="M14.5951 32.1567C14.0657 32.1567 12.1818 32.0621 10.8332 30.7756C9.9075 29.8943 9.43726 28.6639 9.43726 27.1172C9.43726 26.7741 9.71526 26.4961 10.0583 26.4961C10.4014 26.4961 10.6794 26.7741 10.6794 27.1172C10.6794 28.3061 11.0166 29.2347 11.6849 29.8736C12.8472 30.9856 14.6631 30.9205 14.6809 30.9175C15.0033 30.8998 15.3108 31.166 15.3286 31.509C15.3434 31.8492 15.0831 32.139 14.74 32.1567C14.7282 32.1567 14.6779 32.1597 14.5981 32.1597L14.5951 32.1567Z" fill="#0A0A0A"></path><path d="M14.5951 35.413C14.0657 35.413 12.1818 35.3183 10.8332 34.0318C9.9075 33.1505 9.43726 31.9202 9.43726 30.3734C9.43726 30.0303 9.71526 29.7523 10.0583 29.7523C10.4014 29.7523 10.6794 30.0303 10.6794 30.3734C10.6794 31.5623 11.0166 32.491 11.6849 33.1298C12.8472 34.2418 14.6631 34.1738 14.6809 34.1738C15.0033 34.1679 15.3108 34.4222 15.3286 34.7653C15.3434 35.1054 15.0831 35.3952 14.74 35.413C14.7282 35.413 14.6779 35.4159 14.5981 35.4159L14.5951 35.413Z" fill="#0A0A0A"></path><path d="M24.018 42.6914C23.669 42.6914 23.3851 42.4075 23.3851 42.0585V30.7668C22.2021 32.2308 20.6139 32.4703 20.5873 32.4733C20.2442 32.5206 19.9248 32.2781 19.8775 31.9321C19.8302 31.586 20.0727 31.2696 20.4157 31.2223C20.5488 31.2016 23.3851 30.7224 23.3851 26.6382C23.3851 26.2892 23.669 26.0052 24.018 26.0052C24.367 26.0052 24.6509 26.2892 24.6509 26.6382V42.0585C24.6509 42.4075 24.367 42.6914 24.018 42.6914Z" fill="white"></path><path d="M19.3924 36.2706C19.3095 36.2706 19.2622 36.2706 19.2474 36.2677C18.8985 36.2499 18.6293 35.9542 18.6471 35.6052C18.6648 35.2562 18.9576 34.996 19.3066 35.0048C19.3273 35.0048 21.1757 35.0758 22.3587 33.9431C23.0389 33.2925 23.382 32.349 23.382 31.1364C23.382 30.7875 23.6659 30.5035 24.0149 30.5035C24.3639 30.5035 24.6478 30.7875 24.6478 31.1364C24.6478 32.7128 24.1687 33.9668 23.2253 34.8629C21.85 36.1701 19.9336 36.2677 19.3924 36.2677V36.2706Z" fill="white"></path><path d="M19.3924 39.5861C19.3095 39.5861 19.2622 39.5861 19.2474 39.5831C18.8985 39.5654 18.6293 39.2696 18.6471 38.9206C18.6648 38.5717 18.9576 38.3144 19.3066 38.3203C19.3273 38.3203 21.1757 38.3883 22.3587 37.2585C23.0389 36.6079 23.382 35.6644 23.382 34.4519C23.382 34.1029 23.6659 33.819 24.0149 33.819C24.3639 33.819 24.6478 34.1029 24.6478 34.4519C24.6478 36.0282 24.1687 37.2822 23.2253 38.1783C21.85 39.4855 19.9336 39.5831 19.3924 39.5831V39.5861Z" fill="white"></path><path d="M24.1214 42.6914C23.7724 42.6914 23.4885 42.4075 23.4885 42.0585V26.6382C23.4885 26.2892 23.7724 26.0052 24.1214 26.0052C24.4704 26.0052 24.7543 26.2892 24.7543 26.6382C24.7543 30.7786 27.7769 31.518 27.9041 31.5476C28.2412 31.6245 28.4571 31.9616 28.3802 32.3017C28.3063 32.6419 27.9721 32.8548 27.632 32.7809C27.6054 32.7749 25.961 32.3934 24.7514 30.8112V42.0585C24.7514 42.4075 24.4675 42.6914 24.1185 42.6914H24.1214Z" fill="white"></path><path d="M28.7469 36.2707C28.2057 36.2707 26.2892 36.1731 24.914 34.8659C23.9706 33.9669 23.4915 32.7129 23.4915 31.1395C23.4915 30.7905 23.7754 30.5066 24.1244 30.5066C24.4733 30.5066 24.7573 30.7905 24.7573 31.1395C24.7573 32.3521 25.1003 33.2955 25.7806 33.9462C26.9636 35.0789 28.8149 35.0109 28.8327 35.0079C29.1639 34.9931 29.4774 35.2622 29.4922 35.6083C29.51 35.9543 29.2408 36.25 28.8948 36.2678C28.883 36.2678 28.8327 36.2707 28.7499 36.2707H28.7469Z" fill="white"></path><path d="M28.7469 39.5861C28.2057 39.5861 26.2892 39.4885 24.914 38.1812C23.9706 37.2822 23.4915 36.0282 23.4915 34.4548C23.4915 34.1058 23.7754 33.8219 24.1244 33.8219C24.4733 33.8219 24.7573 34.1058 24.7573 34.4548C24.7573 35.6674 25.1003 36.6108 25.7806 37.2615C26.9636 38.3942 28.8149 38.3262 28.8327 38.3232C29.1639 38.3055 29.4774 38.5775 29.4922 38.9236C29.51 39.2726 29.2408 39.5653 28.8948 39.5831C28.883 39.5831 28.8327 39.5861 28.7499 39.5861H28.7469Z" fill="white"></path><path d="M22.7519 42.6914C22.4029 42.6914 22.119 42.4075 22.119 42.0585V30.7668C20.936 32.2308 19.3478 32.4703 19.3212 32.4733C18.9781 32.5206 18.6587 32.2781 18.6114 31.9321C18.5641 31.586 18.8066 31.2696 19.1496 31.2223C19.2827 31.2016 22.119 30.7224 22.119 26.6382C22.119 26.2892 22.4029 26.0052 22.7519 26.0052C23.1008 26.0052 23.3848 26.2892 23.3848 26.6382V42.0585C23.3848 42.4075 23.1008 42.6914 22.7519 42.6914Z" fill="#0A0A0A"></path><path d="M18.1294 36.2706C18.0466 36.2706 17.9993 36.2706 17.9845 36.2677C17.6355 36.2499 17.3664 35.9542 17.3841 35.6052C17.4019 35.2562 17.6976 34.996 18.0436 35.0048C18.0614 35.0048 19.9128 35.0758 21.0958 33.9431C21.776 33.2925 22.1191 32.349 22.1191 31.1364C22.1191 30.7875 22.403 30.5035 22.752 30.5035C23.101 30.5035 23.3849 30.7875 23.3849 31.1364C23.3849 32.7128 22.9058 33.9668 21.9623 34.8629C20.5871 36.1701 18.6706 36.2677 18.1294 36.2677V36.2706Z" fill="#0A0A0A"></path><path d="M18.1294 39.5861C18.0466 39.5861 17.9993 39.5861 17.9845 39.5831C17.6355 39.5654 17.3664 39.2696 17.3841 38.9206C17.4019 38.5717 17.6976 38.3144 18.0436 38.3203C18.0614 38.3203 19.9128 38.3883 21.0958 37.2585C21.776 36.6079 22.1191 35.6644 22.1191 34.4519C22.1191 34.1029 22.403 33.819 22.752 33.819C23.101 33.819 23.3849 34.1029 23.3849 34.4519C23.3849 36.0282 22.9058 37.2822 21.9623 38.1783C20.5871 39.4855 18.6706 39.5831 18.1294 39.5831V39.5861Z" fill="#0A0A0A"></path><path d="M22.8585 42.6914C22.5095 42.6914 22.2256 42.4075 22.2256 42.0585V26.6382C22.2256 26.2892 22.5095 26.0052 22.8585 26.0052C23.2075 26.0052 23.4914 26.2892 23.4914 26.6382C23.4914 30.7786 26.5139 31.518 26.6411 31.5476C26.9783 31.6245 27.1942 31.9616 27.1173 32.3017C27.0433 32.6419 26.7091 32.8548 26.369 32.7809C26.3424 32.7749 24.698 32.3934 23.4884 30.8112V42.0585C23.4884 42.4075 23.2045 42.6914 22.8555 42.6914H22.8585Z" fill="#0A0A0A"></path><path d="M27.484 36.2707C26.9428 36.2707 25.0263 36.1731 23.6511 34.8659C22.7076 33.9669 22.2285 32.7129 22.2285 31.1395C22.2285 30.7905 22.5124 30.5066 22.8614 30.5066C23.2104 30.5066 23.4943 30.7905 23.4943 31.1395C23.4943 32.3521 23.8374 33.2955 24.5176 33.9462C25.7006 35.0789 27.549 35.0109 27.5697 35.0079C27.898 34.9931 28.2115 35.2622 28.2293 35.6083C28.247 35.9543 27.9779 36.25 27.6318 36.2678C27.62 36.2678 27.5697 36.2707 27.4869 36.2707H27.484Z" fill="#0A0A0A"></path><path d="M27.484 39.5861C26.9428 39.5861 25.0263 39.4885 23.6511 38.1812C22.7076 37.2822 22.2285 36.0282 22.2285 34.4548C22.2285 34.1058 22.5124 33.8219 22.8614 33.8219C23.2104 33.8219 23.4943 34.1058 23.4943 34.4548C23.4943 35.6674 23.8374 36.6108 24.5176 37.2615C25.7006 38.3942 27.549 38.3262 27.5697 38.3232C27.898 38.3055 28.2115 38.5775 28.2293 38.9236C28.247 39.2726 27.9779 39.5653 27.6318 39.5831C27.62 39.5831 27.5697 39.5861 27.4869 39.5861H27.484Z" fill="#0A0A0A"></path><path d="M23.5507 24.0297C23.388 24.0297 23.2253 23.9676 23.1011 23.8433C22.8527 23.5949 22.8527 23.1927 23.1011 22.9413L26.5466 19.4958L25.5765 18.8156C25.4287 18.7121 25.3311 18.5494 25.3104 18.372C25.2867 18.1916 25.3429 18.0112 25.4612 17.8751L29.7614 12.9361C29.9921 12.6729 30.3943 12.6433 30.6605 12.874C30.9266 13.1047 30.9533 13.5069 30.7226 13.7731L26.8867 18.1768L27.9011 18.8866C28.0549 18.996 28.1525 19.1646 28.1703 19.3539C28.185 19.5402 28.12 19.7265 27.9869 19.8596L24.0032 23.8433C23.8789 23.9676 23.7163 24.0297 23.5536 24.0297H23.5507Z" fill="#0A0A0A"></path><path d="M53.0279 43.2888H0.766113C0.496981 43.2888 0.248553 43.1439 0.118423 42.9073C-0.0117061 42.6736 -0.00579123 42.3838 0.139126 42.1561L2.75946 37.9653C2.97536 37.6193 3.43081 37.5128 3.7798 37.7317C4.12582 37.9476 4.23229 38.403 4.01344 38.752L2.09994 41.8101H51.6941L26.8955 2.13531L16.5502 18.6854C16.3343 19.0315 15.8789 19.1379 15.5299 18.9191C15.1839 18.7032 15.0774 18.2477 15.2963 17.8987L26.2686 0.346026C26.4046 0.13013 26.6412 0 26.8955 0C27.1499 0 27.3865 0.13013 27.5225 0.346026L53.6549 42.1561C53.7969 42.3838 53.8058 42.6707 53.6756 42.9073C53.5455 43.1439 53.2971 43.2888 53.0279 43.2888Z" fill="#0A0A0A"></path></g><path d="M68.1126 19.4782C66.9834 19.4782 65.9279 19.2736 64.946 18.8645C63.9641 18.4554 63.1008 17.854 62.3562 17.0603C61.6116 16.2666 61.0266 15.2888 60.6011 14.1269C60.1756 12.9568 59.9629 11.619 59.9629 10.1134C59.9629 8.5997 60.1715 7.26596 60.5888 6.11225C61.0143 4.95035 61.5994 3.97664 62.344 3.19113C63.0886 2.40562 63.9518 1.8124 64.9337 1.41146C65.9156 1.01053 66.9752 0.810057 68.1126 0.810057C69.2417 0.810057 70.2973 1.01053 71.2791 1.41146C72.2692 1.8124 73.1365 2.40562 73.8811 3.19113C74.6257 3.97664 75.2067 4.95035 75.624 6.11225C76.0413 7.26596 76.2499 8.5997 76.2499 10.1134C76.2499 11.619 76.0372 12.9568 75.6117 14.1269C75.1944 15.2888 74.6094 16.2666 73.8566 17.0603C73.112 17.854 72.2447 18.4554 71.2546 18.8645C70.2727 19.2736 69.2254 19.4782 68.1126 19.4782ZM68.1126 16.4221C68.8735 16.4221 69.5772 16.2134 70.2236 15.7961C70.8782 15.3788 71.4019 14.7079 71.7946 13.7832C72.1874 12.8504 72.3838 11.6272 72.3838 10.1134C72.3838 8.59151 72.1833 7.37234 71.7824 6.45591C71.3896 5.53948 70.87 4.8808 70.2236 4.47986C69.5772 4.07074 68.8735 3.86618 68.1126 3.86618C67.3516 3.86618 66.6438 4.07074 65.9892 4.47986C65.3428 4.8808 64.8232 5.53948 64.4305 6.45591C64.0377 7.37234 63.8413 8.59151 63.8413 10.1134C63.8413 11.6354 64.0377 12.8586 64.4305 13.7832C64.8232 14.7079 65.3428 15.3788 65.9892 15.7961C66.6438 16.2134 67.3516 16.4221 68.1126 16.4221Z" fill="black"></path><path d="M83.3832 19.4291C82.4586 19.4291 81.6976 19.2818 81.1003 18.9872C80.503 18.6845 80.0325 18.2795 79.6888 17.7722C79.3452 17.2648 79.1038 16.7003 78.9647 16.0784C78.8256 15.4565 78.7561 14.8265 78.7561 14.1883C78.7561 13.8937 78.7561 13.5828 78.7561 13.2555C78.7561 12.9282 78.7561 12.5927 78.7561 12.249V6.14907H82.5609V11.6476C82.5609 11.9258 82.5609 12.1959 82.5609 12.4577C82.5609 12.7195 82.5609 12.9609 82.5609 13.1818C82.5609 13.7301 82.6222 14.2333 82.745 14.6915C82.8677 15.1497 83.0927 15.5179 83.42 15.7961C83.7555 16.0743 84.2301 16.2134 84.8438 16.2134C85.4411 16.2134 85.9484 16.0457 86.3657 15.7102C86.783 15.3665 87.1021 14.9288 87.323 14.3969C87.5439 13.8651 87.6544 13.3168 87.6544 12.7523L88.7222 13.6237C88.7222 14.4419 88.5954 15.2029 88.3417 15.9066C88.0963 16.6103 87.7444 17.228 87.2862 17.7599C86.828 18.2836 86.2675 18.6927 85.6047 18.9872C84.9501 19.2818 84.2096 19.4291 83.3832 19.4291ZM87.6544 19.1836V6.14907H91.4592V19.1836H87.6544Z" fill="black"></path><path d="M100.721 19.4536C100.221 19.4536 99.706 19.4086 99.1741 19.3186C98.6505 19.2368 98.1595 19.0691 97.7013 18.8154C97.2513 18.5536 96.8871 18.1731 96.6089 17.674C96.3307 17.1748 96.1916 16.5162 96.1916 15.6979C96.1916 15.5179 96.1916 15.3338 96.1916 15.1456C96.1916 14.9574 96.1916 14.7692 96.1916 14.581V9.09473H93.1846V6.14907H94.0315C94.5224 6.14907 94.9111 6.12861 95.1975 6.0877C95.4921 6.04679 95.7089 5.94451 95.848 5.78086C95.9953 5.60903 96.0894 5.3431 96.1303 4.98308C96.1712 4.62305 96.1916 4.12802 96.1916 3.49797V1.85331H100.009V6.14907H103.801V9.09473H100.009V13.7832C100.009 13.9305 100.009 14.0737 100.009 14.2128C100.009 14.3519 100.009 14.4869 100.009 14.6178C100.009 15.1824 100.074 15.6406 100.205 15.9925C100.344 16.3443 100.684 16.5203 101.224 16.5203C101.494 16.5203 101.747 16.4957 101.985 16.4466C102.23 16.3975 102.414 16.3484 102.537 16.2993V19.1591C102.365 19.2327 102.124 19.2982 101.813 19.3554C101.502 19.4209 101.138 19.4536 100.721 19.4536Z" fill="black"></path><path d="M111.246 19.4782C110.158 19.4782 109.155 19.2204 108.239 18.7049C107.322 18.1813 106.586 17.408 106.03 16.3852C105.473 15.3624 105.195 14.1024 105.195 12.605C105.195 11.1731 105.477 9.95797 106.042 8.95972C106.615 7.96147 107.359 7.2046 108.276 6.68911C109.2 6.16543 110.19 5.9036 111.246 5.9036C112.277 5.9036 113.218 6.16543 114.069 6.68911C114.928 7.21278 115.615 7.92874 116.131 8.83698C116.646 9.73705 116.904 10.7762 116.904 11.9545C116.904 11.9954 116.904 12.0363 116.904 12.0772C116.904 12.1099 116.904 12.1468 116.904 12.1877L115.259 12.2122C115.259 12.1877 115.259 12.1631 115.259 12.1386C115.259 12.1059 115.259 12.0772 115.259 12.0527C115.259 11.439 115.112 10.9112 114.817 10.4694C114.523 10.0275 114.142 9.68795 113.676 9.45066C113.21 9.20519 112.723 9.08246 112.215 9.08246C111.373 9.08246 110.644 9.36475 110.031 9.92933C109.417 10.4857 109.11 11.3776 109.11 12.605C109.11 13.8323 109.417 14.7365 110.031 15.3174C110.653 15.8902 111.381 16.1766 112.215 16.1766C112.739 16.1766 113.234 16.0539 113.7 15.8084C114.167 15.5547 114.543 15.1988 114.83 14.7406C115.116 14.2824 115.259 13.7423 115.259 13.1205L116.904 13.2064C116.904 14.3765 116.65 15.4361 116.143 16.3852C115.644 17.3262 114.965 18.079 114.106 18.6436C113.255 19.2 112.301 19.4782 111.246 19.4782ZM115.259 19.1836V0H119.076V19.1836H115.259Z" fill="black"></path><path d="M128.507 19.4659C127.099 19.4659 125.86 19.1754 124.788 18.5945C123.716 18.0135 122.877 17.2158 122.272 16.2011C121.675 15.1783 121.376 14.0001 121.376 12.6663C121.376 11.3408 121.675 10.1707 122.272 9.1561C122.877 8.1333 123.716 7.33961 124.788 6.77502C125.86 6.20225 127.099 5.91587 128.507 5.91587C129.914 5.91587 131.154 6.20225 132.226 6.77502C133.298 7.33961 134.132 8.1333 134.73 9.1561C135.335 10.1707 135.638 11.3408 135.638 12.6663C135.638 14.0001 135.335 15.1783 134.73 16.2011C134.132 17.2158 133.298 18.0135 132.226 18.5945C131.154 19.1754 129.914 19.4659 128.507 19.4659ZM128.507 16.4466C129.17 16.4466 129.746 16.2911 130.237 15.9802C130.728 15.6693 131.109 15.2315 131.379 14.6669C131.649 14.0942 131.784 13.4273 131.784 12.6663C131.784 11.9054 131.649 11.2467 131.379 10.6903C131.109 10.1257 130.728 9.69204 130.237 9.3893C129.746 9.08655 129.17 8.93517 128.507 8.93517C127.852 8.93517 127.275 9.08655 126.776 9.3893C126.285 9.69204 125.905 10.1257 125.635 10.6903C125.365 11.2467 125.23 11.9054 125.23 12.6663C125.23 13.4273 125.365 14.0942 125.635 14.6669C125.905 15.2315 126.285 15.6693 126.776 15.9802C127.275 16.2911 127.852 16.4466 128.507 16.4466Z" fill="black"></path><path d="M144.544 19.4659C143.137 19.4659 141.897 19.1754 140.825 18.5945C139.753 18.0135 138.915 17.2158 138.309 16.2011C137.712 15.1783 137.413 14.0001 137.413 12.6663C137.413 11.3408 137.712 10.1707 138.309 9.1561C138.915 8.1333 139.753 7.33961 140.825 6.77502C141.897 6.20225 143.137 5.91587 144.544 5.91587C145.951 5.91587 147.191 6.20225 148.263 6.77502C149.335 7.33961 150.169 8.1333 150.767 9.1561C151.372 10.1707 151.675 11.3408 151.675 12.6663C151.675 14.0001 151.372 15.1783 150.767 16.2011C150.169 17.2158 149.335 18.0135 148.263 18.5945C147.191 19.1754 145.951 19.4659 144.544 19.4659ZM144.544 16.4466C145.207 16.4466 145.784 16.2911 146.275 15.9802C146.766 15.6693 147.146 15.2315 147.416 14.6669C147.686 14.0942 147.821 13.4273 147.821 12.6663C147.821 11.9054 147.686 11.2467 147.416 10.6903C147.146 10.1257 146.766 9.69204 146.275 9.3893C145.784 9.08655 145.207 8.93517 144.544 8.93517C143.889 8.93517 143.313 9.08655 142.813 9.3893C142.323 9.69204 141.942 10.1257 141.672 10.6903C141.402 11.2467 141.267 11.9054 141.267 12.6663C141.267 13.4273 141.402 14.0942 141.672 14.6669C141.942 15.2315 142.323 15.6693 142.813 15.9802C143.313 16.2911 143.889 16.4466 144.544 16.4466Z" fill="black"></path><path d="M154.052 19.1836V6.14907H157.869V10.6412L157.083 10.1503C157.173 9.53658 157.337 8.97199 157.574 8.4565C157.811 7.94101 158.118 7.49507 158.495 7.11868C158.871 6.73411 159.317 6.43545 159.833 6.22271C160.356 6.00997 160.953 5.9036 161.624 5.9036C162.148 5.9036 162.557 5.94451 162.852 6.02633C163.155 6.09997 163.343 6.15725 163.416 6.19816L162.79 9.61022C162.717 9.56931 162.553 9.50385 162.299 9.41384C162.046 9.32384 161.719 9.27883 161.318 9.27883C160.663 9.27883 160.115 9.3893 159.673 9.61022C159.231 9.83115 158.875 10.1257 158.605 10.4939C158.343 10.8539 158.155 11.2549 158.041 11.6967C157.926 12.1386 157.869 12.5845 157.869 13.0346V19.1836H154.052Z" fill="black"></path><path d="M60.4538 43.7308V25.6273H66.3083C67.5193 25.6273 68.6199 25.8482 69.6099 26.29C70.6082 26.7237 71.4632 27.3415 72.1751 28.1433C72.8952 28.937 73.4475 29.8862 73.832 30.9908C74.2166 32.0954 74.4089 33.3146 74.4089 34.6483C74.4089 35.9821 74.2166 37.2053 73.832 38.3181C73.4475 39.431 72.8952 40.3924 72.1751 41.2024C71.4632 42.0043 70.6082 42.6262 69.6099 43.068C68.6199 43.5099 67.5193 43.7308 66.3083 43.7308H60.4538ZM64.2832 42.6016L62.5649 40.7851H65.8174C66.7011 40.7851 67.4989 40.5397 68.2107 40.0487C68.9308 39.5496 69.4995 38.8418 69.9168 37.9254C70.3341 37.0008 70.5427 35.9084 70.5427 34.6483C70.5427 33.3801 70.3341 32.2959 69.9168 31.3958C69.4995 30.4876 68.9308 29.7921 68.2107 29.3093C67.4989 28.8184 66.7011 28.5729 65.8174 28.5729H62.5649L64.2832 26.7564V42.6016Z" fill="black"></path><path d="M81.3287 44.0008C80.3796 44.0008 79.5327 43.8494 78.7881 43.5467C78.0517 43.2439 77.4748 42.8062 77.0575 42.2334C76.6402 41.6606 76.4316 40.9651 76.4316 40.1469C76.4316 39.2223 76.6852 38.4695 77.1925 37.8886C77.6998 37.3076 78.3708 36.8658 79.2054 36.563C80.0482 36.2521 80.9605 36.0475 81.9424 35.9493C83.3743 35.8102 84.3603 35.6834 84.9003 35.5689C85.4485 35.4543 85.7227 35.2538 85.7227 34.9675C85.7227 34.9593 85.7227 34.9511 85.7227 34.9429C85.7227 34.4601 85.4895 34.0797 85.0231 33.8015C84.5648 33.5233 83.9225 33.3842 83.0961 33.3842C82.2206 33.3842 81.5496 33.5437 81.0832 33.8628C80.625 34.1738 80.3959 34.6524 80.3959 35.2988H76.6525C76.6525 34.2515 76.9348 33.3678 77.4994 32.6477C78.0721 31.9277 78.8454 31.3836 79.8191 31.0154C80.7928 30.639 81.8933 30.4508 83.1207 30.4508C84.2662 30.4508 85.3258 30.6267 86.2995 30.9785C87.2732 31.3222 88.0546 31.8418 88.6438 32.5373C89.2411 33.2328 89.5397 34.1165 89.5397 35.1884C89.5397 35.3602 89.5397 35.532 89.5397 35.7039C89.5397 35.8675 89.5397 36.0353 89.5397 36.2071V40.822C89.5397 41.1574 89.5479 41.4806 89.5643 41.7916C89.5888 42.0943 89.6379 42.3725 89.7116 42.6262C89.7934 42.9126 89.8957 43.1498 90.0184 43.338C90.1412 43.5262 90.2434 43.6572 90.3253 43.7308H86.5818C86.5245 43.6735 86.4345 43.5549 86.3118 43.3749C86.1972 43.1948 86.099 42.9862 86.0172 42.7489C85.919 42.4625 85.8454 42.1761 85.7963 41.8898C85.7554 41.5952 85.7349 41.2515 85.7349 40.8588L86.5204 41.3988C86.2913 41.9389 85.919 42.4052 85.4035 42.798C84.8962 43.1826 84.2907 43.4812 83.5871 43.694C82.8916 43.8985 82.1388 44.0008 81.3287 44.0008ZM82.3474 41.1533C82.9447 41.1533 83.5011 41.047 84.0166 40.8342C84.5403 40.6133 84.9658 40.2696 85.2931 39.8032C85.6204 39.3368 85.784 38.7273 85.784 37.9745V36.6612L86.7291 37.5817C86.1891 37.7781 85.5631 37.9418 84.8512 38.0727C84.1476 38.1954 83.4439 38.2936 82.7402 38.3672C81.9056 38.4491 81.2796 38.5923 80.8623 38.7968C80.4532 38.9932 80.2486 39.3287 80.2486 39.8032C80.2486 40.2533 80.4246 40.5928 80.7764 40.822C81.1282 41.0429 81.6519 41.1533 82.3474 41.1533Z" fill="black"></path><path d="M92.1768 43.7308V30.6962H95.9448V43.7308H92.1768ZM94.0547 28.5729C93.4656 28.5729 92.9501 28.4174 92.5082 28.1065C92.0746 27.7956 91.8577 27.3578 91.8577 26.7932C91.8577 26.2205 92.0746 25.7786 92.5082 25.4677C92.9501 25.1568 93.4656 25.0013 94.0547 25.0013C94.652 25.0013 95.1675 25.1568 95.6012 25.4677C96.043 25.7786 96.2639 26.2205 96.2639 26.7932C96.2639 27.366 96.043 27.8079 95.6012 28.1188C95.1675 28.4215 94.652 28.5729 94.0547 28.5729Z" fill="black"></path><path d="M104.174 44.0254C103.396 44.0254 102.647 43.9354 101.927 43.7553C101.207 43.5753 100.561 43.3094 99.9882 42.9576C99.4236 42.6057 98.9736 42.168 98.6381 41.6443C98.3108 41.1124 98.1472 40.4947 98.1472 39.791C98.1472 39.7582 98.1472 39.7214 98.1472 39.6805C98.1472 39.6314 98.1472 39.5946 98.1472 39.57H101.927C101.927 39.5946 101.927 39.6232 101.927 39.656C101.927 39.6805 101.927 39.7091 101.927 39.7419C101.927 40.2165 102.136 40.5642 102.553 40.7851C102.979 41.0061 103.552 41.1165 104.272 41.1165C104.648 41.1165 105.008 41.0797 105.352 41.0061C105.704 40.9242 105.99 40.7974 106.211 40.6256C106.44 40.4456 106.555 40.2206 106.555 39.9505C106.555 39.5169 106.313 39.21 105.83 39.03C105.356 38.85 104.591 38.67 103.535 38.49C102.938 38.3918 102.332 38.2527 101.719 38.0727C101.105 37.8927 100.541 37.6554 100.025 37.3608C99.5095 37.0581 99.0963 36.6776 98.7854 36.2194C98.4745 35.753 98.319 35.1884 98.319 34.5256C98.319 33.6419 98.5849 32.8973 99.1168 32.2918C99.6568 31.6863 100.373 31.2281 101.265 30.9172C102.157 30.6062 103.138 30.4508 104.21 30.4508C105.233 30.4508 106.186 30.6226 107.07 30.9663C107.954 31.3017 108.67 31.7886 109.218 32.4268C109.766 33.0569 110.04 33.8178 110.04 34.7097C110.04 34.7261 110.04 34.7506 110.04 34.7834C110.04 34.8161 110.04 34.8488 110.04 34.8815H106.297C106.297 34.8488 106.297 34.8202 106.297 34.7956C106.297 34.7711 106.297 34.7506 106.297 34.7343C106.297 34.407 106.19 34.141 105.978 33.9365C105.773 33.7319 105.511 33.5805 105.192 33.4823C104.873 33.376 104.542 33.3228 104.198 33.3228C103.887 33.3228 103.564 33.3596 103.228 33.4333C102.901 33.4987 102.623 33.6133 102.394 33.7769C102.165 33.9324 102.05 34.1533 102.05 34.4397C102.05 34.7179 102.173 34.947 102.418 35.127C102.664 35.2988 103.008 35.442 103.449 35.5566C103.891 35.663 104.403 35.7652 104.984 35.8634C105.532 35.9534 106.109 36.0803 106.714 36.2439C107.328 36.3994 107.901 36.6244 108.432 36.919C108.972 37.2053 109.406 37.5858 109.733 38.0604C110.069 38.5268 110.237 39.12 110.237 39.8401C110.237 40.5847 110.065 41.2229 109.721 41.7547C109.378 42.2866 108.911 42.7203 108.322 43.0557C107.741 43.383 107.091 43.6244 106.37 43.7799C105.659 43.9435 104.926 44.0254 104.174 44.0254Z" fill="black"></path><path d="M113.085 49.3644C112.676 49.3644 112.308 49.348 111.98 49.3153C111.661 49.2907 111.461 49.2621 111.379 49.2294V46.3451C111.485 46.3942 111.67 46.431 111.931 46.4555C112.201 46.4883 112.488 46.5046 112.791 46.5046C113.191 46.5046 113.551 46.4228 113.871 46.2592C114.198 46.1037 114.476 45.8787 114.705 45.5841C114.942 45.2977 115.127 44.9582 115.258 44.5654L115.478 43.9026L110.986 30.6962H114.951L117.786 41.3865H117.344L120.069 30.6962H123.984L119.504 44.3813C119.169 45.4123 118.755 46.3001 118.265 47.0447C117.774 47.7893 117.119 48.362 116.301 48.763C115.483 49.1639 114.411 49.3644 113.085 49.3644Z" fill="black"></path><defs><clipPath id="clip0_510_14"><rect width="53.8263" height="49.0944" fill="white"></rect></clipPath></defs></svg>