<svg xmlns="http://www.w3.org/2000/svg" width="155" height="50" viewBox="0 0 155 50" fill="none"><g clip-path="url(#clip0_510_93)"><path d="M41.5877 45.8922H4.27417V12.4946L22.9309 0.468262L41.5877 12.4946V45.8922Z" fill="#6FE7DB"></path><path d="M17.0471 46.9759H15.5671C15.4361 46.9759 15.315 46.9235 15.2266 46.8253C15.1382 46.7303 15.0923 46.6026 15.1021 46.4749L15.4197 42.1726C15.4394 41.9172 15.6653 41.724 15.9207 41.7403C16.1761 41.76 16.3693 41.9826 16.3529 42.2413L16.0713 46.0427H16.7589L18.7464 42.0023C18.861 41.7698 19.1393 41.6781 19.3718 41.7895C19.6043 41.9041 19.6992 42.1824 19.5846 42.4148L17.4694 46.7172C17.3909 46.8777 17.2271 46.9792 17.0503 46.9792L17.0471 46.9759Z" fill="#0A0A0A"></path><path d="M6.89034 49.0944C6.63167 49.0944 6.42212 48.8848 6.42212 48.6262V14.9045C6.42212 14.6458 6.63167 14.4363 6.89034 14.4363C7.14901 14.4363 7.35529 14.6458 7.35529 14.9045V48.6262C7.35529 48.8848 7.14573 49.0944 6.89034 49.0944Z" fill="#0A0A0A"></path><path d="M36.5388 32.6412C36.5388 32.6412 36.5224 32.6412 36.5159 32.6412C36.2572 32.6281 36.0607 32.4087 36.0738 32.1533C36.0771 32.0813 36.4602 24.8779 38.7751 18.8205C39.8425 16.0275 39.7116 13.693 38.4117 12.4226C37.4687 11.4992 36.0247 11.3061 34.548 11.9085C30.8743 13.4049 26.8568 13.5162 26.6865 13.5195C26.4966 13.5162 22.4758 13.4049 18.8021 11.9085C17.3254 11.3061 15.8814 11.4992 14.9385 12.4226C13.6386 13.693 13.5076 16.0275 14.575 18.8205C16.8899 24.8746 17.273 32.0813 17.2763 32.1533C17.2894 32.412 17.0897 32.6314 16.8343 32.6412C16.5789 32.6575 16.3562 32.4545 16.3464 32.1992C16.3431 32.1271 15.9666 25.0678 13.7041 19.1545C12.4991 15.9981 12.7087 13.3001 14.2869 11.7579C15.5049 10.5661 17.3221 10.3009 19.1557 11.0474C22.6657 12.4782 26.6472 12.5896 26.6865 12.5896C26.7029 12.5896 30.6844 12.475 34.1944 11.0474C36.0247 10.3009 37.8452 10.5693 39.0633 11.7579C40.6414 13.3001 40.8543 15.9981 39.6461 19.1545C37.3868 25.0678 37.0103 32.1304 37.0037 32.1992C36.9906 32.448 36.7844 32.6412 36.5388 32.6412Z" fill="#0A0A0A"></path><path d="M37.4621 32.6412H15.8847C15.6261 32.6412 15.4165 32.4316 15.4165 32.1762C15.4165 31.9208 15.6261 31.708 15.8847 31.708H37.4621C37.7208 31.708 37.9304 31.9176 37.9304 32.1762C37.9304 32.4349 37.7208 32.6412 37.4621 32.6412Z" fill="#0A0A0A"></path><path d="M40.779 42.3232H12.5679C12.3616 42.3232 12.1783 42.1856 12.1193 41.9892L8.73701 30.5194C8.45215 29.547 8.63551 28.5254 9.24125 27.7167C9.84699 26.9046 10.7769 26.4397 11.7886 26.4397C13.1998 26.4397 14.4211 27.3467 14.8304 28.6957L17.4957 37.474H35.8447L38.5099 28.6957C38.9192 27.3467 40.1438 26.4397 41.5517 26.4397C42.5635 26.4397 43.4934 26.9046 44.0991 27.7167C44.7048 28.5287 44.8882 29.5502 44.6033 30.5194L41.221 41.9892C41.1621 42.1889 40.9787 42.3232 40.7724 42.3232H40.779ZM12.9183 41.39H40.4286L43.7127 30.2542C43.9157 29.5666 43.7848 28.8463 43.3558 28.2733C42.9269 27.7003 42.2721 27.3729 41.555 27.3729C40.5596 27.3729 39.6952 28.0146 39.4038 28.9674L36.637 38.0797C36.5781 38.2762 36.3947 38.4104 36.1917 38.4104H17.1519C16.9456 38.4104 16.7655 38.2762 16.7066 38.0797L13.9398 28.9674C13.6517 28.0146 12.7873 27.3729 11.7886 27.3729C11.0748 27.3729 10.4167 27.7003 9.98778 28.2733C9.55885 28.8463 9.43116 29.5666 9.63089 30.2542L12.915 41.39H12.9183Z" fill="#0A0A0A"></path><path d="M37.7799 46.9759H36.2999C36.1231 46.9759 35.9594 46.8744 35.8808 46.714L33.7656 42.4116C33.651 42.1791 33.746 41.9008 33.9785 41.7862C34.2109 41.6716 34.4892 41.7665 34.6038 41.999L36.5913 46.0395H37.2789L36.9973 42.238C36.9777 41.9826 37.1709 41.7567 37.4295 41.7371C37.6849 41.7207 37.9109 41.9106 37.9305 42.1693L38.2481 46.4717C38.2579 46.6026 38.2121 46.727 38.1237 46.822C38.0353 46.917 37.9109 46.9726 37.7832 46.9726L37.7799 46.9759Z" fill="#0A0A0A"></path><path d="M51.3745 49.0943H1.97237C1.7137 49.0943 1.50415 48.8847 1.50415 48.6261C1.50415 48.3674 1.7137 48.1611 1.97237 48.1611H51.3745C51.6332 48.1611 51.8427 48.3707 51.8427 48.6261C51.8427 48.8815 51.6332 49.0943 51.3745 49.0943Z" fill="#0A0A0A"></path><path d="M46.4532 49.0944C46.1946 49.0944 45.9883 48.8848 45.9883 48.6262V14.9045C45.9883 14.6458 46.1978 14.4363 46.4532 14.4363C46.7086 14.4363 46.9214 14.6458 46.9214 14.9045V48.6262C46.9214 48.8848 46.7119 49.0944 46.4532 49.0944Z" fill="#0A0A0A"></path><path d="M52.6417 17.6744C52.5565 17.6744 52.4681 17.6515 52.3895 17.5991L26.6734 1.02152L0.95736 17.5991C0.741258 17.7399 0.453123 17.6777 0.312329 17.4583C0.171536 17.2422 0.233747 16.9541 0.453123 16.8133L26.4213 0.0752579C26.5752 -0.0229701 26.7717 -0.0229701 26.9256 0.0752579L52.8938 16.8166C53.1099 16.9574 53.1721 17.2455 53.0346 17.4616C52.9462 17.5991 52.7955 17.6744 52.6417 17.6744Z" fill="#0A0A0A"></path><path d="M20.0363 18.0478C19.9185 18.0478 19.7973 18.0019 19.7056 17.9103L16.9913 15.1959C16.8079 15.0125 16.8079 14.7179 16.9913 14.5345C17.1746 14.3511 17.4693 14.3511 17.6527 14.5345L20.367 17.2489C20.5504 17.4322 20.5504 17.7269 20.367 17.9103C20.2754 18.0019 20.1575 18.0478 20.0363 18.0478Z" fill="#0A0A0A"></path><path d="M17.3188 18.0478C17.2009 18.0478 17.0798 18.0019 16.9881 17.9103C16.8047 17.7269 16.8047 17.4322 16.9881 17.2489L19.7025 14.5345C19.8858 14.3511 20.1805 14.3511 20.3639 14.5345C20.5472 14.7179 20.5472 15.0125 20.3639 15.1959L17.6495 17.9103C17.5578 18.0019 17.44 18.0478 17.3188 18.0478Z" fill="#0A0A0A"></path><path d="M20.0363 23.1229C19.9185 23.1229 19.7973 23.077 19.7056 22.9853L16.9913 20.271C16.8079 20.0876 16.8079 19.7929 16.9913 19.6096C17.1746 19.4262 17.4693 19.4262 17.6527 19.6096L20.367 22.3239C20.5504 22.5073 20.5504 22.802 20.367 22.9853C20.2754 23.077 20.1575 23.1229 20.0363 23.1229Z" fill="#0A0A0A"></path><path d="M17.3188 23.1229C17.2009 23.1229 17.0798 23.077 16.9881 22.9853C16.8047 22.802 16.8047 22.5073 16.9881 22.3239L19.7025 19.6096C19.8858 19.4262 20.1805 19.4262 20.3639 19.6096C20.5472 19.7929 20.5472 20.0876 20.3639 20.271L17.6495 22.9853C17.5578 23.077 17.44 23.1229 17.3188 23.1229Z" fill="#0A0A0A"></path><path d="M25.0691 18.0478C24.9512 18.0478 24.83 18.0019 24.7384 17.9103L22.024 15.1959C21.8406 15.0125 21.8406 14.7179 22.024 14.5345C22.2074 14.3511 22.502 14.3511 22.6854 14.5345L25.3998 17.2489C25.5831 17.4322 25.5831 17.7269 25.3998 17.9103C25.3081 18.0019 25.1902 18.0478 25.0691 18.0478Z" fill="#0A0A0A"></path><path d="M22.3547 18.0478C22.2368 18.0478 22.1157 18.0019 22.024 17.9103C21.8406 17.7269 21.8406 17.4322 22.024 17.2489L24.7384 14.5345C24.9217 14.3511 25.2164 14.3511 25.3998 14.5345C25.5831 14.7179 25.5831 15.0125 25.3998 15.1959L22.6854 17.9103C22.5937 18.0019 22.4758 18.0478 22.3547 18.0478Z" fill="#0A0A0A"></path><path d="M25.0691 23.1229C24.9512 23.1229 24.83 23.077 24.7384 22.9853L22.024 20.271C21.8406 20.0876 21.8406 19.7929 22.024 19.6096C22.2074 19.4262 22.502 19.4262 22.6854 19.6096L25.3998 22.3239C25.5831 22.5073 25.5831 22.802 25.3998 22.9853C25.3081 23.077 25.1902 23.1229 25.0691 23.1229Z" fill="#0A0A0A"></path><path d="M22.3547 23.1229C22.2368 23.1229 22.1157 23.077 22.024 22.9853C21.8406 22.802 21.8406 22.5073 22.024 22.3239L24.7384 19.6096C24.9217 19.4262 25.2164 19.4262 25.3998 19.6096C25.5831 19.7929 25.5831 20.0876 25.3998 20.271L22.6854 22.9853C22.5937 23.077 22.4758 23.1229 22.3547 23.1229Z" fill="#0A0A0A"></path><path d="M30.0754 17.9659C29.9575 17.9659 29.8364 17.92 29.7447 17.8284L27.0303 15.114C26.847 14.9306 26.847 14.6359 27.0303 14.4526C27.2137 14.2692 27.5084 14.2692 27.6917 14.4526L30.4061 17.1669C30.5895 17.3503 30.5895 17.645 30.4061 17.8284C30.3144 17.92 30.1966 17.9659 30.0754 17.9659Z" fill="#0A0A0A"></path><path d="M27.361 17.9659C27.2432 17.9659 27.122 17.92 27.0303 17.8284C26.847 17.645 26.847 17.3503 27.0303 17.1669L29.7447 14.4526C29.9281 14.2692 30.2228 14.2692 30.4061 14.4526C30.5895 14.6359 30.5895 14.9306 30.4061 15.114L27.6917 17.8284C27.6001 17.92 27.4822 17.9659 27.361 17.9659Z" fill="#0A0A0A"></path><path d="M20.0363 28.0081C19.9185 28.0081 19.7973 27.9623 19.7056 27.8706L16.9913 25.1562C16.8079 24.9729 16.8079 24.6782 16.9913 24.4948C17.1746 24.3115 17.4693 24.3115 17.6527 24.4948L20.367 27.2092C20.5504 27.3925 20.5504 27.6872 20.367 27.8706C20.2754 27.9623 20.1575 28.0081 20.0363 28.0081Z" fill="#0A0A0A"></path><path d="M17.3188 28.0081C17.2009 28.0081 17.0798 27.9623 16.9881 27.8706C16.8047 27.6872 16.8047 27.3925 16.9881 27.2092L19.7025 24.4948C19.8858 24.3115 20.1805 24.3115 20.3639 24.4948C20.5472 24.6782 20.5472 24.9729 20.3639 25.1562L17.6495 27.8706C17.5578 27.9623 17.44 28.0081 17.3188 28.0081Z" fill="#0A0A0A"></path></g><path d="M75.2271 18.7295V0.625953H81.0816C82.2926 0.625953 83.3931 0.846877 84.3832 1.28873C85.3814 1.72239 86.2365 2.34016 86.9484 3.14204C87.6684 3.93573 88.2207 4.88489 88.6053 5.98951C88.9899 7.09413 89.1822 8.31331 89.1822 9.64704C89.1822 10.9808 88.9899 12.204 88.6053 13.3168C88.2207 14.4296 87.6684 15.3911 86.9484 16.2011C86.2365 17.003 85.3814 17.6249 84.3832 18.0667C83.3931 18.5086 82.2926 18.7295 81.0816 18.7295H75.2271ZM79.0565 17.6003L77.3382 15.7838H80.5907C81.4744 15.7838 82.2721 15.5384 82.984 15.0474C83.7041 14.5483 84.2727 13.8405 84.69 12.9241C85.1073 11.9995 85.316 10.9071 85.316 9.64704C85.316 8.37877 85.1073 7.2946 84.69 6.39454C84.2727 5.48629 83.7041 4.79079 82.984 4.30803C82.2721 3.81709 81.4744 3.57161 80.5907 3.57161H77.3382L79.0565 1.75512V17.6003Z" fill="black"></path><path d="M96.102 18.9995C95.1528 18.9995 94.3059 18.8481 93.5613 18.5454C92.8249 18.2426 92.2481 17.8049 91.8308 17.2321C91.4135 16.6594 91.2048 15.9638 91.2048 15.1456C91.2048 14.221 91.4585 13.4682 91.9658 12.8873C92.4731 12.3063 93.144 11.8645 93.9786 11.5617C94.8214 11.2508 95.7338 11.0462 96.7157 10.948C98.1476 10.8089 99.1336 10.6821 99.6736 10.5676C100.222 10.453 100.496 10.2525 100.496 9.96615C100.496 9.95797 100.496 9.94979 100.496 9.94161C100.496 9.45885 100.263 9.07836 99.7963 8.80016C99.3381 8.52196 98.6958 8.38286 97.8694 8.38286C96.9939 8.38286 96.3229 8.54242 95.8565 8.86153C95.3983 9.17246 95.1692 9.65113 95.1692 10.2975H91.4257C91.4257 9.25019 91.708 8.3665 92.2726 7.64644C92.8454 6.92639 93.6186 6.38227 94.5923 6.01406C95.566 5.63767 96.6666 5.44947 97.8939 5.44947C99.0395 5.44947 100.099 5.62539 101.073 5.97724C102.046 6.3209 102.828 6.84048 103.417 7.53598C104.014 8.23149 104.313 9.11518 104.313 10.1871C104.313 10.3589 104.313 10.5307 104.313 10.7026C104.313 10.8662 104.313 11.034 104.313 11.2058V15.8207C104.313 16.1561 104.321 16.4793 104.338 16.7903C104.362 17.093 104.411 17.3712 104.485 17.6249C104.567 17.9113 104.669 18.1485 104.792 18.3367C104.914 18.5249 105.017 18.6559 105.099 18.7295H101.355C101.298 18.6722 101.208 18.5536 101.085 18.3736C100.97 18.1935 100.872 17.9849 100.79 17.7476C100.692 17.4612 100.619 17.1748 100.57 16.8885C100.529 16.5939 100.508 16.2502 100.508 15.8575L101.294 16.3975C101.065 16.9376 100.692 17.4039 100.177 17.7967C99.6695 18.1813 99.064 18.4799 98.3603 18.6927C97.6648 18.8972 96.912 18.9995 96.102 18.9995ZM97.1207 16.152C97.718 16.152 98.2744 16.0457 98.7899 15.8329C99.3136 15.612 99.739 15.2683 100.066 14.8019C100.394 14.3356 100.557 13.726 100.557 12.9732V11.6599L101.502 12.5804C100.962 12.7768 100.336 12.9405 99.6245 13.0714C98.9208 13.1941 98.2171 13.2923 97.5134 13.3659C96.6788 13.4478 96.0529 13.591 95.6356 13.7955C95.2265 13.9919 95.0219 14.3274 95.0219 14.8019C95.0219 15.252 95.1978 15.5915 95.5497 15.8207C95.9015 16.0416 96.4252 16.152 97.1207 16.152Z" fill="black"></path><path d="M106.95 18.7295V5.69494H110.718V18.7295H106.95ZM108.828 3.57161C108.239 3.57161 107.723 3.41615 107.281 3.10522C106.848 2.79429 106.631 2.35653 106.631 1.79194C106.631 1.21918 106.848 0.777327 107.281 0.466396C107.723 0.155465 108.239 0 108.828 0C109.425 0 109.941 0.155465 110.374 0.466396C110.816 0.777327 111.037 1.21918 111.037 1.79194C111.037 2.36471 110.816 2.80656 110.374 3.11749C109.941 3.42024 109.425 3.57161 108.828 3.57161Z" fill="black"></path><path d="M118.947 19.0241C118.169 19.0241 117.421 18.9341 116.701 18.754C115.981 18.574 115.334 18.3081 114.761 17.9563C114.197 17.6044 113.747 17.1667 113.411 16.643C113.084 16.1111 112.92 15.4934 112.92 14.7897C112.92 14.7569 112.92 14.7201 112.92 14.6792C112.92 14.6301 112.92 14.5933 112.92 14.5687H116.701C116.701 14.5933 116.701 14.6219 116.701 14.6547C116.701 14.6792 116.701 14.7078 116.701 14.7406C116.701 15.2152 116.909 15.5629 117.327 15.7838C117.752 16.0048 118.325 16.1152 119.045 16.1152C119.421 16.1152 119.781 16.0784 120.125 16.0048C120.477 15.9229 120.763 15.7961 120.984 15.6243C121.213 15.4443 121.328 15.2192 121.328 14.9492C121.328 14.5156 121.086 14.2087 120.604 14.0287C120.129 13.8487 119.364 13.6687 118.309 13.4887C117.711 13.3905 117.106 13.2514 116.492 13.0714C115.878 12.8914 115.314 12.6541 114.798 12.3595C114.283 12.0568 113.87 11.6763 113.559 11.2181C113.248 10.7517 113.092 10.1871 113.092 9.5243C113.092 8.64061 113.358 7.89601 113.89 7.29051C114.43 6.68501 115.146 6.2268 116.038 5.91587C116.93 5.60494 117.912 5.44947 118.984 5.44947C120.006 5.44947 120.96 5.6213 121.843 5.96496C122.727 6.30044 123.443 6.78729 123.991 7.42552C124.539 8.05556 124.814 8.81653 124.814 9.70841C124.814 9.72477 124.814 9.74932 124.814 9.78205C124.814 9.81478 124.814 9.84751 124.814 9.88024H121.07C121.07 9.84751 121.07 9.81887 121.07 9.79432C121.07 9.76978 121.07 9.74932 121.07 9.73295C121.07 9.40566 120.964 9.13973 120.751 8.93517C120.546 8.73061 120.285 8.57924 119.965 8.48105C119.646 8.37468 119.315 8.32149 118.971 8.32149C118.66 8.32149 118.337 8.35831 118.002 8.43195C117.674 8.49741 117.396 8.61197 117.167 8.77562C116.938 8.93108 116.823 9.15201 116.823 9.43839C116.823 9.71659 116.946 9.9457 117.192 10.1257C117.437 10.2975 117.781 10.4407 118.223 10.5553C118.664 10.6617 119.176 10.7639 119.757 10.8621C120.305 10.9521 120.882 11.079 121.487 11.2426C122.101 11.3981 122.674 11.6231 123.206 11.9177C123.746 12.204 124.179 12.5845 124.507 13.0591C124.842 13.5255 125.01 14.1187 125.01 14.8388C125.01 15.5834 124.838 16.2216 124.494 16.7534C124.151 17.2853 123.684 17.719 123.095 18.0544C122.514 18.3817 121.864 18.6231 121.144 18.7786C120.432 18.9422 119.7 19.0241 118.947 19.0241Z" fill="black"></path><path d="M127.858 24.3631C127.449 24.3631 127.081 24.3467 126.754 24.314C126.435 24.2894 126.234 24.2608 126.152 24.2281V21.3438C126.259 21.3929 126.443 21.4297 126.705 21.4542C126.975 21.487 127.261 21.5033 127.564 21.5033C127.965 21.5033 128.325 21.4215 128.644 21.2579C128.971 21.1024 129.249 20.8774 129.478 20.5828C129.716 20.2964 129.9 19.9569 130.031 19.5641L130.252 18.9013L125.76 5.69494H129.724L132.559 16.3852H132.117L134.842 5.69494H138.757L134.277 19.38C133.942 20.411 133.529 21.2988 133.038 22.0434C132.547 22.788 131.892 23.3607 131.074 23.7617C130.256 24.1626 129.184 24.3631 127.858 24.3631Z" fill="black"></path><path d="M77.24 43.2767L74.5889 25.1731H78.5041L80.4311 42.4543L79.8788 42.4298L82.9472 25.1731H87.6971L90.7532 42.4298L90.2009 42.4543L92.1278 25.1731H96.0431L93.392 43.2767H87.5498L85.1319 27.8119H85.5246L83.0822 43.2767H77.24Z" fill="black"></path><path d="M104.182 43.559C102.775 43.559 101.535 43.2685 100.463 42.6875C99.3912 42.1066 98.5525 41.3088 97.947 40.2942C97.3497 39.2714 97.0511 38.0931 97.0511 36.7594C97.0511 35.4338 97.3497 34.2638 97.947 33.2492C98.5525 32.2264 99.3912 31.4327 100.463 30.8681C101.535 30.2953 102.775 30.0089 104.182 30.0089C105.589 30.0089 106.829 30.2953 107.901 30.8681C108.973 31.4327 109.807 32.2264 110.405 33.2492C111.01 34.2638 111.313 35.4338 111.313 36.7594C111.313 38.0931 111.01 39.2714 110.405 40.2942C109.807 41.3088 108.973 42.1066 107.901 42.6875C106.829 43.2685 105.589 43.559 104.182 43.559ZM104.182 40.5397C104.845 40.5397 105.422 40.3842 105.913 40.0733C106.404 39.7623 106.784 39.3246 107.054 38.76C107.324 38.1872 107.459 37.5204 107.459 36.7594C107.459 35.9984 107.324 35.3398 107.054 34.7834C106.784 34.2188 106.404 33.7851 105.913 33.4823C105.422 33.1796 104.845 33.0282 104.182 33.0282C103.527 33.0282 102.951 33.1796 102.451 33.4823C101.961 33.7851 101.58 34.2188 101.31 34.7834C101.04 35.3398 100.905 35.9984 100.905 36.7594C100.905 37.5204 101.04 38.1872 101.31 38.76C101.58 39.3246 101.961 39.7623 102.451 40.0733C102.951 40.3842 103.527 40.5397 104.182 40.5397Z" fill="black"></path><path d="M120.219 43.559C118.812 43.559 117.572 43.2685 116.5 42.6875C115.428 42.1066 114.59 41.3088 113.984 40.2942C113.387 39.2714 113.088 38.0931 113.088 36.7594C113.088 35.4338 113.387 34.2638 113.984 33.2492C114.59 32.2264 115.428 31.4327 116.5 30.8681C117.572 30.2953 118.812 30.0089 120.219 30.0089C121.627 30.0089 122.866 30.2953 123.938 30.8681C125.01 31.4327 125.845 32.2264 126.442 33.2492C127.047 34.2638 127.35 35.4338 127.35 36.7594C127.35 38.0931 127.047 39.2714 126.442 40.2942C125.845 41.3088 125.01 42.1066 123.938 42.6875C122.866 43.2685 121.627 43.559 120.219 43.559ZM120.219 40.5397C120.882 40.5397 121.459 40.3842 121.95 40.0733C122.441 39.7623 122.821 39.3246 123.091 38.76C123.361 38.1872 123.496 37.5204 123.496 36.7594C123.496 35.9984 123.361 35.3398 123.091 34.7834C122.821 34.2188 122.441 33.7851 121.95 33.4823C121.459 33.1796 120.882 33.0282 120.219 33.0282C119.565 33.0282 118.988 33.1796 118.489 33.4823C117.998 33.7851 117.617 34.2188 117.347 34.7834C117.077 35.3398 116.942 35.9984 116.942 36.7594C116.942 37.5204 117.077 38.1872 117.347 38.76C117.617 39.3246 117.998 39.7623 118.489 40.0733C118.988 40.3842 119.565 40.5397 120.219 40.5397Z" fill="black"></path><path d="M138.907 43.2767V37.7413C138.907 37.4304 138.907 37.1481 138.907 36.8944C138.907 36.6408 138.907 36.4116 138.907 36.2071C138.907 35.667 138.838 35.1761 138.699 34.7343C138.56 34.2842 138.31 33.9242 137.95 33.6542C137.59 33.3842 137.071 33.2492 136.391 33.2492C135.802 33.2492 135.291 33.3842 134.857 33.6542C134.432 33.9242 134.104 34.3006 133.875 34.7834C133.646 35.2661 133.532 35.8225 133.532 36.4526L132.476 35.6916C132.476 34.5624 132.722 33.5724 133.213 32.7214C133.703 31.8704 134.366 31.2036 135.201 30.7208C136.044 30.238 136.976 29.9966 137.999 29.9966C139.071 29.9966 139.951 30.2135 140.638 30.6472C141.334 31.0726 141.849 31.67 142.185 32.4391C142.528 33.2001 142.7 34.0919 142.7 35.1147C142.7 35.532 142.7 35.9984 142.7 36.5139C142.7 37.0294 142.7 37.5572 142.7 38.0972V43.2767H138.907ZM129.727 43.2767V30.2421H133.532V43.2767H129.727Z" fill="black"></path><path d="M151.667 43.5467C151.168 43.5467 150.653 43.5017 150.121 43.4117C149.597 43.3299 149.106 43.1621 148.648 42.9085C148.198 42.6466 147.834 42.2661 147.556 41.767C147.278 41.2679 147.138 40.6092 147.138 39.791C147.138 39.611 147.138 39.4269 147.138 39.2387C147.138 39.0505 147.138 38.8623 147.138 38.6741V33.1878H144.131V30.2421H144.978C145.469 30.2421 145.858 30.2217 146.144 30.1808C146.439 30.1398 146.656 30.0376 146.795 29.8739C146.942 29.7021 147.036 29.4362 147.077 29.0761C147.118 28.7161 147.138 28.2211 147.138 27.591V25.9464H150.956V30.2421H154.748V33.1878H150.956V37.8763C150.956 38.0236 150.956 38.1668 150.956 38.3059C150.956 38.445 150.956 38.58 150.956 38.7109C150.956 39.2755 151.021 39.7337 151.152 40.0855C151.291 40.4374 151.631 40.6133 152.171 40.6133C152.441 40.6133 152.694 40.5888 152.932 40.5397C153.177 40.4906 153.361 40.4415 153.484 40.3924V43.2521C153.312 43.3258 153.071 43.3912 152.76 43.4485C152.449 43.514 152.085 43.5467 151.667 43.5467Z" fill="black"></path><defs><clipPath id="clip0_510_93"><rect width="52.8729" height="49.0944" fill="white" transform="translate(0.237061)"></rect></clipPath></defs></svg>