<svg xmlns="http://www.w3.org/2000/svg" width="154" height="50" viewBox="0 0 154 50" fill="none"><g clip-path="url(#clip0_510_3)"><path d="M35.2281 49.0944C48.7851 49.0944 59.7753 38.1042 59.7753 24.5472C59.7753 10.9901 48.7851 0 35.2281 0C21.6711 0 10.6809 10.9901 10.6809 24.5472C10.6809 38.1042 21.6711 49.0944 35.2281 49.0944Z" fill="#FBC418"></path><path d="M7.95171 13.0184L12.2998 13.1561C12.8078 13.2594 13.1952 13.6985 13.2124 14.241C13.2297 14.8523 12.7647 15.3603 12.1706 15.4119L10.3367 15.4722C10.3367 15.4722 10.2936 15.4722 10.2678 15.4808C9.63067 15.5411 9.1399 16.0749 9.15712 16.7293C9.17434 17.4009 9.7426 17.9347 10.4142 17.9088L16.5445 17.7194C16.6306 17.7194 16.7167 17.7022 16.8028 17.685L39.7657 16.9359C40.2823 16.9015 40.8076 16.9187 41.3242 17.0048C43.8383 17.4439 44.8198 18.4427 46.714 19.8289C48.6082 21.2151 50.9588 21.8436 53.2835 21.7747C56.7533 21.6714 60.6278 20.2336 62.677 17.2975C63.3055 16.3935 63.6327 15.3431 63.65 14.284C63.6241 13.225 63.3055 12.1746 62.677 11.2705C60.6278 8.3345 56.7533 6.88801 53.2835 6.7933C50.9588 6.72442 48.5996 7.35295 46.714 8.73917C44.8198 10.1254 43.8383 11.1241 41.3242 11.5633C40.8076 11.6494 40.2823 11.6666 39.7657 11.6321L16.8028 10.8831C16.7167 10.8658 16.6306 10.8486 16.5445 10.8486L8.0292 10.5817C7.35762 10.5645 6.78936 11.0897 6.77214 11.7613C6.75492 12.4329 7.28013 13.0011 7.95171 13.0184Z" fill="#0A0A0A"></path><path d="M1.49429 18.2188L6.25563 18.0724C6.92722 18.0552 7.46104 17.4869 7.43521 16.8154C7.41799 16.1438 6.84973 15.61 6.17814 15.6358L1.4168 15.7822C0.745219 15.7994 0.211397 16.3676 0.237227 17.0392C0.263058 17.7108 0.822709 18.2446 1.49429 18.2188Z" fill="#0A0A0A"></path><path d="M56.5725 35.0342L52.2244 34.8964C51.7164 34.7931 51.329 34.354 51.3118 33.8115C51.2946 33.2002 51.7595 32.6922 52.3536 32.6406L54.1875 32.5803C54.1875 32.5803 54.2306 32.5803 54.2564 32.5717C54.8935 32.5114 55.3843 31.9776 55.3671 31.3232C55.3499 30.6517 54.7816 30.1178 54.11 30.1437L47.9797 30.3331C47.8936 30.3331 47.7989 30.3503 47.7214 30.3675L24.7585 31.1166C24.2419 31.151 23.7167 31.1338 23.2001 31.0477C20.1952 30.402 17.9221 27.0182 13.5913 27.0182C13.3244 27.0182 13.0661 27.0096 12.7991 27.0354L0.848437 28.2667C0.495426 28.3011 0.228516 28.5939 0.228516 28.9469C0.228516 29.2999 0.521256 29.6012 0.882877 29.6012H12.7733C12.7733 29.6012 12.7991 29.6098 12.7991 29.6271V30.7205L0.891487 31.3146C0.529866 31.3146 0.237126 31.6074 0.237126 31.969C0.237126 32.3306 0.504036 32.6147 0.857047 32.6492L12.8078 33.2433V34.2851L0.891487 34.8792C0.529866 34.8792 0.237126 35.1719 0.237126 35.5335C0.237126 35.8952 0.504036 36.1793 0.857047 36.2137L12.7991 36.8078V37.9013C12.7991 37.9013 12.7905 37.9271 12.7733 37.9271H0.891487C0.529866 37.9271 0.237126 38.2199 0.237126 38.5815C0.237126 38.9431 0.504036 39.2272 0.857047 39.2617L12.8078 40.4929C13.0747 40.5187 13.3416 40.5187 13.5999 40.5015C17.9307 40.5187 20.2038 37.135 23.2087 36.4806C23.7253 36.3945 24.2505 36.3773 24.7671 36.4118L47.73 37.1608C47.8161 37.1781 47.9022 37.1953 47.9883 37.1953L56.5036 37.4622C57.1752 37.4794 57.7435 36.9542 57.7607 36.2826C57.7779 35.611 57.2527 35.0428 56.5811 35.0255L56.5725 35.0342Z" fill="#0A0A0A"></path><path d="M63.03 29.8423L58.2686 29.9887C57.597 30.0059 57.0632 30.5742 57.089 31.2458C57.1063 31.9173 57.6745 32.4512 58.3461 32.4253L63.1074 32.279C63.779 32.2617 64.3128 31.6935 64.287 31.0219C64.2698 30.3503 63.7015 29.8165 63.03 29.8423Z" fill="#0A0A0A"></path><path d="M62.1605 35.215L60.8432 35.1719C60.1716 35.1547 59.6033 35.6799 59.5861 36.3515C59.5689 37.0231 60.0941 37.5913 60.7657 37.6086L62.083 37.6516C62.7546 37.6688 63.3229 37.1436 63.3401 36.472C63.3573 35.8005 62.8321 35.2322 62.1605 35.215Z" fill="#0A0A0A"></path><path d="M68.9536 29.6615L67.6363 29.7046C66.9647 29.7218 66.4309 30.2901 66.4567 30.9617C66.4739 31.6332 67.0422 32.1671 67.7138 32.1412L69.0311 32.0982C69.7027 32.081 70.2365 31.5127 70.2107 30.8411C70.1935 30.1695 69.6252 29.6357 68.9536 29.6615Z" fill="#0A0A0A"></path></g><path d="M82.4844 18.7295V0.625953H88.3389C89.5499 0.625953 90.6504 0.846877 91.6405 1.28873C92.6387 1.72239 93.4938 2.34016 94.2057 3.14204C94.9257 3.93573 95.478 4.88489 95.8626 5.98951C96.2472 7.09413 96.4394 8.31331 96.4394 9.64704C96.4394 10.9808 96.2472 12.204 95.8626 13.3168C95.478 14.4296 94.9257 15.3911 94.2057 16.2011C93.4938 17.003 92.6387 17.6249 91.6405 18.0667C90.6504 18.5086 89.5499 18.7295 88.3389 18.7295H82.4844ZM86.3137 17.6003L84.5954 15.7838H87.8479C88.7316 15.7838 89.5294 15.5384 90.2413 15.0474C90.9613 14.5483 91.53 13.8405 91.9473 12.9241C92.3646 11.9995 92.5733 10.9071 92.5733 9.64704C92.5733 8.37877 92.3646 7.2946 91.9473 6.39454C91.53 5.48629 90.9613 4.79079 90.2413 4.30803C89.5294 3.81709 88.7316 3.57161 87.8479 3.57161H84.5954L86.3137 1.75512V17.6003Z" fill="black"></path><path d="M103.359 18.9995C102.41 18.9995 101.563 18.8481 100.819 18.5454C100.082 18.2426 99.5054 17.8049 99.088 17.2321C98.6707 16.6594 98.4621 15.9638 98.4621 15.1456C98.4621 14.221 98.7157 13.4682 99.2231 12.8873C99.7304 12.3063 100.401 11.8645 101.236 11.5617C102.079 11.2508 102.991 11.0462 103.973 10.948C105.405 10.8089 106.391 10.6821 106.931 10.5676C107.479 10.453 107.753 10.2525 107.753 9.96615C107.753 9.95797 107.753 9.94979 107.753 9.94161C107.753 9.45885 107.52 9.07836 107.054 8.80016C106.595 8.52196 105.953 8.38286 105.127 8.38286C104.251 8.38286 103.58 8.54242 103.114 8.86153C102.656 9.17246 102.426 9.65113 102.426 10.2975H98.683C98.683 9.25019 98.9653 8.3665 99.5299 7.64644C100.103 6.92639 100.876 6.38227 101.85 6.01406C102.823 5.63767 103.924 5.44947 105.151 5.44947C106.297 5.44947 107.356 5.62539 108.33 5.97724C109.304 6.3209 110.085 6.84048 110.674 7.53598C111.272 8.23149 111.57 9.11518 111.57 10.1871C111.57 10.3589 111.57 10.5307 111.57 10.7026C111.57 10.8662 111.57 11.034 111.57 11.2058V15.8207C111.57 16.1561 111.578 16.4793 111.595 16.7903C111.619 17.093 111.668 17.3712 111.742 17.6249C111.824 17.9113 111.926 18.1485 112.049 18.3367C112.172 18.5249 112.274 18.6559 112.356 18.7295H108.612C108.555 18.6722 108.465 18.5536 108.342 18.3736C108.228 18.1935 108.13 17.9849 108.048 17.7476C107.95 17.4612 107.876 17.1748 107.827 16.8885C107.786 16.5939 107.765 16.2502 107.765 15.8575L108.551 16.3975C108.322 16.9376 107.95 17.4039 107.434 17.7967C106.927 18.1813 106.321 18.4799 105.618 18.6927C104.922 18.8972 104.169 18.9995 103.359 18.9995ZM104.378 16.152C104.975 16.152 105.532 16.0457 106.047 15.8329C106.571 15.612 106.996 15.2683 107.324 14.8019C107.651 14.3356 107.815 13.726 107.815 12.9732V11.6599L108.76 12.5804C108.22 12.7768 107.594 12.9405 106.882 13.0714C106.178 13.1941 105.474 13.2923 104.771 13.3659C103.936 13.4478 103.31 13.591 102.893 13.7955C102.484 13.9919 102.279 14.3274 102.279 14.8019C102.279 15.252 102.455 15.5915 102.807 15.8207C103.159 16.0416 103.682 16.152 104.378 16.152Z" fill="black"></path><path d="M114.207 18.7295V5.69494H117.975V18.7295H114.207ZM116.085 3.57161C115.496 3.57161 114.981 3.41615 114.539 3.10522C114.105 2.79429 113.888 2.35653 113.888 1.79194C113.888 1.21918 114.105 0.777327 114.539 0.466396C114.981 0.155465 115.496 0 116.085 0C116.683 0 117.198 0.155465 117.632 0.466396C118.074 0.777327 118.294 1.21918 118.294 1.79194C118.294 2.36471 118.074 2.80656 117.632 3.11749C117.198 3.42024 116.683 3.57161 116.085 3.57161Z" fill="black"></path><path d="M126.204 19.0241C125.427 19.0241 124.678 18.9341 123.958 18.754C123.238 18.574 122.592 18.3081 122.019 17.9563C121.454 17.6044 121.004 17.1667 120.669 16.643C120.341 16.1111 120.178 15.4934 120.178 14.7897C120.178 14.7569 120.178 14.7201 120.178 14.6792C120.178 14.6301 120.178 14.5933 120.178 14.5687H123.958C123.958 14.5933 123.958 14.6219 123.958 14.6547C123.958 14.6792 123.958 14.7078 123.958 14.7406C123.958 15.2152 124.167 15.5629 124.584 15.7838C125.009 16.0048 125.582 16.1152 126.302 16.1152C126.679 16.1152 127.039 16.0784 127.382 16.0048C127.734 15.9229 128.021 15.7961 128.241 15.6243C128.471 15.4443 128.585 15.2192 128.585 14.9492C128.585 14.5156 128.344 14.2087 127.861 14.0287C127.386 13.8487 126.621 13.6687 125.566 13.4887C124.969 13.3905 124.363 13.2514 123.749 13.0714C123.136 12.8914 122.571 12.6541 122.056 12.3595C121.54 12.0568 121.127 11.6763 120.816 11.2181C120.505 10.7517 120.35 10.1871 120.35 9.5243C120.35 8.64061 120.615 7.89601 121.147 7.29051C121.687 6.68501 122.403 6.2268 123.295 5.91587C124.187 5.60494 125.169 5.44947 126.241 5.44947C127.264 5.44947 128.217 5.6213 129.101 5.96496C129.984 6.30044 130.7 6.78729 131.248 7.42552C131.797 8.05556 132.071 8.81653 132.071 9.70841C132.071 9.72477 132.071 9.74932 132.071 9.78205C132.071 9.81478 132.071 9.84751 132.071 9.88024H128.327C128.327 9.84751 128.327 9.81887 128.327 9.79432C128.327 9.76978 128.327 9.74932 128.327 9.73295C128.327 9.40566 128.221 9.13973 128.008 8.93517C127.804 8.73061 127.542 8.57924 127.223 8.48105C126.904 8.37468 126.572 8.32149 126.229 8.32149C125.918 8.32149 125.594 8.35831 125.259 8.43195C124.932 8.49741 124.653 8.61197 124.424 8.77562C124.195 8.93108 124.081 9.15201 124.081 9.43839C124.081 9.71659 124.203 9.9457 124.449 10.1257C124.694 10.2975 125.038 10.4407 125.48 10.5553C125.922 10.6617 126.433 10.7639 127.014 10.8621C127.562 10.9521 128.139 11.079 128.745 11.2426C129.358 11.3981 129.931 11.6231 130.463 11.9177C131.003 12.204 131.437 12.5845 131.764 13.0591C132.099 13.5255 132.267 14.1187 132.267 14.8388C132.267 15.5834 132.095 16.2216 131.752 16.7534C131.408 17.2853 130.942 17.719 130.353 18.0544C129.772 18.3817 129.121 18.6231 128.401 18.7786C127.689 18.9422 126.957 19.0241 126.204 19.0241Z" fill="black"></path><path d="M135.116 24.3631C134.707 24.3631 134.338 24.3467 134.011 24.314C133.692 24.2894 133.491 24.2608 133.41 24.2281V21.3438C133.516 21.3929 133.7 21.4297 133.962 21.4542C134.232 21.487 134.518 21.5033 134.821 21.5033C135.222 21.5033 135.582 21.4215 135.901 21.2579C136.228 21.1024 136.507 20.8774 136.736 20.5828C136.973 20.2964 137.157 19.9569 137.288 19.5641L137.509 18.9013L133.017 5.69494H136.981L139.816 16.3852H139.375L142.099 5.69494H146.015L141.535 19.38C141.199 20.411 140.786 21.2988 140.295 22.0434C139.804 22.788 139.15 23.3607 138.331 23.7617C137.513 24.1626 136.441 24.3631 135.116 24.3631Z" fill="black"></path><path d="M89.2471 34.4888L89.3576 31.5799L96.599 43.2767H92.426L87.2343 34.5011L88.9403 34.722L85.9701 38.7109L86.3015 36.3176V43.2767H82.4844V25.1731H86.3015V34.5747L85.5896 34.1819L92.2051 25.1731H96.2308L89.2471 34.4888Z" fill="black"></path><path d="M104.655 43.559C103.248 43.559 102.008 43.2685 100.936 42.6875C99.8645 42.1066 99.0258 41.3088 98.4203 40.2942C97.823 39.2714 97.5243 38.0931 97.5243 36.7594C97.5243 35.4338 97.823 34.2638 98.4203 33.2492C99.0258 32.2264 99.8645 31.4327 100.936 30.8681C102.008 30.2953 103.248 30.0089 104.655 30.0089C106.063 30.0089 107.302 30.2953 108.374 30.8681C109.446 31.4327 110.281 32.2264 110.878 33.2492C111.483 34.2638 111.786 35.4338 111.786 36.7594C111.786 38.0931 111.483 39.2714 110.878 40.2942C110.281 41.3088 109.446 42.1066 108.374 42.6875C107.302 43.2685 106.063 43.559 104.655 43.559ZM104.655 40.5397C105.318 40.5397 105.895 40.3842 106.386 40.0733C106.877 39.7623 107.257 39.3246 107.527 38.76C107.797 38.1872 107.932 37.5204 107.932 36.7594C107.932 35.9984 107.797 35.3398 107.527 34.7834C107.257 34.2188 106.877 33.7851 106.386 33.4823C105.895 33.1796 105.318 33.0282 104.655 33.0282C104.001 33.0282 103.424 33.1796 102.925 33.4823C102.434 33.7851 102.053 34.2188 101.783 34.7834C101.513 35.3398 101.378 35.9984 101.378 36.7594C101.378 37.5204 101.513 38.1872 101.783 38.76C102.053 39.3246 102.434 39.7623 102.925 40.0733C103.424 40.3842 104.001 40.5397 104.655 40.5397Z" fill="black"></path><path d="M120.692 43.559C119.285 43.559 118.045 43.2685 116.974 42.6875C115.902 42.1066 115.063 41.3088 114.457 40.2942C113.86 39.2714 113.561 38.0931 113.561 36.7594C113.561 35.4338 113.86 34.2638 114.457 33.2492C115.063 32.2264 115.902 31.4327 116.974 30.8681C118.045 30.2953 119.285 30.0089 120.692 30.0089C122.1 30.0089 123.339 30.2953 124.411 30.8681C125.483 31.4327 126.318 32.2264 126.915 33.2492C127.521 34.2638 127.823 35.4338 127.823 36.7594C127.823 38.0931 127.521 39.2714 126.915 40.2942C126.318 41.3088 125.483 42.1066 124.411 42.6875C123.339 43.2685 122.1 43.559 120.692 43.559ZM120.692 40.5397C121.355 40.5397 121.932 40.3842 122.423 40.0733C122.914 39.7623 123.294 39.3246 123.564 38.76C123.834 38.1872 123.969 37.5204 123.969 36.7594C123.969 35.9984 123.834 35.3398 123.564 34.7834C123.294 34.2188 122.914 33.7851 122.423 33.4823C121.932 33.1796 121.355 33.0282 120.692 33.0282C120.038 33.0282 119.461 33.1796 118.962 33.4823C118.471 33.7851 118.09 34.2188 117.82 34.7834C117.55 35.3398 117.415 35.9984 117.415 36.7594C117.415 37.5204 117.55 38.1872 117.82 38.76C118.09 39.3246 118.471 39.7623 118.962 40.0733C119.461 40.3842 120.038 40.5397 120.692 40.5397Z" fill="black"></path><path d="M130.2 43.2767V24.0931H133.808V35.0779L133.06 34.6852L138.031 30.2421H142.695L136.239 36.0107L137.049 34.5624L142.584 43.2767H138.583L134.557 36.563L135.527 36.6367L133.416 38.5513L133.808 36.919V43.2767H130.2Z" fill="black"></path><path d="M150.654 43.5467C150.155 43.5467 149.64 43.5017 149.108 43.4117C148.584 43.3299 148.093 43.1621 147.635 42.9085C147.185 42.6466 146.821 42.2661 146.543 41.767C146.265 41.2679 146.125 40.6092 146.125 39.791C146.125 39.611 146.125 39.4269 146.125 39.2387C146.125 39.0505 146.125 38.8623 146.125 38.6741V33.1878H143.118V30.2421H143.965C144.456 30.2421 144.845 30.2217 145.131 30.1808C145.426 30.1398 145.643 30.0376 145.782 29.8739C145.929 29.7021 146.023 29.4362 146.064 29.0761C146.105 28.7161 146.125 28.2211 146.125 27.591V25.9464H149.943V30.2421H153.735V33.1878H149.943V37.8763C149.943 38.0236 149.943 38.1668 149.943 38.3059C149.943 38.445 149.943 38.58 149.943 38.7109C149.943 39.2755 150.008 39.7337 150.139 40.0855C150.278 40.4374 150.618 40.6133 151.158 40.6133C151.428 40.6133 151.681 40.5888 151.919 40.5397C152.164 40.4906 152.348 40.4415 152.471 40.3924V43.2521C152.299 43.3258 152.058 43.3912 151.747 43.4485C151.436 43.514 151.072 43.5467 150.654 43.5467Z" fill="black"></path><defs><clipPath id="clip0_510_3"><rect width="69.9737" height="49.0944" fill="white" transform="translate(0.237061)"></rect></clipPath></defs></svg>