<svg xmlns="http://www.w3.org/2000/svg" width="139" height="50" viewBox="0 0 139 50" fill="none"><g clip-path="url(#clip0_510_87)"><path d="M21.3292 49.0944C25.4352 49.0944 28.7638 48.7815 28.7638 48.3956C28.7638 48.0096 25.4352 47.6968 21.3292 47.6968C17.2231 47.6968 13.8945 48.0096 13.8945 48.3956C13.8945 48.7815 17.2231 49.0944 21.3292 49.0944Z" fill="#A8BF64"></path><path d="M19.6256 37.3712C29.9453 37.3712 38.3112 29.0054 38.3112 18.6856C38.3112 8.36584 29.9453 0 19.6256 0C9.30578 0 0.939941 8.36584 0.939941 18.6856C0.939941 29.0054 9.30578 37.3712 19.6256 37.3712Z" fill="#F5B715"></path><path d="M21.5066 48.1836C21.5066 48.1836 21.1842 45.5513 27.799 43.3559C34.4137 41.1605 37.0878 32.3791 35.9619 32.2416C34.836 32.1041 34.4137 31.4184 32.5841 34.7111C30.7545 38.0045 28.6434 41.8462 25.6879 43.081C22.7324 44.3157 21.0435 46.3745 21.0435 46.3745C21.0435 46.3745 20.0583 43.63 21.0435 42.6694C22.0287 41.7088 22.3101 41.5721 23.7175 41.1597C25.1249 40.7481 27.236 40.7481 29.3471 37.7296C31.4582 34.7111 32.7249 29.9088 32.0212 30.1829C31.3175 30.457 30.8953 29.6338 29.0656 33.2014C27.236 36.769 26.2508 38.6902 23.1546 39.925C20.0583 41.1597 21.0435 41.2972 21.0435 41.2972C21.0435 41.2972 19.7768 39.7875 24.1398 35.8092C28.5027 31.83 29.2064 30.1837 29.4879 28.9489C29.7693 27.7142 31.5989 24.0091 30.473 23.5976C29.3471 23.186 27.799 27.5767 27.799 27.5767C27.799 27.5767 26.5323 30.7327 24.9842 31.9675C23.4361 33.2022 20.6213 37.8679 20.6213 37.8679C20.6213 37.8679 20.762 30.8702 22.0287 29.498C23.2953 28.1258 27.5175 24.9698 28.0805 24.01C28.6434 23.0493 33.2878 14.5428 30.473 12.6215C30.473 12.6215 28.9249 12.6215 28.6434 15.5026C28.3619 18.3837 27.236 21.9512 26.5323 22.7744C25.8286 23.5976 22.0287 27.8508 22.0287 28.3999C22.0287 28.9489 21.7472 22.4995 23.8583 19.6184C25.9694 16.7373 28.7842 8.77901 27.0953 6.44617C27.0953 6.44617 25.8286 5.62301 25.4064 7.68091C24.9842 9.73882 24.8435 13.5813 24.2805 14.6786C23.7175 15.7767 22.4509 19.7551 22.4509 20.1674C22.4509 20.5799 21.7472 16.5999 22.3101 15.2277C22.8731 13.8554 21.7472 9.60217 20.9027 10.0138C20.9027 10.0138 19.6361 10.4253 20.0583 13.3072C20.4805 16.1883 22.0287 22.9119 21.6064 25.3822C21.1842 27.8517 20.9027 30.047 20.9027 30.047C20.9027 30.047 19.2139 28.2632 19.0731 26.0679C18.9324 23.8725 18.7917 23.1868 17.9472 23.3235C17.9472 23.3235 16.962 24.2841 17.6657 26.342C18.3694 28.3999 20.4805 31.2818 20.4805 31.2818V32.5165C20.4805 32.5165 18.2287 30.047 17.8065 28.5374C17.8065 28.5374 16.8213 27.8517 17.2435 29.498C17.6657 31.1443 20.0583 33.7513 20.0583 33.7513L19.9176 36.9073C19.9176 36.9073 17.525 34.4378 17.1028 32.2424C16.6806 30.047 16.3991 28.5374 15.5546 29.0864C14.7102 29.6355 16.3991 35.6725 19.4953 38.4169L19.7768 42.5336C19.7768 42.5336 18.5102 38.4169 16.3991 36.9081C14.288 35.3984 13.5843 28.5382 13.5843 28.5382C13.5843 28.5382 13.4436 27.5775 12.5991 28.5382C11.7547 29.4988 12.0362 34.3011 15.8361 37.7312C19.6361 41.1614 18.7917 43.3567 18.7917 43.3567C18.7917 43.3567 14.0065 40.3382 13.4436 37.8679C12.8806 35.3984 11.8954 32.9281 11.3325 33.3397C10.9572 33.6141 10.8164 33.9801 10.9102 34.4378C11.051 35.1235 11.8954 38.8285 13.4436 39.9266C14.9917 41.0247 17.9472 43.3567 18.2287 44.1799C18.5102 45.0031 14.1472 43.0818 12.7399 41.5729C11.3325 40.0633 10.2065 38.966 9.92506 39.7892C9.64358 40.6123 9.50284 41.7104 11.051 42.2586C12.5991 42.8069 20.3398 46.2378 20.762 47.4725L20.9207 48.2957L21.5066 48.1836Z" fill="#32A72F"></path></g><path d="M45.1238 18.7295V0.625953H50.9783C52.1893 0.625953 53.2898 0.846877 54.2799 1.28873C55.2781 1.72239 56.1332 2.34016 56.8451 3.14204C57.5651 3.93573 58.1174 4.88489 58.502 5.98951C58.8866 7.09413 59.0788 8.31331 59.0788 9.64704C59.0788 10.9808 58.8866 12.204 58.502 13.3168C58.1174 14.4296 57.5651 15.3911 56.8451 16.2011C56.1332 17.003 55.2781 17.6249 54.2799 18.0667C53.2898 18.5086 52.1893 18.7295 50.9783 18.7295H45.1238ZM48.9531 17.6003L47.2348 15.7838H50.4873C51.371 15.7838 52.1688 15.5384 52.8807 15.0474C53.6007 14.5483 54.1694 13.8405 54.5867 12.9241C55.004 11.9995 55.2127 10.9071 55.2127 9.64704C55.2127 8.37877 55.004 7.2946 54.5867 6.39454C54.1694 5.48629 53.6007 4.79079 52.8807 4.30803C52.1688 3.81709 51.371 3.57161 50.4873 3.57161H47.2348L48.9531 1.75512V17.6003Z" fill="black"></path><path d="M65.9987 18.9995C65.0495 18.9995 64.2026 18.8481 63.458 18.5454C62.7216 18.2426 62.1448 17.8049 61.7274 17.2321C61.3101 16.6593 61.1015 15.9638 61.1015 15.1456C61.1015 14.221 61.3552 13.4682 61.8625 12.8873C62.3698 12.3063 63.0407 11.8645 63.8753 11.5617C64.7181 11.2508 65.6305 11.0462 66.6123 10.948C68.0443 10.8089 69.0302 10.6821 69.5703 10.5676C70.1185 10.453 70.3926 10.2525 70.3926 9.96615C70.3926 9.95797 70.3926 9.94979 70.3926 9.94161C70.3926 9.45884 70.1594 9.07836 69.693 8.80016C69.2348 8.52196 68.5925 8.38286 67.7661 8.38286C66.8905 8.38286 66.2196 8.54242 65.7532 8.86153C65.295 9.17246 65.0659 9.65113 65.0659 10.2975H61.3224C61.3224 9.25019 61.6047 8.3665 62.1693 7.64644C62.7421 6.92639 63.5153 6.38227 64.489 6.01406C65.4627 5.63767 66.5632 5.44947 67.7906 5.44947C68.9361 5.44947 69.9958 5.62539 70.9695 5.97724C71.9432 6.3209 72.7246 6.84048 73.3137 7.53598C73.911 8.23149 74.2097 9.11518 74.2097 10.1871C74.2097 10.3589 74.2097 10.5307 74.2097 10.7026C74.2097 10.8662 74.2097 11.034 74.2097 11.2058V15.8207C74.2097 16.1561 74.2179 16.4793 74.2342 16.7903C74.2588 17.093 74.3079 17.3712 74.3815 17.6249C74.4633 17.9113 74.5656 18.1485 74.6884 18.3367C74.8111 18.5249 74.9134 18.6559 74.9952 18.7295H71.2518C71.1945 18.6722 71.1045 18.5536 70.9817 18.3736C70.8672 18.1935 70.769 17.9849 70.6872 17.7476C70.589 17.4612 70.5153 17.1748 70.4662 16.8885C70.4253 16.5939 70.4049 16.2502 70.4049 15.8575L71.1904 16.3975C70.9613 16.9375 70.589 17.4039 70.0735 17.7967C69.5662 18.1813 68.9607 18.4799 68.257 18.6927C67.5615 18.8972 66.8087 18.9995 65.9987 18.9995ZM67.0174 16.152C67.6147 16.152 68.1711 16.0457 68.6866 15.8329C69.2102 15.612 69.6357 15.2683 69.963 14.8019C70.2903 14.3355 70.454 13.726 70.454 12.9732V11.6599L71.399 12.5804C70.859 12.7768 70.233 12.9405 69.5212 13.0714C68.8175 13.1941 68.1138 13.2923 67.4101 13.3659C66.5755 13.4478 65.9496 13.591 65.5323 13.7955C65.1231 13.9919 64.9186 14.3274 64.9186 14.8019C64.9186 15.252 65.0945 15.5915 65.4463 15.8207C65.7982 16.0416 66.3219 16.152 67.0174 16.152Z" fill="black"></path><path d="M76.8468 18.7295V5.69494H80.6148V18.7295H76.8468ZM78.7246 3.57161C78.1355 3.57161 77.62 3.41615 77.1782 3.10522C76.7445 2.79429 76.5277 2.35653 76.5277 1.79194C76.5277 1.21918 76.7445 0.777327 77.1782 0.466396C77.62 0.155465 78.1355 0 78.7246 0C79.322 0 79.8374 0.155465 80.2711 0.466396C80.713 0.777327 80.9339 1.21918 80.9339 1.79194C80.9339 2.36471 80.713 2.80656 80.2711 3.11749C79.8374 3.42024 79.322 3.57161 78.7246 3.57161Z" fill="black"></path><path d="M88.8434 19.0241C88.0661 19.0241 87.3174 18.9341 86.5974 18.754C85.8773 18.574 85.2309 18.3081 84.6582 17.9563C84.0936 17.6044 83.6435 17.1667 83.3081 16.643C82.9808 16.1111 82.8171 15.4934 82.8171 14.7897C82.8171 14.7569 82.8171 14.7201 82.8171 14.6792C82.8171 14.6301 82.8171 14.5933 82.8171 14.5687H86.5974C86.5974 14.5933 86.5974 14.6219 86.5974 14.6547C86.5974 14.6792 86.5974 14.7078 86.5974 14.7406C86.5974 15.2152 86.806 15.5629 87.2233 15.7838C87.6488 16.0048 88.2216 16.1152 88.9416 16.1152C89.318 16.1152 89.6781 16.0784 90.0217 16.0048C90.3736 15.9229 90.6599 15.7961 90.8809 15.6243C91.11 15.4443 91.2245 15.2192 91.2245 14.9492C91.2245 14.5156 90.9831 14.2087 90.5004 14.0287C90.0258 13.8487 89.2608 13.6687 88.2052 13.4887C87.6079 13.3905 87.0024 13.2514 86.3887 13.0714C85.7751 12.8914 85.2105 12.6541 84.695 12.3595C84.1795 12.0568 83.7663 11.6763 83.4553 11.2181C83.1444 10.7517 82.9889 10.1871 82.9889 9.5243C82.9889 8.6406 83.2549 7.89601 83.7867 7.29051C84.3268 6.68501 85.0427 6.2268 85.9346 5.91587C86.8265 5.60494 87.8084 5.44947 88.8803 5.44947C89.9031 5.44947 90.8563 5.6213 91.74 5.96496C92.6237 6.30044 93.3397 6.78729 93.8879 7.42552C94.4361 8.05556 94.7102 8.81653 94.7102 9.70841C94.7102 9.72477 94.7102 9.74932 94.7102 9.78205C94.7102 9.81478 94.7102 9.84751 94.7102 9.88024H90.9668C90.9668 9.84751 90.9668 9.81887 90.9668 9.79432C90.9668 9.76978 90.9668 9.74932 90.9668 9.73295C90.9668 9.40566 90.8604 9.13973 90.6477 8.93517C90.4431 8.73061 90.1813 8.57924 89.8622 8.48105C89.543 8.37468 89.2117 8.32149 88.868 8.32149C88.5571 8.32149 88.2339 8.35831 87.8984 8.43195C87.5711 8.49741 87.2929 8.61197 87.0638 8.77561C86.8347 8.93108 86.7201 9.152 86.7201 9.43839C86.7201 9.71659 86.8429 9.9457 87.0883 10.1257C87.3338 10.2975 87.6775 10.4407 88.1193 10.5553C88.5612 10.6617 89.0726 10.7639 89.6535 10.8621C90.2017 10.9521 90.7786 11.079 91.3841 11.2426C91.9978 11.3981 92.5705 11.6231 93.1024 11.9177C93.6424 12.204 94.0761 12.5845 94.4034 13.0591C94.7389 13.5255 94.9066 14.1187 94.9066 14.8388C94.9066 15.5834 94.7348 16.2216 94.3911 16.7534C94.0475 17.2853 93.5811 17.719 92.9919 18.0544C92.411 18.3817 91.7605 18.6231 91.0404 18.7786C90.3286 18.9422 89.5962 19.0241 88.8434 19.0241Z" fill="black"></path><path d="M97.755 24.3631C97.3459 24.3631 96.9777 24.3467 96.6504 24.314C96.3313 24.2894 96.1308 24.2608 96.049 24.2281V21.3438C96.1554 21.3929 96.3395 21.4297 96.6013 21.4542C96.8713 21.487 97.1577 21.5033 97.4605 21.5033C97.8614 21.5033 98.2214 21.4215 98.5405 21.2579C98.8678 21.1024 99.146 20.8774 99.3751 20.5828C99.6124 20.2964 99.7965 19.9569 99.9275 19.5641L100.148 18.9013L95.6563 5.69494H99.6206L102.456 16.3852H102.014L104.739 5.69494H108.654L104.174 19.38C103.839 20.411 103.425 21.2988 102.934 22.0434C102.444 22.788 101.789 23.3607 100.971 23.7617C100.152 24.1626 99.0806 24.3631 97.755 24.3631Z" fill="black"></path><path d="M57.1396 28.1188H51.1624L52.6843 26.3023V43.2767H48.8918V26.3023L50.4628 28.1188H44.4487V25.1731H57.1396V28.1188Z" fill="black"></path><path d="M62.4198 43.5221C61.4951 43.5221 60.7342 43.3749 60.1369 43.0803C59.5396 42.7775 59.0691 42.3725 58.7254 41.8652C58.3817 41.3579 58.1404 40.7933 58.0013 40.1715C57.8622 39.5496 57.7926 38.9195 57.7926 38.2813C57.7926 37.9868 57.7926 37.6758 57.7926 37.3485C57.7926 37.0212 57.7926 36.6858 57.7926 36.3421V30.2421H61.5974V35.7407C61.5974 36.0189 61.5974 36.2889 61.5974 36.5507C61.5974 36.8126 61.5974 37.054 61.5974 37.2749C61.5974 37.8231 61.6588 38.3263 61.7815 38.7845C61.9043 39.2428 62.1293 39.611 62.4566 39.8892C62.7921 40.1674 63.2666 40.3065 63.8803 40.3065C64.4776 40.3065 64.9849 40.1387 65.4022 39.8032C65.8195 39.4596 66.1387 39.0218 66.3596 38.49C66.5805 37.9581 66.691 37.4099 66.691 36.8453L67.7588 37.7167C67.7588 38.535 67.6319 39.2959 67.3783 39.9996C67.1328 40.7033 66.781 41.3211 66.3228 41.8529C65.8645 42.3766 65.3041 42.7857 64.6413 43.0803C63.9867 43.3749 63.2462 43.5221 62.4198 43.5221ZM66.691 43.2767V30.2421H70.4958V43.2767H66.691Z" fill="black"></path><path d="M73.2031 43.2767V30.2421H76.9711V43.2767H73.2031ZM75.0809 28.1188C74.4918 28.1188 73.9763 27.9633 73.5345 27.6524C73.1008 27.3415 72.8839 26.9037 72.8839 26.3391C72.8839 25.7663 73.1008 25.3245 73.5345 25.0136C73.9763 24.7026 74.4918 24.5472 75.0809 24.5472C75.6782 24.5472 76.1937 24.7026 76.6274 25.0136C77.0692 25.3245 77.2902 25.7663 77.2902 26.3391C77.2902 26.9119 77.0692 27.3537 76.6274 27.6647C76.1937 27.9674 75.6782 28.1188 75.0809 28.1188Z" fill="black"></path><path d="M88.9554 43.2767V37.7413C88.9554 37.4304 88.9554 37.1481 88.9554 36.8944C88.9554 36.6408 88.9554 36.4116 88.9554 36.2071C88.9554 35.667 88.8859 35.1761 88.7468 34.7342C88.6077 34.2842 88.3581 33.9242 87.9981 33.6542C87.6381 33.3842 87.1185 33.2491 86.4394 33.2491C85.8502 33.2491 85.3388 33.3842 84.9052 33.6542C84.4797 33.9242 84.1524 34.3006 83.9233 34.7833C83.6942 35.2661 83.5796 35.8225 83.5796 36.4526L82.5241 35.6916C82.5241 34.5624 82.7696 33.5723 83.2605 32.7214C83.7514 31.8704 84.4142 31.2036 85.2488 30.7208C86.0916 30.238 87.0244 29.9966 88.0472 29.9966C89.1191 29.9966 89.9987 30.2135 90.686 30.6471C91.3815 31.0726 91.897 31.6699 92.2325 32.4391C92.5762 33.2001 92.748 34.0919 92.748 35.1147C92.748 35.532 92.748 35.9984 92.748 36.5139C92.748 37.0294 92.748 37.5572 92.748 38.0972V43.2767H88.9554ZM79.7748 43.2767V30.2421H83.5796V43.2767H79.7748Z" fill="black"></path><path d="M95.4489 43.2767V30.2421H99.2169V43.2767H95.4489ZM97.3268 28.1188C96.7377 28.1188 96.2222 27.9633 95.7803 27.6524C95.3467 27.3415 95.1298 26.9037 95.1298 26.3391C95.1298 25.7663 95.3467 25.3245 95.7803 25.0136C96.2222 24.7026 96.7377 24.5472 97.3268 24.5472C97.9241 24.5472 98.4396 24.7026 98.8733 25.0136C99.3151 25.3245 99.536 25.7663 99.536 26.3391C99.536 26.9119 99.3151 27.3537 98.8733 27.6647C98.4396 27.9674 97.9241 28.1188 97.3268 28.1188Z" fill="black"></path><path d="M103.481 37.9008V35.3848H112.122L111.754 36.023C111.754 35.9575 111.754 35.8962 111.754 35.8389C111.754 35.7734 111.754 35.712 111.754 35.6548C111.754 35.1884 111.643 34.7424 111.422 34.317C111.201 33.8833 110.858 33.5314 110.391 33.2614C109.933 32.9832 109.344 32.8441 108.624 32.8441C107.904 32.8441 107.282 32.9996 106.758 33.3105C106.243 33.6133 105.846 34.051 105.568 34.6238C105.298 35.1966 105.163 35.888 105.163 36.698C105.163 37.5326 105.294 38.2486 105.555 38.8459C105.825 39.435 106.222 39.8892 106.746 40.2083C107.278 40.5274 107.937 40.6869 108.722 40.6869C109.229 40.6869 109.667 40.6419 110.035 40.5519C110.404 40.4537 110.702 40.331 110.931 40.1837C111.169 40.0364 111.349 39.8728 111.471 39.6928C111.594 39.5128 111.668 39.3368 111.692 39.165H115.448C115.399 39.7132 115.211 40.2533 114.883 40.7851C114.556 41.3088 114.102 41.7834 113.521 42.2089C112.94 42.6262 112.232 42.9576 111.398 43.203C110.571 43.4485 109.626 43.5712 108.563 43.5712C107.122 43.5712 105.866 43.2849 104.795 42.7121C103.723 42.1311 102.892 41.3334 102.303 40.3187C101.714 39.2959 101.419 38.1177 101.419 36.7839C101.419 35.4338 101.718 34.2515 102.315 33.2369C102.921 32.2141 103.759 31.4204 104.831 30.8558C105.911 30.283 107.159 29.9966 108.575 29.9966C110.023 29.9966 111.275 30.2871 112.33 30.8681C113.386 31.4408 114.2 32.2468 114.773 33.286C115.346 34.3169 115.632 35.5198 115.632 36.8944C115.632 37.099 115.628 37.2953 115.62 37.4835C115.612 37.6717 115.599 37.8108 115.583 37.9008H103.481Z" fill="black"></path><path d="M118.01 43.2767V30.2421H121.827V34.7342L121.041 34.2433C121.131 33.6296 121.295 33.065 121.532 32.5496C121.77 32.0341 122.077 31.5881 122.453 31.2117C122.829 30.8272 123.275 30.5285 123.791 30.3158C124.314 30.103 124.912 29.9966 125.583 29.9966C126.106 29.9966 126.516 30.0376 126.81 30.1194C127.113 30.193 127.301 30.2503 127.375 30.2912L126.749 33.7033C126.675 33.6624 126.511 33.5969 126.258 33.5069C126.004 33.4169 125.677 33.3719 125.276 33.3719C124.621 33.3719 124.073 33.4823 123.631 33.7033C123.189 33.9242 122.833 34.2188 122.563 34.587C122.302 34.947 122.113 35.3479 121.999 35.7898C121.884 36.2316 121.827 36.6776 121.827 37.1276V43.2767H118.01Z" fill="black"></path><path d="M135.707 43.5467C135.208 43.5467 134.693 43.5017 134.161 43.4117C133.637 43.3299 133.146 43.1621 132.688 42.9085C132.238 42.6466 131.874 42.2661 131.596 41.767C131.318 41.2679 131.179 40.6092 131.179 39.791C131.179 39.611 131.179 39.4269 131.179 39.2387C131.179 39.0505 131.179 38.8623 131.179 38.6741V33.1878H128.171V30.2421H129.018C129.509 30.2421 129.898 30.2217 130.184 30.1808C130.479 30.1398 130.696 30.0376 130.835 29.8739C130.982 29.7021 131.076 29.4362 131.117 29.0761C131.158 28.7161 131.179 28.2211 131.179 27.591V25.9464H134.996V30.2421H138.788V33.1878H134.996V37.8763C134.996 38.0236 134.996 38.1668 134.996 38.3059C134.996 38.445 134.996 38.58 134.996 38.7109C134.996 39.2755 135.061 39.7337 135.192 40.0855C135.331 40.4374 135.671 40.6133 136.211 40.6133C136.481 40.6133 136.734 40.5888 136.972 40.5397C137.217 40.4906 137.401 40.4415 137.524 40.3924V43.2521C137.352 43.3258 137.111 43.3912 136.8 43.4485C136.489 43.514 136.125 43.5467 135.707 43.5467Z" fill="black"></path><defs><clipPath id="clip0_510_87"><rect width="37.3721" height="49.0944" fill="white" transform="translate(0.939941)"></rect></clipPath></defs></svg>