<svg xmlns="http://www.w3.org/2000/svg" width="46" height="45" viewBox="0 0 46 45" fill="none"><path d="M15.8008 13.125V5.625M30.8008 13.125V5.625M13.9258 20.625H32.6758M10.1758 39.375H36.4258C37.4203 39.375 38.3742 38.9799 39.0774 38.2766C39.7807 37.5734 40.1758 36.6196 40.1758 35.625V13.125C40.1758 12.1304 39.7807 11.1766 39.0774 10.4733C38.3742 9.77009 37.4203 9.375 36.4258 9.375H10.1758C9.18122 9.375 8.22739 9.77009 7.52413 10.4733C6.82087 11.1766 6.42578 12.1304 6.42578 13.125V35.625C6.42578 36.6196 6.82087 37.5734 7.52413 38.2766C8.22739 38.9799 9.18122 39.375 10.1758 39.375Z" stroke="#848484" stroke-width="2" stroke-linecap="round" stroke-linejoin="round"></path></svg>