<svg xmlns="http://www.w3.org/2000/svg" width="46" height="45" viewBox="0 0 46 45" fill="none"><path d="M23.1016 8.16375C24.1093 7.02132 25.441 6.21283 26.9195 5.84586C28.398 5.4789 29.9531 5.57085 31.3781 6.1095C32.803 6.64815 34.0302 7.60794 34.8962 8.86117C35.7623 10.1144 36.2262 11.6016 36.2262 13.125C36.2262 14.6484 35.7623 16.1356 34.8962 17.3888C34.0302 18.6421 32.803 19.6019 31.3781 20.1405C29.9531 20.6791 28.398 20.7711 26.9195 20.4041C25.441 20.0372 24.1093 19.2287 23.1016 18.0862M28.7266 39.375H39.9766V37.5C39.9768 35.5251 39.4572 33.5849 38.4699 31.8744C37.4827 30.164 36.0625 28.7436 34.3522 27.756C32.642 26.7684 30.7019 26.2485 28.727 26.2484C26.752 26.2483 24.8119 26.7682 23.1016 27.7556M28.7266 39.375H6.22656V37.5C6.22656 34.5163 7.41183 31.6548 9.52161 29.545C11.6314 27.4353 14.4929 26.25 17.4766 26.25C20.4602 26.25 23.3217 27.4353 25.4315 29.545C27.5413 31.6548 28.7266 34.5163 28.7266 37.5V39.375ZM24.9766 13.125C24.9766 15.1141 24.1864 17.0218 22.7799 18.4283C21.3733 19.8348 19.4657 20.625 17.4766 20.625C15.4874 20.625 13.5798 19.8348 12.1733 18.4283C10.7667 17.0218 9.97656 15.1141 9.97656 13.125C9.97656 11.1359 10.7667 9.22822 12.1733 7.8217C13.5798 6.41518 15.4874 5.625 17.4766 5.625C19.4657 5.625 21.3733 6.41518 22.7799 7.8217C24.1864 9.22822 24.9766 11.1359 24.9766 13.125V13.125Z" stroke="#848484" stroke-width="2" stroke-linecap="round" stroke-linejoin="round"></path></svg>