<svg xmlns="http://www.w3.org/2000/svg" width="33" height="32" viewBox="0 0 33 32" fill="none"><path d="M28.6665 17.6733C24.8538 19.215 20.7791 20.005 16.6665 20C12.4225 20 8.37317 19.1733 4.6665 17.6733M21.9998 7.99999V5.33332C21.9998 4.62608 21.7189 3.9478 21.2188 3.4477C20.7187 2.94761 20.0404 2.66666 19.3332 2.66666H13.9998C13.2926 2.66666 12.6143 2.94761 12.1142 3.4477C11.6141 3.9478 11.3332 4.62608 11.3332 5.33332V7.99999M16.6665 16H16.6798M7.33317 26.6667H25.9998C26.7071 26.6667 27.3854 26.3857 27.8855 25.8856C28.3856 25.3855 28.6665 24.7072 28.6665 24V10.6667C28.6665 9.95941 28.3856 9.28114 27.8855 8.78104C27.3854 8.28094 26.7071 7.99999 25.9998 7.99999H7.33317C6.62593 7.99999 5.94765 8.28094 5.44755 8.78104C4.94746 9.28114 4.6665 9.95941 4.6665 10.6667V24C4.6665 24.7072 4.94746 25.3855 5.44755 25.8856C5.94765 26.3857 6.62593 26.6667 7.33317 26.6667Z" stroke="#7FA6EE" stroke-width="2" stroke-linecap="round" stroke-linejoin="round"></path></svg>