<svg xmlns="http://www.w3.org/2000/svg" width="36" height="36" viewBox="0 0 36 36" fill="none"><path d="M3.75 5.25H12C13.5913 5.25 15.1174 5.88214 16.2426 7.00736C17.3679 8.13258 18 9.6587 18 11.25V31.5C18 30.3065 17.5259 29.1619 16.682 28.318C15.8381 27.4741 14.6935 27 13.5 27H3.75V5.25ZM32.25 5.25H24C22.4087 5.25 20.8826 5.88214 19.7574 7.00736C18.6321 8.13258 18 9.6587 18 11.25V31.5C18 30.3065 18.4741 29.1619 19.318 28.318C20.1619 27.4741 21.3065 27 22.5 27H32.25V5.25Z" stroke="#1C8DBD" stroke-width="2" stroke-linejoin="round"></path></svg>