<svg xmlns="http://www.w3.org/2000/svg" width="56" height="56" viewBox="0 0 56 56" fill="none"><path d="M9.33325 14C9.33325 13.0717 9.702 12.1815 10.3584 11.5251C11.0148 10.8687 11.905 10.5 12.8333 10.5H43.1666C44.0948 10.5 44.9851 10.8687 45.6415 11.5251C46.2978 12.1815 46.6666 13.0717 46.6666 14V26.8333H9.33325V14Z" stroke="#7FA6EE" stroke-width="2" stroke-linecap="round" stroke-linejoin="round"></path><path d="M7 40.8333V45.5" stroke="#7FA6EE" stroke-width="2" stroke-linecap="round" stroke-linejoin="round"></path><path d="M49 40.8333V45.5" stroke="#7FA6EE" stroke-width="2" stroke-linecap="round" stroke-linejoin="round"></path><path d="M23.3333 21H16.3333C15.405 21 14.5148 21.3687 13.8584 22.0251C13.202 22.6815 12.8333 23.5717 12.8333 24.5V26.8333H26.8333V24.5C26.8333 23.5717 26.4645 22.6815 25.8081 22.0251C25.1517 21.3687 24.2615 21 23.3333 21Z" stroke="#7FA6EE" stroke-width="2" stroke-linecap="round" stroke-linejoin="round"></path><path d="M39.6666 21H32.6666C31.7384 21 30.8481 21.3687 30.1918 22.0251C29.5354 22.6815 29.1666 23.5717 29.1666 24.5V26.8333H43.1666V24.5C43.1666 23.5717 42.7979 22.6815 42.1415 22.0251C41.4851 21.3687 40.5949 21 39.6666 21Z" stroke="#7FA6EE" stroke-width="2" stroke-linecap="round" stroke-linejoin="round"></path><path d="M4.66663 30.3333C4.66663 29.4051 5.03538 28.5148 5.69175 27.8584C6.34813 27.2021 7.23837 26.8333 8.16663 26.8333H47.8333C48.7616 26.8333 49.6518 27.2021 50.3082 27.8584C50.9645 28.5148 51.3333 29.4051 51.3333 30.3333V40.8333H4.66663V30.3333Z" stroke="#7FA6EE" stroke-width="2" stroke-linecap="round" stroke-linejoin="round"></path></svg>