<svg xmlns="http://www.w3.org/2000/svg" width="37" height="36" viewBox="0 0 37 36" fill="none"><path d="M18.6667 33C26.9512 33 33.6667 26.2845 33.6667 18C33.6667 9.7155 26.9512 3 18.6667 3C10.3822 3 3.66675 9.7155 3.66675 18C3.66675 26.2845 10.3822 33 18.6667 33Z" stroke="#1C8DBD" stroke-width="2"></path><path d="M3.66675 15.63C5.928 14.5627 7.6005 14.4135 8.68425 15.1837C10.3095 16.3387 10.5127 21.048 14.2102 18.798C17.907 16.5472 12.627 15.63 13.773 12.3705C14.919 9.11022 18.6727 11.643 19.0455 8.07222C19.2945 5.69172 16.4475 4.78047 10.503 5.33922" stroke="#1C8DBD" stroke-width="2"></path><path d="M27.6666 6C23.3811 9.74175 21.8841 12.0008 23.1764 12.7778C25.1144 13.944 25.9364 12.3023 28.3019 12.7778C30.6666 13.2533 30.1544 16.4595 28.9109 16.4595C27.6666 16.4595 21.2241 15.639 21.5489 19.3987C21.8729 23.1585 25.7489 23.715 25.7489 25.8158C25.7489 27.216 24.8909 29.3595 23.1764 32.2455M5.24463 24.6945C5.75588 24.4696 6.26992 24.2511 6.78663 24.039C9.67188 22.8735 11.8131 22.599 13.2096 23.2147C15.6786 24.3045 14.7291 26.505 15.5031 27.3158C16.2756 28.1265 18.2076 27.891 18.2076 29.433C18.2076 30.4612 17.8626 31.623 17.1711 32.9175" stroke="#1C8DBD" stroke-width="2" stroke-linecap="round"></path></svg>