<svg xmlns="http://www.w3.org/2000/svg" width="56" height="56" viewBox="0 0 56 56" fill="none"><path d="M23.3333 26.8334L14 51.3334" stroke="#7FA6EE" stroke-width="2" stroke-linecap="round" stroke-linejoin="round"></path><path d="M32.6667 26.8334L42 51.3334" stroke="#7FA6EE" stroke-width="2" stroke-linecap="round" stroke-linejoin="round"></path><path d="M18.6667 39.6667H37.3334" stroke="#7FA6EE" stroke-width="2" stroke-linecap="round" stroke-linejoin="round"></path><path d="M34.363 26.8334H21.6359C18.4555 26.8334 16.3334 24.8885 16.3334 21.9719V14H21V7.00002C21 6.38118 21.2459 5.78769 21.6835 5.3501C22.121 4.91252 22.7145 4.66669 23.3334 4.66669H32.6667C33.2855 4.66669 33.879 4.91252 34.3166 5.3501C34.7542 5.78769 35 6.38118 35 7.00002V14H39.6667V21.9719C39.6667 24.8885 37.5457 26.8334 34.363 26.8334Z" stroke="#7FA6EE" stroke-width="2" stroke-linecap="round" stroke-linejoin="round"></path><path d="M35 14H44.3333" stroke="#7FA6EE" stroke-width="2" stroke-linecap="round" stroke-linejoin="round"></path><path d="M21 14H11.6667" stroke="#7FA6EE" stroke-width="2" stroke-linecap="round" stroke-linejoin="round"></path></svg>