<svg xmlns="http://www.w3.org/2000/svg" width="45" height="45" viewBox="0 0 45 45" fill="none"><path d="M3.75 12.1875H41.25V34.6875H3.75V12.1875Z" stroke="#848484" stroke-width="2" stroke-linejoin="round"></path><path d="M3.75 19.6875C5.73912 19.6875 7.64678 18.8973 9.0533 17.4908C10.4598 16.0843 11.25 14.1766 11.25 12.1875H3.75V19.6875ZM3.75 27.1875C5.73912 27.1875 7.64678 27.9777 9.0533 29.3842C10.4598 30.7907 11.25 32.6984 11.25 34.6875H3.75V27.1875ZM41.25 27.1875V34.6875H33.75C33.75 32.6984 34.5402 30.7907 35.9467 29.3842C37.3532 27.9777 39.2609 27.1875 41.25 27.1875ZM41.25 19.6875C39.2609 19.6875 37.3532 18.8973 35.9467 17.4908C34.5402 16.0843 33.75 14.1766 33.75 12.1875H41.25V19.6875Z" stroke="#848484" stroke-width="2" stroke-linecap="round" stroke-linejoin="round"></path><path d="M22.5 29.0625C25.0884 29.0625 27.1875 26.5444 27.1875 23.4375C27.1875 20.3306 25.0884 17.8125 22.5 17.8125C19.9116 17.8125 17.8125 20.3306 17.8125 23.4375C17.8125 26.5444 19.9116 29.0625 22.5 29.0625Z" stroke="#848484" stroke-width="2" stroke-linejoin="round"></path></svg>