<svg xmlns="http://www.w3.org/2000/svg" width="48" height="48" viewBox="0 0 48 48" fill="none"><path d="M40 23V12C40 10.1435 39.2625 8.36301 37.9497 7.05025C36.637 5.7375 34.8565 5 33 5V5C31.1435 5 29.363 5.7375 28.0503 7.05025C26.7375 8.36301 26 10.1435 26 12V13M43 23H5M40 29V23H8V29C8 31.1217 8.84285 33.1566 10.3431 34.6569C11.8434 36.1571 13.8783 37 16 37H32C34.1217 37 36.1566 36.1571 37.6569 34.6569C39.1571 33.1566 40 31.1217 40 29Z" stroke="#7FA6EE" stroke-width="2" stroke-linecap="round"></path><path d="M17 37L13 43M31 37L35 43" stroke="#7FA6EE" stroke-width="2" stroke-linecap="round" stroke-linejoin="round"></path></svg>