<svg xmlns="http://www.w3.org/2000/svg" width="56" height="56" viewBox="0 0 56 56" fill="none"><path d="M49 9.33331H7.00002C5.71136 9.33331 4.66669 10.378 4.66669 11.6666V39.6666C4.66669 40.9553 5.71136 42 7.00002 42H49C50.2887 42 51.3334 40.9553 51.3334 39.6666V11.6666C51.3334 10.378 50.2887 9.33331 49 9.33331Z" stroke="#7FA6EE" stroke-width="2" stroke-linecap="round" stroke-linejoin="round"></path><path d="M31.5 18.6666H15.1667C14.5223 18.6666 14 19.189 14 19.8333V31.5C14 32.1443 14.5223 32.6666 15.1667 32.6666H31.5C32.1443 32.6666 32.6667 32.1443 32.6667 31.5V19.8333C32.6667 19.189 32.1443 18.6666 31.5 18.6666Z" stroke="#7FA6EE" stroke-width="2" stroke-linecap="round" stroke-linejoin="round"></path><path d="M43.1667 19.8333C44.4554 19.8333 45.5 18.7886 45.5 17.5C45.5 16.2113 44.4554 15.1666 43.1667 15.1666C41.878 15.1666 40.8334 16.2113 40.8334 17.5C40.8334 18.7886 41.878 19.8333 43.1667 19.8333Z" fill="#7FA6EE"></path><path d="M42 25.6666H44.3333" stroke="#7FA6EE" stroke-width="2" stroke-linecap="round" stroke-linejoin="round"></path><path d="M42 33.8333H44.3333" stroke="#7FA6EE" stroke-width="2" stroke-linecap="round" stroke-linejoin="round"></path><path d="M14 42V49" stroke="#7FA6EE" stroke-width="2" stroke-linecap="round" stroke-linejoin="round"></path><path d="M42 42V49" stroke="#7FA6EE" stroke-width="2" stroke-linecap="round" stroke-linejoin="round"></path></svg>