<svg xmlns="http://www.w3.org/2000/svg" width="56" height="56" viewBox="0 0 56 56" fill="none"><path d="M28 50.8667C37.8374 50.8667 46.1534 43.0722 48.8764 34.125C49.4877 32.1125 53.6667 32.1125 53.6667 27.7667C53.6667 23.4197 49.448 23.17 48.7655 21.056C45.934 12.2909 37.7067 4.66669 28 4.66669C18.2875 4.66669 10.0567 12.2967 7.22987 21.07C6.55087 23.1817 2.33337 23.345 2.33337 27.7667C2.33337 32.1884 6.52404 32.1884 7.15754 34.2324C9.91321 43.1247 18.2024 50.8667 28 50.8667Z" stroke="#7FA6EE" stroke-width="2"></path><path d="M48.7655 21.056C45.934 12.2909 37.7067 4.66669 28 4.66669" stroke="#7FA6EE" stroke-width="2" stroke-linecap="round"></path><path d="M22.2833 25.2C22.2833 26.1637 22.022 27.0095 21.63 27.5987C21.2345 28.1914 20.7527 28.4667 20.3 28.4667C19.8473 28.4667 19.3667 28.1914 18.97 27.5987C18.578 27.0095 18.3167 26.1637 18.3167 25.2C18.3167 24.2352 18.578 23.3894 18.97 22.8014C19.3667 22.2087 19.8473 21.9333 20.3 21.9333C20.7538 21.9333 21.2345 22.2087 21.63 22.8014C22.022 23.3894 22.2833 24.2364 22.2833 25.2Z" fill="#7FA6EE"></path><path d="M37.6833 25.2C37.6833 26.1637 37.422 27.0095 37.03 27.5987C36.6345 28.1914 36.1527 28.4667 35.7 28.4667C35.2473 28.4667 34.7655 28.1914 34.37 27.5987C33.978 27.0095 33.7167 26.1637 33.7167 25.2C33.7167 24.2352 33.978 23.3894 34.37 22.8014C34.7655 22.2087 35.2473 21.9333 35.7 21.9333C36.1527 21.9333 36.6345 22.2087 37.03 22.8014C37.422 23.3894 37.6833 24.2364 37.6833 25.2Z" fill="#7FA6EE"></path><path d="M21.5811 37.0417C23.8327 38.5584 25.9771 39.3167 28.0106 39.3167C30.0429 39.3167 32.0577 38.5595 34.0539 37.0464" stroke="#7FA6EE" stroke-width="2" stroke-linecap="round"></path><path d="M37.016 7.23334C37.3286 9.48967 36.6415 11.137 34.9521 12.1788C33.264 13.2195 30.52 13.7072 26.7213 13.6418" stroke="#7FA6EE" stroke-width="2" stroke-linecap="round"></path></svg>