<svg xmlns="http://www.w3.org/2000/svg" width="56" height="56" viewBox="0 0 56 56" fill="none"><path d="M51.3333 44.3333V21H42V36.1667H14V21H4.66663V44.3333H51.3333Z" stroke="#7FA6EE" stroke-width="2" stroke-linecap="round" stroke-linejoin="round"></path><path d="M42 7H14V36.1667H42V7Z" stroke="#7FA6EE" stroke-width="2" stroke-linecap="round" stroke-linejoin="round"></path><path fill-rule="evenodd" clip-rule="evenodd" d="M11.6667 51.3334C12.9043 51.3334 14.0913 50.8417 14.9665 49.9665C15.8417 49.0914 16.3333 47.9044 16.3333 46.6667C15.0535 46.6714 7.81667 46.6667 7 46.6667C7 47.9044 7.49166 49.0914 8.36683 49.9665C9.242 50.8417 10.429 51.3334 11.6667 51.3334Z" fill="#7FA6EE"></path><path fill-rule="evenodd" clip-rule="evenodd" d="M44.3333 51.3333C45.571 51.3333 46.758 50.8417 47.6331 49.9665C48.5083 49.0913 49 47.9043 49 46.6667C46.7775 46.6585 40.6735 46.6667 39.6666 46.6667C39.6666 47.9043 40.1583 49.0913 41.0335 49.9665C41.9086 50.8417 43.0956 51.3333 44.3333 51.3333Z" fill="#7FA6EE"></path></svg>