<svg xmlns="http://www.w3.org/2000/svg" width="32" height="32" viewBox="0 0 32 32" fill="none"><path d="M15.9999 29.0667C21.6213 29.0667 26.3733 24.6133 27.9293 19.5C28.2786 18.3507 30.6666 18.3507 30.6666 15.8667C30.6666 13.3827 28.2559 13.24 27.8659 12.032C26.2479 7.02334 21.5466 2.66667 15.9999 2.66667C10.4499 2.66667 5.74659 7.02667 4.13125 12.04C3.74325 13.2467 1.33325 13.34 1.33325 15.8667C1.33325 18.3933 3.72792 18.3933 4.08992 19.5613C5.66459 24.6427 10.4013 29.0667 15.9999 29.0667Z" stroke="#7FA6EE" stroke-width="2"></path><path d="M27.866 12.032C26.248 7.02334 21.5467 2.66667 16 2.66667" stroke="#7FA6EE" stroke-width="2" stroke-linecap="round"></path><path d="M13.1652 13.6C13.1652 13.836 13.0357 14.0434 12.8414 14.1874C12.6453 14.3326 12.4065 14.4 12.1821 14.4C11.9577 14.4 11.7195 14.3326 11.5228 14.1874C11.3285 14.0434 11.199 13.836 11.199 13.6C11.199 13.3637 11.3285 13.1566 11.5228 13.0126C11.7195 12.8674 11.9577 12.8 12.1821 12.8C12.4071 12.8 12.6453 12.8674 12.8414 13.0126C13.0357 13.1566 13.1652 13.364 13.1652 13.6ZM20.799 13.6C20.799 13.836 20.6694 14.0434 20.4751 14.1874C20.2791 14.3326 20.0402 14.4 19.8158 14.4C19.5915 14.4 19.3526 14.3326 19.1566 14.1874C18.9623 14.0434 18.8327 13.836 18.8327 13.6C18.8327 13.3637 18.9623 13.1566 19.1566 13.0126C19.3526 12.8674 19.5915 12.8 19.8158 12.8C20.0402 12.8 20.2791 12.8674 20.4751 13.0126C20.6694 13.1566 20.799 13.364 20.799 13.6Z" fill="#0A0A0A" stroke="#7FA6EE" stroke-width="2"></path><mask id="path-4-inside-1_301_887" fill="white"><path fill-rule="evenodd" clip-rule="evenodd" d="M12.332 21.1667C13.6187 22.0333 14.844 22.4667 16.006 22.4667C17.1674 22.4667 18.3187 22.034 19.4594 21.17"></path></mask><path fill-rule="evenodd" clip-rule="evenodd" d="M12.332 21.1667C13.6187 22.0333 14.844 22.4667 16.006 22.4667C17.1674 22.4667 18.3187 22.034 19.4594 21.17" fill="#0A0A0A"></path><path d="M11.2147 22.8255C12.7234 23.8417 14.3329 24.4667 16.006 24.4667V20.4667C15.3551 20.4667 14.514 20.225 13.4494 19.5079L11.2147 22.8255ZM16.006 24.4667C17.697 24.4667 19.2616 23.8287 20.667 22.7643L18.2518 19.5757C17.3758 20.2393 16.6377 20.4667 16.006 20.4667V24.4667Z" fill="#7FA6EE" mask="url(#path-4-inside-1_301_887)"></path><path d="M12.332 21.1667C13.6187 22.0333 14.844 22.4667 16.006 22.4667C17.1674 22.4667 18.3187 22.034 19.4594 21.17M21.152 4.13333C21.3307 5.42266 20.938 6.36466 19.9727 6.95933C19.008 7.554 17.44 7.83266 15.2694 7.79533" stroke="#7FA6EE" stroke-width="2" stroke-linecap="round"></path></svg>