<svg xmlns="http://www.w3.org/2000/svg" width="131" height="32" viewBox="0 0 131 32" fill="none"><rect width="51.0625" height="28.4399" fill="#6FE7DB"></rect><path d="M63.9478 12.2808V0.840217H66.36V11.5595L65.2741 10.3184H70.6183V12.2808H63.9478Z" fill="white"></path><path d="M72.0275 12.2808V4.04358H74.4087V12.2808H72.0275ZM73.2142 2.70174C72.8419 2.70174 72.5161 2.60349 72.2369 2.40699C71.9628 2.2105 71.8258 1.93386 71.8258 1.57707C71.8258 1.21511 71.9628 0.935878 72.2369 0.739385C72.5161 0.542892 72.8419 0.444645 73.2142 0.444645C73.5917 0.444645 73.9174 0.542892 74.1915 0.739385C74.4707 0.935878 74.6103 1.21511 74.6103 1.57707C74.6103 1.93903 74.4707 2.21826 74.1915 2.41475C73.9174 2.60607 73.5917 2.70174 73.2142 2.70174Z" fill="white"></path><path d="M77.1811 12.2808V5.9051H75.4669V4.04358H77.1811V3.47737C77.1811 2.92925 77.2535 2.46129 77.3983 2.07347C77.5482 1.68049 77.7499 1.35472 78.0032 1.09618C78.2566 0.832461 78.541 0.625625 78.8564 0.47567C79.177 0.320543 79.5054 0.211955 79.8415 0.149904C80.1828 0.0826827 80.5137 0.0490723 80.8343 0.0490723C81.1756 0.0490723 81.429 0.0697555 81.5944 0.111122C81.7651 0.147319 81.8788 0.178344 81.9357 0.204199V2.07347C81.8736 2.05279 81.7625 2.02952 81.6022 2.00367C81.4471 1.97781 81.279 1.96488 81.098 1.96488C80.7981 1.96488 80.5499 2.00367 80.3534 2.08123C80.1569 2.15879 80.0018 2.27255 79.888 2.42251C79.7743 2.56729 79.6941 2.74052 79.6476 2.94218C79.601 3.13867 79.5778 3.35327 79.5778 3.58596V4.04358H81.7883V5.9051H79.5778V12.2808H77.1811Z" fill="white"></path><path d="M83.6328 8.88352V7.29348H89.0932L88.8605 7.69681C88.8605 7.65544 88.8605 7.61666 88.8605 7.58046C88.8605 7.5391 88.8605 7.50031 88.8605 7.46412C88.8605 7.16938 88.7907 6.88756 88.6511 6.61868C88.5115 6.34462 88.2943 6.12227 87.9996 5.95163C87.71 5.77583 87.3377 5.68792 86.8827 5.68792C86.4276 5.68792 86.0346 5.78617 85.7037 5.98266C85.3779 6.17398 85.1271 6.45062 84.9513 6.81259C84.7807 7.17455 84.6954 7.61149 84.6954 8.12341C84.6954 8.65084 84.7781 9.10329 84.9436 9.48076C85.1142 9.85307 85.365 10.14 85.6959 10.3417C86.032 10.5434 86.4483 10.6442 86.9447 10.6442C87.2653 10.6442 87.5419 10.6158 87.7746 10.5589C88.0073 10.4968 88.1961 10.4193 88.3408 10.3262C88.4908 10.2331 88.6046 10.1297 88.6821 10.0159C88.7597 9.90219 88.8062 9.79101 88.8217 9.68243H91.1952C91.1642 10.0289 91.0452 10.3702 90.8384 10.7063C90.6315 11.0372 90.3446 11.3371 89.9774 11.606C89.6103 11.8697 89.163 12.0791 88.6356 12.2343C88.1133 12.3894 87.5161 12.4669 86.8439 12.4669C85.9338 12.4669 85.1401 12.286 84.4627 11.924C83.7853 11.5569 83.2605 11.0527 82.8882 10.4115C82.5158 9.76516 82.3297 9.02055 82.3297 8.1777C82.3297 7.3245 82.5184 6.57731 82.8959 5.93612C83.2786 5.28976 83.8086 4.78819 84.486 4.4314C85.1685 4.06943 85.9571 3.88845 86.8516 3.88845C87.7669 3.88845 88.558 4.07202 89.2251 4.43915C89.8921 4.80111 90.4066 5.31045 90.7686 5.96715C91.1305 6.61868 91.3115 7.3788 91.3115 8.24751C91.3115 8.37678 91.3089 8.50088 91.3038 8.61981C91.2986 8.73874 91.2908 8.82664 91.2805 8.88352H83.6328Z" fill="white"></path><path d="M96.2425 12.4669C95.7512 12.4669 95.2781 12.4101 94.8231 12.2963C94.368 12.1825 93.9595 12.0145 93.5976 11.7921C93.2408 11.5698 92.9564 11.2932 92.7444 10.9622C92.5375 10.6261 92.4341 10.2357 92.4341 9.79102C92.4341 9.77033 92.4341 9.74706 92.4341 9.72121C92.4341 9.69018 92.4341 9.66691 92.4341 9.6514H94.8231C94.8231 9.66691 94.8231 9.68501 94.8231 9.7057C94.8231 9.72121 94.8231 9.73931 94.8231 9.75999C94.8231 10.0599 94.9549 10.2797 95.2186 10.4193C95.4875 10.5589 95.8495 10.6287 96.3045 10.6287C96.5424 10.6287 96.7699 10.6054 96.9871 10.5589C97.2094 10.5072 97.3904 10.427 97.53 10.3184C97.6748 10.2047 97.7472 10.0625 97.7472 9.89185C97.7472 9.61779 97.5947 9.42388 97.2896 9.31012C96.9897 9.19636 96.5062 9.0826 95.8392 8.96884C95.4617 8.90679 95.079 8.81889 94.6912 8.70513C94.3034 8.59137 93.9466 8.44141 93.6208 8.25526C93.2951 8.06394 93.0339 7.82349 92.8375 7.53393C92.641 7.23918 92.5427 6.88239 92.5427 6.46355C92.5427 5.9051 92.7108 5.43455 93.0469 5.0519C93.3882 4.66926 93.8406 4.37969 94.4042 4.18319C94.9679 3.9867 95.5884 3.88845 96.2658 3.88845C96.9121 3.88845 97.5145 3.99704 98.073 4.21422C98.6314 4.42622 99.0839 4.73389 99.4303 5.13722C99.7768 5.53538 99.95 6.01627 99.95 6.5799C99.95 6.59024 99.95 6.60575 99.95 6.62644C99.95 6.64712 99.95 6.6678 99.95 6.68849H97.5843C97.5843 6.6678 97.5843 6.6497 97.5843 6.63419C97.5843 6.61868 97.5843 6.60575 97.5843 6.59541C97.5843 6.38857 97.5171 6.22052 97.3827 6.09125C97.2534 5.96198 97.0879 5.86631 96.8863 5.80426C96.6846 5.73704 96.4752 5.70343 96.258 5.70343C96.0615 5.70343 95.8573 5.7267 95.6452 5.77324C95.4384 5.81461 95.2626 5.887 95.1178 5.99042C94.973 6.08866 94.9006 6.22828 94.9006 6.40926C94.9006 6.58507 94.9782 6.72985 95.1333 6.84361C95.2885 6.9522 95.5056 7.04269 95.7849 7.11508C96.0641 7.1823 96.3873 7.24694 96.7544 7.30899C97.1008 7.36587 97.4654 7.44602 97.848 7.54944C98.2359 7.64768 98.5978 7.78988 98.9339 7.97604C99.2752 8.15702 99.5493 8.39746 99.7561 8.69737C99.9681 8.99211 100.074 9.367 100.074 9.82204C100.074 10.2926 99.9655 10.6959 99.7483 11.032C99.5312 11.3681 99.2364 11.6422 98.8641 11.8542C98.497 12.061 98.0859 12.2136 97.6309 12.3118C97.181 12.4152 96.7182 12.4669 96.2425 12.4669Z" fill="white"></path><path d="M105.543 12.4514C105.228 12.4514 104.902 12.423 104.566 12.3661C104.235 12.3144 103.925 12.2084 103.635 12.0481C103.351 11.8826 103.121 11.6422 102.945 11.3268C102.769 11.0113 102.681 10.5951 102.681 10.078C102.681 9.96424 102.681 9.84789 102.681 9.72896C102.681 9.61003 102.681 9.4911 102.681 9.37217V5.9051H100.781V4.04358H101.316C101.626 4.04358 101.872 4.03065 102.053 4.0048C102.239 3.97894 102.376 3.91431 102.464 3.81089C102.557 3.7023 102.617 3.53425 102.643 3.30673C102.668 3.07921 102.681 2.76637 102.681 2.36821V1.32887H105.094V4.04358H107.49V5.9051H105.094V8.86801C105.094 8.96109 105.094 9.05158 105.094 9.13948C105.094 9.22739 105.094 9.31271 105.094 9.39544C105.094 9.75223 105.135 10.0418 105.218 10.2642C105.306 10.4865 105.52 10.5977 105.861 10.5977C106.032 10.5977 106.192 10.5822 106.342 10.5511C106.497 10.5201 106.614 10.4891 106.691 10.4581V12.2653C106.583 12.3118 106.43 12.3532 106.234 12.3894C106.037 12.4307 105.807 12.4514 105.543 12.4514Z" fill="white"></path><path d="M109.631 15.8409C109.372 15.8409 109.139 15.8306 108.932 15.8099C108.731 15.7944 108.604 15.7763 108.552 15.7556V13.9329C108.62 13.9639 108.736 13.9872 108.901 14.0027C109.072 14.0234 109.253 14.0337 109.444 14.0337C109.698 14.0337 109.925 13.982 110.127 13.8786C110.334 13.7804 110.51 13.6382 110.654 13.452C110.804 13.271 110.921 13.0564 111.003 12.8082L111.143 12.3894L108.304 4.04358H110.809L112.601 10.7993H112.322L114.044 4.04358H116.518L113.687 12.6919C113.475 13.3434 113.214 13.9045 112.904 14.375C112.593 14.8456 112.18 15.2075 111.663 15.4609C111.146 15.7143 110.468 15.8409 109.631 15.8409Z" fill="white"></path><path d="M120.148 0.15766V12.2808H117.775V0.15766H120.148Z" fill="white"></path><path d="M122.99 8.88352V7.29348H128.451L128.218 7.69681C128.218 7.65544 128.218 7.61666 128.218 7.58046C128.218 7.5391 128.218 7.50031 128.218 7.46412C128.218 7.16938 128.148 6.88756 128.008 6.61868C127.869 6.34462 127.652 6.12227 127.357 5.95163C127.067 5.77583 126.695 5.68792 126.24 5.68792C125.785 5.68792 125.392 5.78617 125.061 5.98266C124.735 6.17398 124.484 6.45062 124.309 6.81259C124.138 7.17455 124.053 7.61149 124.053 8.12341C124.053 8.65084 124.135 9.10329 124.301 9.48076C124.472 9.85307 124.722 10.14 125.053 10.3417C125.389 10.5434 125.806 10.6442 126.302 10.6442C126.623 10.6442 126.899 10.6158 127.132 10.5589C127.365 10.4968 127.553 10.4193 127.698 10.3262C127.848 10.2331 127.962 10.1297 128.039 10.0159C128.117 9.90219 128.164 9.79101 128.179 9.68243H130.552C130.521 10.0289 130.403 10.3702 130.196 10.7063C129.989 11.0372 129.702 11.3371 129.335 11.606C128.968 11.8697 128.52 12.0791 127.993 12.2343C127.471 12.3894 126.873 12.4669 126.201 12.4669C125.291 12.4669 124.497 12.286 123.82 11.924C123.143 11.5569 122.618 11.0527 122.245 10.4115C121.873 9.76516 121.687 9.02055 121.687 8.1777C121.687 7.3245 121.876 6.57731 122.253 5.93612C122.636 5.28976 123.166 4.78819 123.843 4.4314C124.526 4.06943 125.314 3.88845 126.209 3.88845C127.124 3.88845 127.915 4.07202 128.582 4.43915C129.249 4.80111 129.764 5.31045 130.126 5.96715C130.488 6.61868 130.669 7.3788 130.669 8.24751C130.669 8.37678 130.666 8.50088 130.661 8.61981C130.656 8.73874 130.648 8.82664 130.638 8.88352H122.99Z" fill="white"></path><path d="M63.9478 28.4398V16.9992H67.6476C68.4129 16.9992 69.1084 17.1388 69.734 17.4181C70.3649 17.6921 70.9052 18.0825 71.3551 18.5893C71.8101 19.0908 72.1592 19.6907 72.4022 20.3887C72.6452 21.0868 72.7668 21.8573 72.7668 22.7001C72.7668 23.543 72.6452 24.316 72.4022 25.0193C72.1592 25.7225 71.8101 26.3301 71.3551 26.842C70.9052 27.3487 70.3649 27.7417 69.734 28.021C69.1084 28.3002 68.4129 28.4398 67.6476 28.4398H63.9478ZM66.3678 27.7262L65.2819 26.5783H67.3373C67.8958 26.5783 68.3999 26.4232 68.8498 26.1129C69.3048 25.7975 69.6642 25.3502 69.9279 24.7711C70.1917 24.1868 70.3235 23.4964 70.3235 22.7001C70.3235 21.8986 70.1917 21.2135 69.9279 20.6447C69.6642 20.0707 69.3048 19.6312 68.8498 19.3261C68.3999 19.0159 67.8958 18.8607 67.3373 18.8607H65.2819L66.3678 17.7128V27.7262Z" fill="white"></path><path d="M77.1397 28.6104C76.5399 28.6104 76.0047 28.5148 75.5342 28.3235C75.0688 28.1321 74.7043 27.8555 74.4405 27.4935C74.1768 27.1316 74.045 26.692 74.045 26.175C74.045 25.5906 74.2053 25.1149 74.5259 24.7478C74.8465 24.3807 75.2705 24.1014 75.7979 23.9101C76.3305 23.7136 76.9071 23.5843 77.5276 23.5223C78.4325 23.4344 79.0556 23.3542 79.3968 23.2818C79.7433 23.2095 79.9165 23.0828 79.9165 22.9018C79.9165 22.8966 79.9165 22.8914 79.9165 22.8863C79.9165 22.5812 79.7691 22.3407 79.4744 22.1649C79.1848 21.9891 78.7789 21.9012 78.2567 21.9012C77.7034 21.9012 77.2794 22.0021 76.9846 22.2037C76.6951 22.4002 76.5503 22.7027 76.5503 23.1112H74.1846C74.1846 22.4493 74.363 21.8909 74.7198 21.4358C75.0817 20.9808 75.5704 20.6369 76.1857 20.4043C76.8011 20.1664 77.4965 20.0475 78.2722 20.0475C78.9961 20.0475 79.6657 20.1586 80.2811 20.381C80.8964 20.5982 81.3902 20.9265 81.7625 21.366C82.14 21.8056 82.3287 22.364 82.3287 23.0414C82.3287 23.15 82.3287 23.2586 82.3287 23.3672C82.3287 23.4706 82.3287 23.5766 82.3287 23.6852V26.6016C82.3287 26.8136 82.3339 27.0178 82.3442 27.2143C82.3598 27.4056 82.3908 27.5814 82.4373 27.7417C82.489 27.9227 82.5537 28.0727 82.6312 28.1916C82.7088 28.3105 82.7734 28.3933 82.8251 28.4398H80.4595C80.4233 28.4036 80.3664 28.3286 80.2888 28.2149C80.2164 28.1011 80.1544 27.9693 80.1027 27.8193C80.0406 27.6383 79.9941 27.4573 79.963 27.2764C79.9372 27.0902 79.9243 26.873 79.9243 26.6248L80.4207 26.9661C80.2759 27.3074 80.0406 27.6021 79.7148 27.8503C79.3943 28.0934 79.0116 28.2821 78.5669 28.4165C78.1274 28.5458 77.6517 28.6104 77.1397 28.6104ZM77.7835 26.811C78.161 26.811 78.5126 26.7438 78.8384 26.6093C79.1693 26.4697 79.4382 26.2525 79.645 25.9578C79.8519 25.663 79.9553 25.2778 79.9553 24.8021V23.9722L80.5525 24.5539C80.2113 24.678 79.8157 24.7814 79.3658 24.8641C78.9211 24.9417 78.4764 25.0038 78.0317 25.0503C77.5043 25.102 77.1087 25.1925 76.845 25.3218C76.5865 25.4459 76.4572 25.6579 76.4572 25.9578C76.4572 26.2422 76.5684 26.4568 76.7907 26.6016C77.0131 26.7412 77.344 26.811 77.7835 26.811Z" fill="white"></path><path d="M83.9952 28.4398V20.2026H86.3764V28.4398H83.9952ZM85.182 18.8607C84.8097 18.8607 84.4839 18.7625 84.2047 18.566C83.9306 18.3695 83.7936 18.0929 83.7936 17.7361C83.7936 17.3741 83.9306 17.0949 84.2047 16.8984C84.4839 16.7019 84.8097 16.6037 85.182 16.6037C85.5594 16.6037 85.8852 16.7019 86.1593 16.8984C86.4385 17.0949 86.5781 17.3741 86.5781 17.7361C86.5781 18.098 86.4385 18.3773 86.1593 18.5738C85.8852 18.7651 85.5594 18.8607 85.182 18.8607Z" fill="white"></path><path d="M91.5766 28.626C91.0853 28.626 90.6122 28.5691 90.1572 28.4553C89.7021 28.3416 89.2936 28.1735 88.9317 27.9512C88.5749 27.7288 88.2905 27.4522 88.0785 27.1212C87.8716 26.7851 87.7682 26.3947 87.7682 25.95C87.7682 25.9293 87.7682 25.9061 87.7682 25.8802C87.7682 25.8492 87.7682 25.8259 87.7682 25.8104H90.1572C90.1572 25.8259 90.1572 25.844 90.1572 25.8647C90.1572 25.8802 90.1572 25.8983 90.1572 25.919C90.1572 26.2189 90.289 26.4387 90.5527 26.5783C90.8216 26.7179 91.1836 26.7877 91.6386 26.7877C91.8765 26.7877 92.104 26.7644 92.3212 26.7179C92.5435 26.6662 92.7245 26.586 92.8641 26.4775C93.0089 26.3637 93.0813 26.2215 93.0813 26.0509C93.0813 25.7768 92.9288 25.5829 92.6237 25.4691C92.3238 25.3554 91.8403 25.2416 91.1732 25.1279C90.7958 25.0658 90.4131 24.9779 90.0253 24.8641C89.6375 24.7504 89.2807 24.6004 88.9549 24.4143C88.6292 24.2229 88.368 23.9825 88.1715 23.6929C87.975 23.3982 87.8768 23.0414 87.8768 22.6226C87.8768 22.0641 88.0449 21.5936 88.381 21.2109C88.7222 20.8283 89.1747 20.5387 89.7383 20.3422C90.3019 20.1457 90.9225 20.0475 91.5998 20.0475C92.2462 20.0475 92.8486 20.156 93.4071 20.3732C93.9655 20.5852 94.418 20.8929 94.7644 21.2962C95.1109 21.6944 95.2841 22.1753 95.2841 22.7389C95.2841 22.7492 95.2841 22.7648 95.2841 22.7854C95.2841 22.8061 95.2841 22.8268 95.2841 22.8475H92.9184C92.9184 22.8268 92.9184 22.8087 92.9184 22.7932C92.9184 22.7777 92.9184 22.7648 92.9184 22.7544C92.9184 22.5476 92.8512 22.3795 92.7167 22.2503C92.5875 22.121 92.422 22.0253 92.2203 21.9633C92.0187 21.8961 91.8093 21.8624 91.5921 21.8624C91.3956 21.8624 91.1913 21.8857 90.9793 21.9322C90.7725 21.9736 90.5967 22.046 90.4519 22.1494C90.3071 22.2477 90.2347 22.3873 90.2347 22.5683C90.2347 22.7441 90.3123 22.8889 90.4674 23.0026C90.6225 23.1112 90.8397 23.2017 91.1189 23.2741C91.3982 23.3413 91.7214 23.4059 92.0885 23.468C92.4349 23.5249 92.7995 23.605 93.1821 23.7084C93.5699 23.8067 93.9319 23.9489 94.268 24.135C94.6093 24.316 94.8833 24.5565 95.0902 24.8564C95.3022 25.1511 95.4082 25.526 95.4082 25.981C95.4082 26.4516 95.2996 26.8549 95.0824 27.191C94.8652 27.5271 94.5705 27.8012 94.1982 28.0132C93.8311 28.22 93.42 28.3726 92.9649 28.4708C92.5151 28.5742 92.0523 28.626 91.5766 28.626Z" fill="white"></path><path d="M97.1931 32C96.9346 32 96.7019 31.9896 96.495 31.9689C96.2934 31.9534 96.1667 31.9353 96.115 31.9146V30.0919C96.1822 30.1229 96.2986 30.1462 96.464 30.1617C96.6347 30.1824 96.8156 30.1927 97.007 30.1927C97.2603 30.1927 97.4879 30.141 97.6895 30.0376C97.8964 29.9394 98.0722 29.7972 98.2169 29.611C98.3669 29.43 98.4832 29.2154 98.566 28.9672L98.7056 28.5484L95.8668 20.2026H98.3721L100.164 26.9583H99.8846L101.606 20.2026H104.081L101.25 28.8509C101.038 29.5024 100.777 30.0635 100.466 30.534C100.156 31.0046 99.7424 31.3665 99.2253 31.6199C98.7082 31.8733 98.0308 32 97.1931 32Z" fill="white"></path><path d="M51.0625 13.1587L17.4518 0V28.4399H51.0625V13.1587Z" fill="#7FA6EE"></path><path d="M0 17.3263L25.2081 7.75635V28.4399H0V17.3263Z" fill="#B8F7D4"></path></svg>