<svg xmlns="http://www.w3.org/2000/svg" width="131" height="32" viewBox="0 0 131 32" fill="none"><rect width="51.0625" height="28.4399" fill="#6FE7DB"></rect><path d="M63.9478 12.2808V0.840263H66.36V11.5595L65.2741 10.3185H70.6183V12.2808H63.9478Z" fill="#0A0A0A"></path><path d="M72.0275 12.2808V4.04362H74.4087V12.2808H72.0275ZM73.2142 2.70178C72.8419 2.70178 72.5161 2.60353 72.2369 2.40704C71.9628 2.21055 71.8258 1.9339 71.8258 1.57711C71.8258 1.21515 71.9628 0.935924 72.2369 0.739431C72.5161 0.542937 72.8419 0.444691 73.2142 0.444691C73.5917 0.444691 73.9174 0.542937 74.1915 0.739431C74.4707 0.935924 74.6103 1.21515 74.6103 1.57711C74.6103 1.93908 74.4707 2.2183 74.1915 2.4148C73.9174 2.60612 73.5917 2.70178 73.2142 2.70178Z" fill="#0A0A0A"></path><path d="M77.1811 12.2808V5.90514H75.4669V4.04362H77.1811V3.47741C77.1811 2.9293 77.2535 2.46133 77.3983 2.07352C77.5482 1.68053 77.7499 1.35477 78.0032 1.09622C78.2566 0.832507 78.541 0.625671 78.8564 0.475715C79.177 0.320589 79.5054 0.212 79.8415 0.149949C80.1828 0.0827285 80.5137 0.049118 80.8343 0.049118C81.1756 0.049118 81.429 0.0698013 81.5944 0.111168C81.7651 0.147364 81.8788 0.17839 81.9357 0.204244V2.07352C81.8736 2.05283 81.7625 2.02957 81.6022 2.00371C81.4471 1.97786 81.279 1.96493 81.098 1.96493C80.7981 1.96493 80.5499 2.00371 80.3534 2.08127C80.1569 2.15884 80.0018 2.2726 79.888 2.42255C79.7743 2.56734 79.6941 2.74056 79.6476 2.94223C79.601 3.13872 79.5778 3.35331 79.5778 3.586V4.04362H81.7883V5.90514H79.5778V12.2808H77.1811Z" fill="#0A0A0A"></path><path d="M83.6328 8.88357V7.29352H89.0932L88.8605 7.69685C88.8605 7.65549 88.8605 7.6167 88.8605 7.58051C88.8605 7.53914 88.8605 7.50036 88.8605 7.46416C88.8605 7.16942 88.7907 6.88761 88.6511 6.61872C88.5115 6.34467 88.2943 6.12232 87.9996 5.95168C87.71 5.77587 87.3377 5.68796 86.8827 5.68796C86.4276 5.68796 86.0346 5.78621 85.7037 5.98271C85.3779 6.17403 85.1271 6.45067 84.9513 6.81263C84.7807 7.17459 84.6954 7.61153 84.6954 8.12345C84.6954 8.65088 84.7781 9.10333 84.9436 9.48081C85.1142 9.85311 85.365 10.1401 85.6959 10.3418C86.032 10.5434 86.4483 10.6443 86.9447 10.6443C87.2653 10.6443 87.5419 10.6158 87.7746 10.5589C88.0073 10.4969 88.1961 10.4193 88.3408 10.3262C88.4908 10.2332 88.6046 10.1298 88.6821 10.016C88.7597 9.90224 88.8062 9.79106 88.8217 9.68247H91.1952C91.1642 10.0289 91.0452 10.3702 90.8384 10.7063C90.6315 11.0372 90.3446 11.3372 89.9774 11.606C89.6103 11.8698 89.163 12.0792 88.6356 12.2343C88.1133 12.3894 87.5161 12.467 86.8439 12.467C85.9338 12.467 85.1401 12.286 84.4627 11.9241C83.7853 11.5569 83.2605 11.0528 82.8882 10.4116C82.5158 9.76521 82.3297 9.0206 82.3297 8.17775C82.3297 7.32455 82.5184 6.57736 82.8959 5.93617C83.2786 5.28981 83.8086 4.78823 84.486 4.43144C85.1685 4.06948 85.9571 3.8885 86.8516 3.8885C87.7669 3.8885 88.558 4.07206 89.2251 4.4392C89.8921 4.80116 90.4066 5.31049 90.7686 5.96719C91.1305 6.61872 91.3115 7.37884 91.3115 8.24755C91.3115 8.37682 91.3089 8.50093 91.3038 8.61986C91.2986 8.73879 91.2908 8.82669 91.2805 8.88357H83.6328Z" fill="#0A0A0A"></path><path d="M96.2425 12.467C95.7512 12.467 95.2781 12.4101 94.8231 12.2964C94.368 12.1826 93.9595 12.0145 93.5976 11.7922C93.2408 11.5698 92.9564 11.2932 92.7444 10.9623C92.5375 10.6262 92.4341 10.2358 92.4341 9.79106C92.4341 9.77038 92.4341 9.74711 92.4341 9.72125C92.4341 9.69023 92.4341 9.66696 92.4341 9.65145H94.8231C94.8231 9.66696 94.8231 9.68506 94.8231 9.70574C94.8231 9.72125 94.8231 9.73935 94.8231 9.76004C94.8231 10.0599 94.9549 10.2797 95.2186 10.4193C95.4875 10.5589 95.8495 10.6287 96.3045 10.6287C96.5424 10.6287 96.7699 10.6055 96.9871 10.5589C97.2094 10.5072 97.3904 10.4271 97.53 10.3185C97.6748 10.2047 97.7472 10.0625 97.7472 9.89189C97.7472 9.61784 97.5947 9.42393 97.2896 9.31017C96.9897 9.19641 96.5062 9.08265 95.8392 8.96889C95.4617 8.90684 95.079 8.81894 94.6912 8.70518C94.3034 8.59142 93.9466 8.44146 93.6208 8.25531C93.2951 8.06399 93.0339 7.82354 92.8375 7.53397C92.641 7.23923 92.5427 6.88244 92.5427 6.4636C92.5427 5.90514 92.7108 5.43459 93.0469 5.05195C93.3882 4.6693 93.8406 4.37973 94.4042 4.18324C94.9679 3.98675 95.5884 3.8885 96.2658 3.8885C96.9121 3.8885 97.5145 3.99709 98.073 4.21426C98.6314 4.42627 99.0839 4.73394 99.4303 5.13727C99.7768 5.53542 99.95 6.01632 99.95 6.57994C99.95 6.59028 99.95 6.6058 99.95 6.62648C99.95 6.64716 99.95 6.66785 99.95 6.68853H97.5843C97.5843 6.66785 97.5843 6.64975 97.5843 6.63424C97.5843 6.61872 97.5843 6.6058 97.5843 6.59546C97.5843 6.38862 97.5171 6.22057 97.3827 6.09129C97.2534 5.96202 97.0879 5.86636 96.8863 5.80431C96.6846 5.73709 96.4752 5.70348 96.258 5.70348C96.0615 5.70348 95.8573 5.72675 95.6452 5.77328C95.4384 5.81465 95.2626 5.88704 95.1178 5.99046C94.973 6.08871 94.9006 6.22832 94.9006 6.4093C94.9006 6.58511 94.9782 6.7299 95.1333 6.84366C95.2885 6.95225 95.5056 7.04274 95.7849 7.11513C96.0641 7.18235 96.3873 7.24699 96.7544 7.30904C97.1008 7.36592 97.4654 7.44607 97.848 7.54948C98.2359 7.64773 98.5978 7.78993 98.9339 7.97608C99.2752 8.15706 99.5493 8.39751 99.7561 8.69742C99.9681 8.99216 100.074 9.36705 100.074 9.82209C100.074 10.2926 99.9655 10.696 99.7483 11.0321C99.5312 11.3682 99.2364 11.6422 98.8641 11.8542C98.497 12.0611 98.0859 12.2136 97.6309 12.3119C97.181 12.4153 96.7182 12.467 96.2425 12.467Z" fill="#0A0A0A"></path><path d="M105.543 12.4515C105.228 12.4515 104.902 12.423 104.566 12.3662C104.235 12.3145 103.925 12.2084 103.635 12.0482C103.351 11.8827 103.121 11.6422 102.945 11.3268C102.769 11.0114 102.681 10.5951 102.681 10.078C102.681 9.96429 102.681 9.84794 102.681 9.72901C102.681 9.61008 102.681 9.49115 102.681 9.37222V5.90514H100.781V4.04362H101.316C101.626 4.04362 101.872 4.0307 102.053 4.00484C102.239 3.97899 102.376 3.91435 102.464 3.81094C102.557 3.70235 102.617 3.53429 102.643 3.30677C102.668 3.07925 102.681 2.76642 102.681 2.36826V1.32891H105.094V4.04362H107.49V5.90514H105.094V8.86806C105.094 8.96113 105.094 9.05162 105.094 9.13953C105.094 9.22743 105.094 9.31275 105.094 9.39549C105.094 9.75228 105.135 10.0418 105.218 10.2642C105.306 10.4865 105.52 10.5977 105.861 10.5977C106.032 10.5977 106.192 10.5822 106.342 10.5512C106.497 10.5202 106.614 10.4891 106.691 10.4581V12.2653C106.583 12.3119 106.43 12.3532 106.234 12.3894C106.037 12.4308 105.807 12.4515 105.543 12.4515Z" fill="#0A0A0A"></path><path d="M109.631 15.841C109.372 15.841 109.139 15.8307 108.932 15.81C108.731 15.7945 108.604 15.7764 108.552 15.7557V13.9329C108.62 13.964 108.736 13.9872 108.901 14.0027C109.072 14.0234 109.253 14.0338 109.444 14.0338C109.698 14.0338 109.925 13.9821 110.127 13.8786C110.334 13.7804 110.51 13.6382 110.654 13.452C110.804 13.2711 110.921 13.0565 111.003 12.8083L111.143 12.3894L108.304 4.04362H110.809L112.601 10.7994H112.322L114.044 4.04362H116.518L113.687 12.6919C113.475 13.3435 113.214 13.9045 112.904 14.375C112.593 14.8456 112.18 15.2076 111.663 15.4609C111.146 15.7143 110.468 15.841 109.631 15.841Z" fill="#0A0A0A"></path><path d="M120.148 0.157706V12.2808H117.775V0.157706H120.148Z" fill="#0A0A0A"></path><path d="M122.99 8.88357V7.29352H128.451L128.218 7.69685C128.218 7.65549 128.218 7.6167 128.218 7.58051C128.218 7.53914 128.218 7.50036 128.218 7.46416C128.218 7.16942 128.148 6.88761 128.008 6.61872C127.869 6.34467 127.652 6.12232 127.357 5.95168C127.067 5.77587 126.695 5.68796 126.24 5.68796C125.785 5.68796 125.392 5.78621 125.061 5.98271C124.735 6.17403 124.484 6.45067 124.309 6.81263C124.138 7.17459 124.053 7.61153 124.053 8.12345C124.053 8.65088 124.135 9.10333 124.301 9.48081C124.472 9.85311 124.722 10.1401 125.053 10.3418C125.389 10.5434 125.806 10.6443 126.302 10.6443C126.623 10.6443 126.899 10.6158 127.132 10.5589C127.365 10.4969 127.553 10.4193 127.698 10.3262C127.848 10.2332 127.962 10.1298 128.039 10.016C128.117 9.90224 128.164 9.79106 128.179 9.68247H130.552C130.521 10.0289 130.403 10.3702 130.196 10.7063C129.989 11.0372 129.702 11.3372 129.335 11.606C128.968 11.8698 128.52 12.0792 127.993 12.2343C127.471 12.3894 126.873 12.467 126.201 12.467C125.291 12.467 124.497 12.286 123.82 11.9241C123.143 11.5569 122.618 11.0528 122.245 10.4116C121.873 9.76521 121.687 9.0206 121.687 8.17775C121.687 7.32455 121.876 6.57736 122.253 5.93617C122.636 5.28981 123.166 4.78823 123.843 4.43144C124.526 4.06948 125.314 3.8885 126.209 3.8885C127.124 3.8885 127.915 4.07206 128.582 4.4392C129.249 4.80116 129.764 5.31049 130.126 5.96719C130.488 6.61872 130.669 7.37884 130.669 8.24755C130.669 8.37682 130.666 8.50093 130.661 8.61986C130.656 8.73879 130.648 8.82669 130.638 8.88357H122.99Z" fill="#0A0A0A"></path><path d="M63.9478 28.4398V16.9993H67.6476C68.4129 16.9993 69.1084 17.1389 69.734 17.4181C70.3649 17.6922 70.9052 18.0826 71.3551 18.5893C71.8101 19.0909 72.1592 19.6907 72.4022 20.3888C72.6452 21.0869 72.7668 21.8573 72.7668 22.7002C72.7668 23.543 72.6452 24.3161 72.4022 25.0193C72.1592 25.7226 71.8101 26.3301 71.3551 26.842C70.9052 27.3488 70.3649 27.7418 69.734 28.021C69.1084 28.3002 68.4129 28.4398 67.6476 28.4398H63.9478ZM66.3678 27.7263L65.2819 26.5783H67.3373C67.8958 26.5783 68.3999 26.4232 68.8498 26.113C69.3048 25.7975 69.6642 25.3502 69.9279 24.7711C70.1917 24.1868 70.3235 23.4965 70.3235 22.7002C70.3235 21.8987 70.1917 21.2135 69.9279 20.6447C69.6642 20.0708 69.3048 19.6313 68.8498 19.3262C68.3999 19.0159 67.8958 18.8608 67.3373 18.8608H65.2819L66.3678 17.7129V27.7263Z" fill="#0A0A0A"></path><path d="M77.1397 28.6105C76.5399 28.6105 76.0047 28.5148 75.5342 28.3235C75.0688 28.1322 74.7043 27.8555 74.4405 27.4936C74.1768 27.1316 74.045 26.6921 74.045 26.175C74.045 25.5907 74.2053 25.115 74.5259 24.7478C74.8465 24.3807 75.2705 24.1015 75.7979 23.9102C76.3305 23.7137 76.9071 23.5844 77.5276 23.5223C78.4325 23.4344 79.0556 23.3543 79.3968 23.2819C79.7433 23.2095 79.9165 23.0828 79.9165 22.9018C79.9165 22.8967 79.9165 22.8915 79.9165 22.8863C79.9165 22.5812 79.7691 22.3408 79.4744 22.165C79.1848 21.9892 78.7789 21.9013 78.2567 21.9013C77.7034 21.9013 77.2794 22.0021 76.9846 22.2038C76.6951 22.4003 76.5503 22.7028 76.5503 23.1113H74.1846C74.1846 22.4494 74.363 21.8909 74.7198 21.4359C75.0817 20.9809 75.5704 20.637 76.1857 20.4043C76.8011 20.1664 77.4965 20.0475 78.2722 20.0475C78.9961 20.0475 79.6657 20.1587 80.2811 20.381C80.8964 20.5982 81.3902 20.9266 81.7625 21.3661C82.14 21.8056 82.3287 22.3641 82.3287 23.0414C82.3287 23.15 82.3287 23.2586 82.3287 23.3672C82.3287 23.4706 82.3287 23.5766 82.3287 23.6852V26.6016C82.3287 26.8136 82.3339 27.0179 82.3442 27.2143C82.3598 27.4057 82.3908 27.5815 82.4373 27.7418C82.489 27.9228 82.5537 28.0727 82.6312 28.1916C82.7088 28.3106 82.7734 28.3933 82.8251 28.4398H80.4595C80.4233 28.4037 80.3664 28.3287 80.2888 28.2149C80.2164 28.1012 80.1544 27.9693 80.1027 27.8193C80.0406 27.6384 79.9941 27.4574 79.963 27.2764C79.9372 27.0903 79.9243 26.8731 79.9243 26.6249L80.4207 26.9661C80.2759 27.3074 80.0406 27.6022 79.7148 27.8504C79.3943 28.0934 79.0116 28.2821 78.5669 28.4166C78.1274 28.5459 77.6517 28.6105 77.1397 28.6105ZM77.7835 26.811C78.161 26.811 78.5126 26.7438 78.8384 26.6094C79.1693 26.4697 79.4382 26.2526 79.645 25.9578C79.8519 25.6631 79.9553 25.2779 79.9553 24.8021V23.9722L80.5525 24.5539C80.2113 24.678 79.8157 24.7814 79.3658 24.8642C78.9211 24.9417 78.4764 25.0038 78.0317 25.0503C77.5043 25.102 77.1087 25.1925 76.845 25.3218C76.5865 25.4459 76.4572 25.6579 76.4572 25.9578C76.4572 26.2422 76.5684 26.4568 76.7907 26.6016C77.0131 26.7412 77.344 26.811 77.7835 26.811Z" fill="#0A0A0A"></path><path d="M83.9952 28.4398V20.2026H86.3764V28.4398H83.9952ZM85.182 18.8608C84.8097 18.8608 84.4839 18.7625 84.2047 18.566C83.9306 18.3696 83.7936 18.0929 83.7936 17.7361C83.7936 17.3742 83.9306 17.0949 84.2047 16.8984C84.4839 16.7019 84.8097 16.6037 85.182 16.6037C85.5594 16.6037 85.8852 16.7019 86.1593 16.8984C86.4385 17.0949 86.5781 17.3742 86.5781 17.7361C86.5781 18.0981 86.4385 18.3773 86.1593 18.5738C85.8852 18.7651 85.5594 18.8608 85.182 18.8608Z" fill="#0A0A0A"></path><path d="M91.5766 28.626C91.0853 28.626 90.6122 28.5691 90.1572 28.4554C89.7021 28.3416 89.2936 28.1735 88.9317 27.9512C88.5749 27.7289 88.2905 27.4522 88.0785 27.1213C87.8716 26.7852 87.7682 26.3948 87.7682 25.9501C87.7682 25.9294 87.7682 25.9061 87.7682 25.8803C87.7682 25.8492 87.7682 25.826 87.7682 25.8105H90.1572C90.1572 25.826 90.1572 25.8441 90.1572 25.8647C90.1572 25.8803 90.1572 25.8984 90.1572 25.919C90.1572 26.219 90.289 26.4387 90.5527 26.5783C90.8216 26.7179 91.1836 26.7878 91.6386 26.7878C91.8765 26.7878 92.104 26.7645 92.3212 26.7179C92.5435 26.6662 92.7245 26.5861 92.8641 26.4775C93.0089 26.3637 93.0813 26.2215 93.0813 26.0509C93.0813 25.7768 92.9288 25.5829 92.6237 25.4692C92.3238 25.3554 91.8403 25.2417 91.1732 25.1279C90.7958 25.0658 90.4131 24.9779 90.0253 24.8642C89.6375 24.7504 89.2807 24.6005 88.9549 24.4143C88.6292 24.223 88.368 23.9825 88.1715 23.693C87.975 23.3982 87.8768 23.0414 87.8768 22.6226C87.8768 22.0642 88.0449 21.5936 88.381 21.211C88.7222 20.8283 89.1747 20.5387 89.7383 20.3422C90.3019 20.1458 90.9225 20.0475 91.5998 20.0475C92.2462 20.0475 92.8486 20.1561 93.4071 20.3733C93.9655 20.5853 94.418 20.8929 94.7644 21.2963C95.1109 21.6944 95.2841 22.1753 95.2841 22.739C95.2841 22.7493 95.2841 22.7648 95.2841 22.7855C95.2841 22.8062 95.2841 22.8269 95.2841 22.8475H92.9184C92.9184 22.8269 92.9184 22.8088 92.9184 22.7932C92.9184 22.7777 92.9184 22.7648 92.9184 22.7545C92.9184 22.5476 92.8512 22.3796 92.7167 22.2503C92.5875 22.121 92.422 22.0254 92.2203 21.9633C92.0187 21.8961 91.8093 21.8625 91.5921 21.8625C91.3956 21.8625 91.1913 21.8858 90.9793 21.9323C90.7725 21.9737 90.5967 22.0461 90.4519 22.1495C90.3071 22.2477 90.2347 22.3873 90.2347 22.5683C90.2347 22.7441 90.3123 22.8889 90.4674 23.0027C90.6225 23.1113 90.8397 23.2017 91.1189 23.2741C91.3982 23.3414 91.7214 23.406 92.0885 23.468C92.4349 23.5249 92.7995 23.6051 93.1821 23.7085C93.5699 23.8067 93.9319 23.9489 94.268 24.1351C94.6093 24.3161 94.8833 24.5565 95.0902 24.8564C95.3022 25.1512 95.4082 25.5261 95.4082 25.9811C95.4082 26.4516 95.2996 26.855 95.0824 27.1911C94.8652 27.5272 94.5705 27.8012 94.1982 28.0133C93.8311 28.2201 93.42 28.3726 92.9649 28.4709C92.5151 28.5743 92.0523 28.626 91.5766 28.626Z" fill="#0A0A0A"></path><path d="M97.1931 32C96.9346 32 96.7019 31.9897 96.495 31.969C96.2934 31.9535 96.1667 31.9354 96.115 31.9147V30.0919C96.1822 30.123 96.2986 30.1462 96.464 30.1618C96.6347 30.1824 96.8156 30.1928 97.007 30.1928C97.2603 30.1928 97.4879 30.1411 97.6895 30.0377C97.8964 29.9394 98.0722 29.7972 98.2169 29.6111C98.3669 29.4301 98.4832 29.2155 98.566 28.9673L98.7056 28.5484L95.8668 20.2026H98.3721L100.164 26.9584H99.8846L101.606 20.2026H104.081L101.25 28.8509C101.038 29.5025 100.777 30.0635 100.466 30.5341C100.156 31.0046 99.7424 31.3666 99.2253 31.6199C98.7082 31.8733 98.0308 32 97.1931 32Z" fill="#0A0A0A"></path><path d="M51.0625 13.1587L17.4518 0V28.4399H51.0625V13.1587Z" fill="#7FA6EE"></path><path d="M0 17.3263L25.2081 7.7563V28.4398H0V17.3263Z" fill="#B8F7D4"></path></svg>